<svg xmlns="http://www.w3.org/2000/svg" width="119" height="119" viewBox="0 0 119 119">
  <g id="Group_1484" data-name="Group 1484" transform="translate(-349 -2474)">
    <rect id="Rectangle_372" data-name="Rectangle 372" width="119" height="119" rx="20" transform="translate(349 2474)" fill="#13bfc9" opacity="0.1"/>
    <g id="Notification_Bell" data-name="Notification Bell" transform="translate(376.947 2496.5)">
      <path id="Path_1548" data-name="Path 1548" d="M14.342,9.187a11.834,11.834,0,0,1,5.89,10.2,1.683,1.683,0,1,0,3.366,0A15.209,15.209,0,0,0,16.024,6.259a1.683,1.683,0,1,0-1.683,2.915Z" transform="translate(23.601 10.723)" fill="#13bfc9"/>
      <path id="Path_1549" data-name="Path 1549" d="M56.979,52.2,53.93,40V30.108A21.9,21.9,0,0,0,37.1,8.844v-2.3a5.049,5.049,0,1,0-10.1,0v2.3A21.9,21.9,0,0,0,10.176,30.108V40L7.127,52.2a5.049,5.049,0,0,0,1.366,9.885H20.445a11.723,11.723,0,0,0,23.223,0H55.613A5.049,5.049,0,0,0,56.979,52.2ZM30.37,8.231V6.549a1.683,1.683,0,1,1,3.366,0V8.231ZM13.542,40.205v-10.1a18.511,18.511,0,1,1,37.022,0v10.1a1.646,1.646,0,0,0,.05.407l2.844,11.373H10.647l2.844-11.373A1.646,1.646,0,0,0,13.542,40.205ZM32.053,68.813a8.414,8.414,0,0,1-8.242-6.73l16.491,0a8.414,8.414,0,0,1-8.249,6.731Zm23.56-10.1H8.493a1.683,1.683,0,0,1,0-3.366H55.613a1.683,1.683,0,0,1,0,3.366Z" transform="translate(0 0)" fill="#13bfc9"/>
    </g>
  </g>
</svg>
