<svg xmlns="http://www.w3.org/2000/svg" width="119" height="119" viewBox="0 0 119 119">
  <g id="Group_1483" data-name="Group 1483" transform="translate(-1453 -2059)">
    <rect id="Rectangle_369" data-name="Rectangle 369" width="119" height="119" rx="20" transform="translate(1453 2059)" fill="#13bfc9" opacity="0.1"/>
    <g id="TRANSFER" transform="translate(1460.443 2063.133)">
      <g id="Group_1370" data-name="Group 1370" transform="translate(31.332 34.403)">
        <path id="Path_1514" data-name="Path 1514" d="M63.517,69.624v1.451H61.454V69.556a9.3,9.3,0,0,1-5.283-2.426L57.8,65.112a7.748,7.748,0,0,0,3.65,1.95V62.639c-2.789-.726-4.671-1.723-4.671-4.4,0-2.449,1.882-4.331,4.671-4.671V52.189h2.063v1.405A8.438,8.438,0,0,1,68.279,55.7L66.738,57.79a7.424,7.424,0,0,0-3.221-1.7v4.263c3.107.7,5.17,1.769,5.17,4.535C68.688,67.492,66.806,69.4,63.517,69.624ZM61.454,59.8V56.041a2.141,2.141,0,0,0-1.814,1.95C59.64,58.9,60.23,59.375,61.454,59.8Zm4.4,5.356c0-1.043-.725-1.519-2.336-2V67.2c1.545-.182,2.338-1.044,2.338-2.042Z" transform="translate(-41.686 -40.887)" fill="#13bfc9"/>
        <path id="Path_1515" data-name="Path 1515" d="M58.794,79.538A20.743,20.743,0,1,1,79.538,58.794,20.743,20.743,0,0,1,58.794,79.538Zm0-38.69A17.945,17.945,0,1,0,76.74,58.793,17.945,17.945,0,0,0,58.794,40.847Z" transform="translate(-38.051 -38.051)" fill="#13bfc9"/>
        <path id="Path_1516" data-name="Path 1516" d="M60.319,74.988a14.67,14.67,0,1,1,14.67-14.67,14.67,14.67,0,0,1-14.67,14.67Zm0-26.54A11.872,11.872,0,1,0,72.19,60.32,11.872,11.872,0,0,0,60.319,48.448Z" transform="translate(-39.575 -39.575)" fill="#13bfc9"/>
      </g>
      <path id="Path_1517" data-name="Path 1517" d="M105.485,43.963a1.4,1.4,0,0,1-1.4-1.4V37.2H95.38a1.4,1.4,0,0,1,0-2.8h10.105a1.4,1.4,0,0,1,1.4,1.4v3.383l7.274-7.27-7.274-7.274v3.383a1.4,1.4,0,0,1-1.4,1.4H95.38a1.4,1.4,0,0,1,0-2.8h8.706V21.267a1.4,1.4,0,0,1,2.388-.989l10.649,10.647a1.4,1.4,0,0,1,0,1.978L106.474,43.555a1.4,1.4,0,0,1-.989.408Z" transform="translate(-17.94)" fill="#13bfc9"/>
      <path id="Path_1518" data-name="Path 1518" d="M87.7,31.123H86.022a1.4,1.4,0,1,1,0-2.8H87.7a1.4,1.4,0,0,1,0,2.8Z" transform="translate(-16.062 -1.697)" fill="#13bfc9"/>
      <path id="Path_1519" data-name="Path 1519" d="M87.7,40.851H86.022a1.4,1.4,0,1,1,0-2.8H87.7a1.4,1.4,0,0,1,0,2.8Z" transform="translate(-16.062 -3.648)" fill="#13bfc9"/>
      <path id="Path_1520" data-name="Path 1520" d="M16.6,102.084a1.4,1.4,0,0,1-.989-.41L4.966,91.027a1.4,1.4,0,0,1,0-1.978L15.616,78.4A1.4,1.4,0,0,1,18,79.386v5.361H26.71a1.4,1.4,0,1,1,0,2.8H16.6a1.4,1.4,0,0,1-1.4-1.4V82.766l-7.274,7.27,7.274,7.274V93.925a1.4,1.4,0,0,1,1.4-1.4H26.71a1.4,1.4,0,1,1,0,2.8H18v5.361a1.4,1.4,0,0,1-1.4,1.4Z" transform="translate(0 -11.659)" fill="#13bfc9"/>
      <path id="Path_1521" data-name="Path 1521" d="M40.859,98.973H39.18a1.4,1.4,0,1,1,0-2.8h1.679a1.4,1.4,0,1,1,0,2.8Z" transform="translate(-6.665 -15.308)" fill="#13bfc9"/>
      <path id="Path_1522" data-name="Path 1522" d="M40.859,89.245H39.18a1.4,1.4,0,1,1,0-2.8h1.679a1.4,1.4,0,1,1,0,2.8Z" transform="translate(-6.665 -13.357)" fill="#13bfc9"/>
    </g>
  </g>
</svg>
