<svg xmlns="http://www.w3.org/2000/svg" width="119" height="119" viewBox="0 0 119 119">
  <g id="Group_1486" data-name="Group 1486" transform="translate(-1453 -2484)">
    <rect id="Rectangle_370" data-name="Rectangle 370" width="119" height="119" rx="20" transform="translate(1453 2484)" fill="#13bfc9" opacity="0.1"/>
    <g id="_9760_-_Skills" data-name="9760 - Skills" transform="translate(1107.806 2244)">
      <g id="Group_1372" data-name="Group 1372" transform="translate(369.01 256)">
        <g id="Group_1371" data-name="Group 1371" transform="translate(3.438 5.676)">
          <path id="Path_1523" data-name="Path 1523" d="M432.819,551.2a1.321,1.321,0,0,1-1.042-2.131,10.544,10.544,0,0,1,8.38-4.1h.722a10.545,10.545,0,0,1,8.379,4.1,1.321,1.321,0,1,1-2.085,1.621,7.921,7.921,0,0,0-6.294-3.082h-.722a7.92,7.92,0,0,0-6.294,3.083A1.319,1.319,0,0,1,432.819,551.2Z" transform="translate(-431.499 -534.737)" fill="#13bfc9"/>
          <path id="Path_1524" data-name="Path 1524" d="M484.923,372.015a6.433,6.433,0,1,1,6.433-6.433A6.44,6.44,0,0,1,484.923,372.015Zm0-10.224a3.792,3.792,0,1,0,3.792,3.792A3.8,3.8,0,0,0,484.923,361.791Z" transform="translate(-475.904 -359.15)" fill="#13bfc9"/>
        </g>
        <path id="Path_1525" data-name="Path 1525" d="M381.467,281.223a12.456,12.456,0,0,1-12.457-12.457v-.31a12.457,12.457,0,1,1,24.913,0v.31a12.456,12.456,0,0,1-12.457,12.457Zm0-22.582a9.827,9.827,0,0,0-9.816,9.816v.31a9.816,9.816,0,0,0,19.631,0v-.31A9.827,9.827,0,0,0,381.467,258.641Z" transform="translate(-369.01 -256)" fill="#13bfc9"/>
      </g>
      <g id="Group_1374" data-name="Group 1374" transform="translate(369.01 285.646)">
        <g id="Group_1373" data-name="Group 1373" transform="translate(3.438 5.676)">
          <path id="Path_1526" data-name="Path 1526" d="M432.819,1089.994a1.321,1.321,0,0,1-1.042-2.131,10.544,10.544,0,0,1,8.38-4.1h.722a10.546,10.546,0,0,1,8.379,4.1,1.321,1.321,0,1,1-2.085,1.621,7.922,7.922,0,0,0-6.294-3.082h-.722a7.92,7.92,0,0,0-6.294,3.083A1.319,1.319,0,0,1,432.819,1089.994Z" transform="translate(-431.499 -1073.536)" fill="#13bfc9"/>
          <path id="Path_1527" data-name="Path 1527" d="M484.923,910.805a6.433,6.433,0,1,1,6.433-6.433A6.44,6.44,0,0,1,484.923,910.805Zm0-10.224a3.792,3.792,0,1,0,3.792,3.792A3.8,3.8,0,0,0,484.923,900.581Z" transform="translate(-475.904 -897.94)" fill="#13bfc9"/>
        </g>
        <path id="Path_1528" data-name="Path 1528" d="M381.467,820.012a12.456,12.456,0,0,1-12.457-12.457v-.31a12.457,12.457,0,1,1,24.913,0v.31a12.456,12.456,0,0,1-12.457,12.457Zm0-22.582a9.827,9.827,0,0,0-9.816,9.815v.31a9.816,9.816,0,0,0,19.631,0v-.31A9.827,9.827,0,0,0,381.467,797.43Z" transform="translate(-369.01 -794.789)" fill="#13bfc9"/>
      </g>
      <g id="Group_1376" data-name="Group 1376" transform="translate(369.01 315.292)">
        <g id="Group_1375" data-name="Group 1375" transform="translate(3.438 5.676)">
          <path id="Path_1529" data-name="Path 1529" d="M432.819,1628.784a1.321,1.321,0,0,1-1.042-2.131,10.544,10.544,0,0,1,8.38-4.1h.722a10.546,10.546,0,0,1,8.379,4.1,1.321,1.321,0,0,1-2.085,1.621,7.922,7.922,0,0,0-6.294-3.082h-.722a7.92,7.92,0,0,0-6.294,3.083A1.319,1.319,0,0,1,432.819,1628.784Z" transform="translate(-431.499 -1612.326)" fill="#13bfc9"/>
          <path id="Path_1530" data-name="Path 1530" d="M484.923,1449.606a6.433,6.433,0,1,1,6.433-6.433A6.44,6.44,0,0,1,484.923,1449.606Zm0-10.224a3.792,3.792,0,1,0,3.792,3.792A3.8,3.8,0,0,0,484.923,1439.382Z" transform="translate(-475.904 -1436.741)" fill="#13bfc9"/>
        </g>
        <path id="Path_1531" data-name="Path 1531" d="M381.467,1358.812a12.456,12.456,0,0,1-12.457-12.457v-.31a12.457,12.457,0,1,1,24.913,0v.31a12.456,12.456,0,0,1-12.457,12.457Zm0-22.582a9.827,9.827,0,0,0-9.816,9.816v.31a9.816,9.816,0,1,0,19.631,0v-.31A9.827,9.827,0,0,0,381.467,1336.23Z" transform="translate(-369.01 -1333.589)" fill="#13bfc9"/>
      </g>
      <path id="Path_1532" data-name="Path 1532" d="M966.955,383.879H931.611a2.975,2.975,0,0,1-2.971-2.971v-6.587a2.975,2.975,0,0,1,2.971-2.971h35.344a2.975,2.975,0,0,1,2.971,2.971v6.587A2.974,2.974,0,0,1,966.955,383.879Zm-35.344-9.888a.33.33,0,0,0-.33.33v6.587a.33.33,0,0,0,.33.33h35.344a.33.33,0,0,0,.33-.33v-6.587a.331.331,0,0,0-.33-.33Z" transform="translate(-528.838 -109.003)" fill="#13bfc9"/>
      <path id="Path_1533" data-name="Path 1533" d="M966.955,922.67H931.611a2.975,2.975,0,0,1-2.971-2.971v-6.587a2.975,2.975,0,0,1,2.971-2.971h35.344a2.975,2.975,0,0,1,2.971,2.971V919.7A2.975,2.975,0,0,1,966.955,922.67Zm-35.344-9.889a.33.33,0,0,0-.33.33V919.7a.33.33,0,0,0,.33.33h35.344a.331.331,0,0,0,.33-.33v-6.587a.331.331,0,0,0-.33-.33Z" transform="translate(-528.838 -618.147)" fill="#13bfc9"/>
      <path id="Path_1534" data-name="Path 1534" d="M966.955,1461.46H931.611a2.975,2.975,0,0,1-2.971-2.971V1451.9a2.975,2.975,0,0,1,2.971-2.971h35.344a2.975,2.975,0,0,1,2.971,2.971v6.587A2.975,2.975,0,0,1,966.955,1461.46Zm-35.344-9.889a.33.33,0,0,0-.33.33v6.587a.33.33,0,0,0,.33.33h35.344a.33.33,0,0,0,.33-.33V1451.9a.331.331,0,0,0-.33-.33Z" transform="translate(-528.838 -1127.291)" fill="#13bfc9"/>
      <g id="Group_1377" data-name="Group 1377" transform="translate(404.724 266.164)">
        <path id="Path_1535" data-name="Path 1535" d="M1019.4,445.615a1.321,1.321,0,0,1-1.32-1.321v-2.254a1.321,1.321,0,1,1,2.641,0v2.254A1.321,1.321,0,0,1,1019.4,445.615Z" transform="translate(-1018.08 -440.72)" fill="#13bfc9"/>
        <path id="Path_1536" data-name="Path 1536" d="M1106.651,445.615a1.321,1.321,0,0,1-1.321-1.321v-2.254a1.321,1.321,0,0,1,2.641,0v2.254A1.321,1.321,0,0,1,1106.651,445.615Z" transform="translate(-1100.529 -440.72)" fill="#13bfc9"/>
        <path id="Path_1537" data-name="Path 1537" d="M1193.891,445.615a1.321,1.321,0,0,1-1.321-1.321v-2.254a1.321,1.321,0,0,1,2.641,0v2.254A1.321,1.321,0,0,1,1193.891,445.615Z" transform="translate(-1182.969 -440.72)" fill="#13bfc9"/>
      </g>
      <g id="Group_1378" data-name="Group 1378" transform="translate(404.724 295.81)">
        <path id="Path_1538" data-name="Path 1538" d="M1019.4,984.406a1.32,1.32,0,0,1-1.32-1.321v-2.255a1.321,1.321,0,1,1,2.641,0v2.255A1.321,1.321,0,0,1,1019.4,984.406Z" transform="translate(-1018.08 -979.51)" fill="#13bfc9"/>
        <path id="Path_1539" data-name="Path 1539" d="M1106.651,984.406a1.32,1.32,0,0,1-1.321-1.321v-2.255a1.321,1.321,0,1,1,2.641,0v2.255A1.32,1.32,0,0,1,1106.651,984.406Z" transform="translate(-1100.529 -979.51)" fill="#13bfc9"/>
        <path id="Path_1540" data-name="Path 1540" d="M1193.891,984.406a1.32,1.32,0,0,1-1.321-1.321v-2.255a1.321,1.321,0,0,1,2.641,0v2.255A1.321,1.321,0,0,1,1193.891,984.406Z" transform="translate(-1182.969 -979.51)" fill="#13bfc9"/>
        <path id="Path_1541" data-name="Path 1541" d="M1281.141,984.406a1.321,1.321,0,0,1-1.321-1.321v-2.255a1.321,1.321,0,1,1,2.641,0v2.255A1.321,1.321,0,0,1,1281.141,984.406Z" transform="translate(-1265.418 -979.51)" fill="#13bfc9"/>
      </g>
      <g id="Group_1379" data-name="Group 1379" transform="translate(404.724 325.456)">
        <path id="Path_1542" data-name="Path 1542" d="M1019.4,1523.206a1.321,1.321,0,0,1-1.32-1.321v-2.254a1.321,1.321,0,1,1,2.641,0v2.254A1.321,1.321,0,0,1,1019.4,1523.206Z" transform="translate(-1018.08 -1518.31)" fill="#13bfc9"/>
        <path id="Path_1543" data-name="Path 1543" d="M1106.651,1523.206a1.321,1.321,0,0,1-1.321-1.321v-2.254a1.321,1.321,0,1,1,2.641,0v2.254A1.321,1.321,0,0,1,1106.651,1523.206Z" transform="translate(-1100.529 -1518.31)" fill="#13bfc9"/>
        <path id="Path_1544" data-name="Path 1544" d="M1193.891,1523.206a1.321,1.321,0,0,1-1.321-1.321v-2.254a1.321,1.321,0,1,1,2.641,0v2.254A1.321,1.321,0,0,1,1193.891,1523.206Z" transform="translate(-1182.969 -1518.31)" fill="#13bfc9"/>
        <path id="Path_1545" data-name="Path 1545" d="M1281.141,1523.206a1.321,1.321,0,0,1-1.321-1.321v-2.254a1.321,1.321,0,1,1,2.641,0v2.254A1.321,1.321,0,0,1,1281.141,1523.206Z" transform="translate(-1265.418 -1518.31)" fill="#13bfc9"/>
        <path id="Path_1546" data-name="Path 1546" d="M1368.382,1523.206a1.321,1.321,0,0,1-1.321-1.321v-2.254a1.321,1.321,0,1,1,2.641,0v2.254A1.321,1.321,0,0,1,1368.382,1523.206Z" transform="translate(-1347.859 -1518.31)" fill="#13bfc9"/>
        <path id="Path_1547" data-name="Path 1547" d="M1455.632,1523.206a1.321,1.321,0,0,1-1.321-1.321v-2.254a1.321,1.321,0,1,1,2.641,0v2.254A1.321,1.321,0,0,1,1455.632,1523.206Z" transform="translate(-1430.308 -1518.31)" fill="#13bfc9"/>
      </g>
    </g>
  </g>
</svg>
