<svg xmlns="http://www.w3.org/2000/svg" width="119" height="119" viewBox="0 0 119 119">
  <g id="Group_1485" data-name="Group 1485" transform="translate(-901 -2484)">
    <rect id="Rectangle_371" data-name="Rectangle 371" width="119" height="119" rx="20" transform="translate(901 2484)" fill="#13bfc9" opacity="0.1"/>
    <g id="infirmary" transform="translate(920 2503)">
      <path id="Path_1550" data-name="Path 1550" d="M29.552,29.1A11.552,11.552,0,1,0,18,17.552,11.552,11.552,0,0,0,29.552,29.1Zm0-19.253a7.7,7.7,0,1,1-7.7,7.7A7.7,7.7,0,0,1,29.552,9.851Z" transform="translate(11.104)" fill="#13bfc9"/>
      <path id="Path_1551" data-name="Path 1551" d="M22.925,16.7h1.925v1.925a1.925,1.925,0,1,0,3.851,0V16.7h1.925a1.925,1.925,0,1,0,0-3.851H28.7V10.925a1.925,1.925,0,1,0-3.851,0v1.925H22.925a1.925,1.925,0,0,0,0,3.851Z" transform="translate(13.88 2.776)" fill="#13bfc9"/>
      <path id="Path_1552" data-name="Path 1552" d="M6.443,20.794a9.627,9.627,0,0,0,5.333,5.969,8.8,8.8,0,0,0,.308,1.579V28.5a9.627,9.627,0,0,0,5.468,5.969,8.8,8.8,0,0,0,.308,1.579V36.2a9.627,9.627,0,0,0,9.319,6.758h5.776a9.473,9.473,0,0,0,5.776-1.925V44.88H34.88a5.776,5.776,0,0,0,0,11.552h3.851v1.925H36.805a1.925,1.925,0,0,0,0,3.851h1.925v1.925a1.925,1.925,0,1,0,3.851,0V62.208h2.888a4.813,4.813,0,1,0,0-9.627H42.581V48.731h9.627a1.925,1.925,0,0,0,0-3.851H42.581V41.029a9.473,9.473,0,0,0,5.776,1.925h5.776A9.627,9.627,0,0,0,63.317,36.2a.366.366,0,0,0,0-.135,7.856,7.856,0,0,0,.327-1.6,9.627,9.627,0,0,0,5.41-5.969.366.366,0,0,0,0-.135,7.855,7.855,0,0,0,.327-1.6,9.627,9.627,0,0,0,5.41-5.969.366.366,0,0,0,0-.135,9.3,9.3,0,0,0,.52-2.734A1.925,1.925,0,0,0,73.387,16H56.059a17.327,17.327,0,0,0-15.4,9.393,17.655,17.655,0,0,0-3.14-4.329A17.328,17.328,0,0,0,25.253,16H7.925A1.925,1.925,0,0,0,6,17.925a9.838,9.838,0,0,0,.385,2.715ZM32.955,50.656a1.925,1.925,0,0,1,1.925-1.925h3.851v3.851H34.88A1.925,1.925,0,0,1,32.955,50.656Zm13.477,6.739a.963.963,0,0,1-.963.963H42.581V56.432h2.888A.963.963,0,0,1,46.432,57.395Zm0-33.6a13.477,13.477,0,0,1,9.627-3.947H71.134A5.776,5.776,0,0,1,65.685,23.7H56.059a1.925,1.925,0,1,0,0,3.851h9.3A5.776,5.776,0,0,1,59.909,31.4H50.283a1.925,1.925,0,1,0,0,3.851h9.3A5.776,5.776,0,0,1,54.133,39.1H48.357a5.776,5.776,0,0,1-5.776-5.776,13.477,13.477,0,0,1,3.851-9.53ZM25.253,19.851A13.477,13.477,0,0,1,38.731,33.328,5.776,5.776,0,0,1,32.955,39.1H27.179a5.776,5.776,0,0,1-5.449-3.851h9.3a1.925,1.925,0,1,0,0-3.851H21.4a5.776,5.776,0,0,1-5.449-3.851h9.3a1.925,1.925,0,1,0,0-3.851H15.627a5.776,5.776,0,0,1-5.449-3.851Z" transform="translate(0 9.253)" fill="#13bfc9"/>
    </g>
  </g>
</svg>
