<svg xmlns="http://www.w3.org/2000/svg" width="119" height="119" viewBox="0 0 119 119">
  <g id="Group_1482" data-name="Group 1482" transform="translate(-901 -2059)">
    <rect id="Rectangle_367" data-name="Rectangle 367" width="119" height="119" rx="20" transform="translate(901 2059)" fill="#13bfc9" opacity="0.1"/>
    <g id="_9759_-_Experience" data-name="9759 - Experience" transform="translate(447.916 1820.461)">
      <path id="Path_1456" data-name="Path 1456" d="M507.252,330.645H486.166a4.131,4.131,0,0,1-4.126-4.126V260.126A4.131,4.131,0,0,1,486.166,256H538.82a4.131,4.131,0,0,1,4.126,4.126v66.392a4.131,4.131,0,0,1-4.126,4.126H517.735a1.349,1.349,0,0,1,0-2.7H538.82a1.431,1.431,0,0,0,1.429-1.429V260.126a1.431,1.431,0,0,0-1.429-1.429H486.166a1.431,1.431,0,0,0-1.429,1.429v66.393a1.431,1.431,0,0,0,1.429,1.429h21.086a1.349,1.349,0,1,1,0,2.7Z" transform="translate(0 0)" fill="#13bfc9"/>
      <g id="Group_1359" data-name="Group 1359" transform="translate(490.316 261.37)">
        <g id="Group_1356" data-name="Group 1356" transform="translate(0 26.028)">
          <g id="Group_1353" data-name="Group 1353">
            <g id="Group_1352" data-name="Group 1352">
              <path id="Path_1457" data-name="Path 1457" d="M631.415,817.467h-.736a1.349,1.349,0,1,1,0-2.7h.736a1.349,1.349,0,1,1,0,2.7Z" transform="translate(-629.33 -814.77)" fill="#13bfc9"/>
              <path id="Path_1458" data-name="Path 1458" d="M631.415,971.727h-.736a1.349,1.349,0,1,1,0-2.7h.736a1.349,1.349,0,1,1,0,2.7Z" transform="translate(-629.33 -960.362)" fill="#13bfc9"/>
            </g>
            <path id="Path_1459" data-name="Path 1459" d="M805.818,817.467H772.109a1.349,1.349,0,1,1,0-2.7h33.709a1.349,1.349,0,1,1,0,2.7Z" transform="translate(-762.813 -814.77)" fill="#13bfc9"/>
            <path id="Path_1460" data-name="Path 1460" d="M805.818,971.727H772.109a1.349,1.349,0,1,1,0-2.7h33.709a1.349,1.349,0,1,1,0,2.7Z" transform="translate(-762.813 -960.362)" fill="#13bfc9"/>
          </g>
          <g id="Group_1355" data-name="Group 1355" transform="translate(9.793 13.952)">
            <g id="Group_1354" data-name="Group 1354">
              <path id="Path_1461" data-name="Path 1461" d="M815.995,1087.84c-1.392,0-2.31-1.05-3.048-1.893a1.82,1.82,0,0,0-2.294-.934c-1.1.068-2.463.151-3.415-.8s-.867-2.317-.8-3.414a4.452,4.452,0,0,0-.033-1.37,4.5,4.5,0,0,0-.9-.924c-.844-.738-1.894-1.656-1.894-3.048s1.05-2.31,1.894-3.048a1.82,1.82,0,0,0,.933-2.293c-.068-1.1-.151-2.464.8-3.415s2.317-.867,3.414-.8a1.82,1.82,0,0,0,2.294-.934c.738-.844,1.656-1.893,3.049-1.893s2.31,1.05,3.048,1.893a1.82,1.82,0,0,0,2.294.933c1.1-.067,2.463-.151,3.415.8s.867,2.317.8,3.414a1.821,1.821,0,0,0,.934,2.294c.844.738,1.893,1.657,1.893,3.048s-1.05,2.31-1.893,3.048a1.82,1.82,0,0,0-.933,2.294c.067,1.1.151,2.463-.8,3.414s-2.317.868-3.414.8a1.82,1.82,0,0,0-2.294.934C818.305,1086.79,817.387,1087.84,815.995,1087.84Zm-4.566-5.557a4.221,4.221,0,0,1,1.627.272,5.5,5.5,0,0,1,1.921,1.616,1.02,1.02,0,0,0,2.037,0,5.494,5.494,0,0,1,1.921-1.616,5.767,5.767,0,0,1,2.568-.234.96.96,0,0,0,1.357-1.358,5.765,5.765,0,0,1,.234-2.568,5.49,5.49,0,0,1,1.616-1.921,1.02,1.02,0,0,0,0-2.037,5.493,5.493,0,0,1-1.616-1.921,5.767,5.767,0,0,1-.234-2.568.96.96,0,0,0-1.358-1.357,5.765,5.765,0,0,1-2.568-.234,5.493,5.493,0,0,1-1.921-1.616,1.02,1.02,0,0,0-2.037,0,5.491,5.491,0,0,1-1.921,1.616,5.768,5.768,0,0,1-2.568.234.96.96,0,0,0-1.357,1.358,5.767,5.767,0,0,1-.234,2.568,5.493,5.493,0,0,1-1.616,1.921,1.02,1.02,0,0,0,0,2.037,5.492,5.492,0,0,1,1.616,1.92,5.771,5.771,0,0,1,.234,2.568.96.96,0,0,0,1.358,1.357C810.79,1082.3,811.107,1082.283,811.429,1082.283Zm-2.262.049Zm-.047-.047Zm13.75,0Zm2.812-6.816h0Zm-16.563-6.841Zm13.75,0Zm-.046-.046Z" transform="translate(-803.611 -1063.073)" fill="#13bfc9"/>
              <path id="Path_1462" data-name="Path 1462" d="M944.484,1208.668a4.734,4.734,0,1,1,4.734-4.734A4.74,4.74,0,0,1,944.484,1208.668Zm0-6.771a2.037,2.037,0,1,0,2.037,2.037A2.039,2.039,0,0,0,944.484,1201.9Z" transform="translate(-932.1 -1191.551)" fill="#13bfc9"/>
            </g>
            <path id="Path_1463" data-name="Path 1463" d="M918.552,1424.863a1.349,1.349,0,0,1-.876-.323l-4.366-3.73-4.366,3.73a1.349,1.349,0,0,1-2.225-1.025v-16.8a1.349,1.349,0,0,1,2.7,0v13.87l3.017-2.577a1.348,1.348,0,0,1,1.752,0l3.018,2.578v-13.87a1.349,1.349,0,0,1,2.7,0v16.8a1.348,1.348,0,0,1-1.348,1.349Z" transform="translate(-900.926 -1386.136)" fill="#13bfc9"/>
          </g>
        </g>
        <g id="Group_1358" data-name="Group 1358" transform="translate(10.836 0)">
          <g id="Group_1357" data-name="Group 1357" transform="translate(3.085 5.093)">
            <path id="Path_1464" data-name="Path 1464" d="M878.426,611.361a1.349,1.349,0,0,1-1.064-2.176,9.623,9.623,0,0,1,7.648-3.745h.648a9.625,9.625,0,0,1,7.648,3.744,1.349,1.349,0,0,1-2.13,1.655,6.946,6.946,0,0,0-5.518-2.7h-.648a6.943,6.943,0,0,0-5.518,2.7A1.346,1.346,0,0,1,878.426,611.361Z" transform="translate(-877.079 -596.267)" fill="#13bfc9"/>
            <path id="Path_1465" data-name="Path 1465" d="M924.305,454.061a5.935,5.935,0,1,1,5.935-5.935A5.942,5.942,0,0,1,924.305,454.061Zm0-9.174a3.238,3.238,0,1,0,3.238,3.238A3.242,3.242,0,0,0,924.305,444.887Z" transform="translate(-916.05 -442.19)" fill="#13bfc9"/>
          </g>
          <path id="Path_1466" data-name="Path 1466" d="M833.52,374.518a11.353,11.353,0,0,1-11.34-11.34V362.9a11.34,11.34,0,1,1,22.681,0v.278A11.353,11.353,0,0,1,833.52,374.518Zm0-20.261a8.653,8.653,0,0,0-8.643,8.643v.278a8.643,8.643,0,1,0,17.286,0V362.9A8.653,8.653,0,0,0,833.52,354.257Z" transform="translate(-822.18 -351.56)" fill="#13bfc9"/>
        </g>
      </g>
    </g>
  </g>
</svg>
