<svg xmlns="http://www.w3.org/2000/svg" width="82.069" height="84.348" viewBox="0 0 82.069 84.348">
  <g id="INVESTMENT" transform="translate(-6.163 -4.557)">
    <path id="Path_1504" data-name="Path 1504" d="M86.393,74.932a6.276,6.276,0,0,0-8.879,0L66.4,86.049a6.283,6.283,0,0,0-5.86-4.044H46.266l-3.01-3.122a12.693,12.693,0,0,0-9.095-3.866H22.268V73.372a1.242,1.242,0,0,0-1.242-1.242H7.4a1.242,1.242,0,0,0,0,2.483h12.38v31.44H7.4a1.242,1.242,0,0,0,0,2.483H21.027a1.242,1.242,0,0,0,1.242-1.242v-1.642H61.028a8.451,8.451,0,0,0,6.016-2.492L86.393,83.81a6.277,6.277,0,0,0,0-8.878Zm-1.756,7.123L65.29,101.4a5.985,5.985,0,0,1-4.257,1.765H22.268V77.5H34.162a10.2,10.2,0,0,1,7.308,3.106l3.376,3.5a1.242,1.242,0,0,0,.894.38h14.8a3.8,3.8,0,1,1,0,7.592H42.571a1.242,1.242,0,0,0,0,2.483H60.536a6.283,6.283,0,0,0,6.2-5.342L79.269,76.691a3.8,3.8,0,1,1,5.367,5.367Z" transform="translate(0 -19.631)" fill="#13bfc9"/>
    <path id="Path_1505" data-name="Path 1505" d="M67.219,30.163,65.77,31.954a8.253,8.253,0,0,0,4.69,2.153v1.348h1.831V34.168c2.918-.2,4.589-1.892,4.589-4.207,0-2.455-1.831-3.4-4.589-4.025V22.153a6.576,6.576,0,0,1,2.858,1.511l1.369-1.852a7.491,7.491,0,0,0-4.226-1.872V18.691H70.46v1.228c-2.475.3-4.146,1.972-4.146,4.146,0,2.375,1.671,3.26,4.146,3.9v3.927A6.876,6.876,0,0,1,67.219,30.163Zm5.071-1.73c1.429.422,2.073.845,2.073,1.774,0,.885-.7,1.65-2.073,1.811Zm-3.442-4.589a1.9,1.9,0,0,1,1.611-1.73v3.34C69.373,25.071,68.849,24.649,68.849,23.843Z" transform="translate(-17.316 -4.106)" fill="#13bfc9"/>
    <path id="Path_1506" data-name="Path 1506" d="M66.061,41.378A18.411,18.411,0,1,0,47.65,22.967,18.41,18.41,0,0,0,66.061,41.378Zm0-34.339A15.927,15.927,0,1,1,50.133,22.967,15.927,15.927,0,0,1,66.061,7.039Z" transform="translate(-12.052)" fill="#13bfc9"/>
    <path id="Path_1507" data-name="Path 1507" d="M68.269,38.194a13.019,13.019,0,1,0-13.02-13.019,13.019,13.019,0,0,0,13.02,13.019Zm0-23.555A10.536,10.536,0,1,1,57.732,25.175,10.536,10.536,0,0,1,68.269,14.639Z" transform="translate(-14.26 -2.208)" fill="#13bfc9"/>
    <path id="Path_1508" data-name="Path 1508" d="M74.333,61.592a1.242,1.242,0,1,0-2.483,0v3.432a1.242,1.242,0,0,0,2.483,0Z" transform="translate(-19.083 -16.208)" fill="#13bfc9"/>
    <path id="Path_1509" data-name="Path 1509" d="M73.092,71.763A1.242,1.242,0,0,0,71.85,73v1.547a1.242,1.242,0,0,0,2.483,0V73A1.242,1.242,0,0,0,73.092,71.763Z" transform="translate(-19.083 -19.524)" fill="#13bfc9"/>
    <path id="Path_1510" data-name="Path 1510" d="M61.732,58.641a1.242,1.242,0,1,0-2.483,0v3.433a1.242,1.242,0,1,0,2.483,0Z" transform="translate(-15.422 -15.351)" fill="#13bfc9"/>
    <path id="Path_1511" data-name="Path 1511" d="M60.492,68.811a1.242,1.242,0,0,0-1.242,1.242V71.6a1.242,1.242,0,0,0,2.483,0V70.053A1.242,1.242,0,0,0,60.492,68.811Z" transform="translate(-15.422 -18.667)" fill="#13bfc9"/>
    <path id="Path_1512" data-name="Path 1512" d="M86.933,58.641a1.242,1.242,0,1,0-2.483,0v3.433a1.242,1.242,0,1,0,2.483,0Z" transform="translate(-22.743 -15.351)" fill="#13bfc9"/>
    <path id="Path_1513" data-name="Path 1513" d="M85.692,68.811a1.242,1.242,0,0,0-1.242,1.242V71.6a1.242,1.242,0,1,0,2.483,0V70.053a1.242,1.242,0,0,0-1.242-1.242Z" transform="translate(-22.743 -18.667)" fill="#13bfc9"/>
  </g>
</svg>
