<svg xmlns="http://www.w3.org/2000/svg" width="68.819" height="95" viewBox="0 0 68.819 95">
  <g id="_9759_-_Experience" data-name="9759 - Experience" transform="translate(-482.04 -256)">
    <path id="Path_1456" data-name="Path 1456" d="M510.527,340.343H486.7a4.667,4.667,0,0,1-4.662-4.662V260.662A4.667,4.667,0,0,1,486.7,256h59.5a4.667,4.667,0,0,1,4.662,4.662V335.68a4.667,4.667,0,0,1-4.662,4.662H522.373a1.524,1.524,0,0,1,0-3.048H546.2a1.617,1.617,0,0,0,1.615-1.615V260.662a1.616,1.616,0,0,0-1.615-1.615H486.7a1.616,1.616,0,0,0-1.615,1.615v75.019A1.616,1.616,0,0,0,486.7,337.3h23.825a1.524,1.524,0,1,1,0,3.048Z" transform="translate(0 0)" fill="#2aeaa5"/>
    <g id="Group_1359" data-name="Group 1359" transform="translate(491.392 262.067)">
      <g id="Group_1356" data-name="Group 1356" transform="translate(0 29.41)">
        <g id="Group_1353" data-name="Group 1353">
          <g id="Group_1352" data-name="Group 1352">
            <path id="Path_1457" data-name="Path 1457" d="M631.685,817.818h-.832a1.524,1.524,0,1,1,0-3.047h.832a1.524,1.524,0,1,1,0,3.047Z" transform="translate(-629.33 -814.77)" fill="#2aeaa5"/>
            <path id="Path_1458" data-name="Path 1458" d="M631.685,972.078h-.832a1.524,1.524,0,1,1,0-3.047h.832a1.524,1.524,0,0,1,0,3.047Z" transform="translate(-629.33 -959.236)" fill="#2aeaa5"/>
          </g>
          <path id="Path_1459" data-name="Path 1459" d="M810.373,817.818H772.284a1.524,1.524,0,1,1,0-3.047h38.089a1.524,1.524,0,1,1,0,3.047Z" transform="translate(-761.781 -814.77)" fill="#2aeaa5"/>
          <path id="Path_1460" data-name="Path 1460" d="M810.373,972.078H772.284a1.524,1.524,0,1,1,0-3.047h38.089a1.524,1.524,0,1,1,0,3.047Z" transform="translate(-761.781 -959.236)" fill="#2aeaa5"/>
        </g>
        <g id="Group_1355" data-name="Group 1355" transform="translate(11.065 15.765)">
          <g id="Group_1354" data-name="Group 1354">
            <path id="Path_1461" data-name="Path 1461" d="M817.6,1091.058c-1.573,0-2.611-1.186-3.444-2.139a2.056,2.056,0,0,0-2.592-1.055c-1.24.076-2.783.171-3.859-.9s-.98-2.618-.9-3.857a5.031,5.031,0,0,0-.037-1.548,5.088,5.088,0,0,0-1.017-1.044c-.953-.834-2.14-1.871-2.14-3.444s1.186-2.611,2.14-3.444a2.056,2.056,0,0,0,1.055-2.591c-.076-1.24-.171-2.784.9-3.859s2.618-.98,3.857-.9a2.057,2.057,0,0,0,2.592-1.055c.834-.953,1.872-2.139,3.445-2.139s2.61,1.186,3.444,2.139a2.056,2.056,0,0,0,2.592,1.055c1.24-.076,2.783-.171,3.859.9s.98,2.618.9,3.857a2.057,2.057,0,0,0,1.055,2.592c.953.834,2.139,1.872,2.139,3.444s-1.186,2.611-2.139,3.444a2.056,2.056,0,0,0-1.055,2.592c.076,1.24.171,2.783-.9,3.858s-2.618.98-3.857.9a2.057,2.057,0,0,0-2.592,1.055C820.214,1089.871,819.177,1091.058,817.6,1091.058Zm-5.159-6.279a4.769,4.769,0,0,1,1.839.307,6.21,6.21,0,0,1,2.17,1.826,1.152,1.152,0,0,0,2.3,0,6.208,6.208,0,0,1,2.17-1.826,6.517,6.517,0,0,1,2.9-.264,1.085,1.085,0,0,0,1.533-1.534,6.515,6.515,0,0,1,.264-2.9,6.2,6.2,0,0,1,1.826-2.17,1.152,1.152,0,0,0,0-2.3,6.207,6.207,0,0,1-1.826-2.17,6.518,6.518,0,0,1-.264-2.9,1.085,1.085,0,0,0-1.534-1.533,6.515,6.515,0,0,1-2.9-.264,6.205,6.205,0,0,1-2.17-1.826,1.152,1.152,0,0,0-2.3,0,6.205,6.205,0,0,1-2.17,1.826,6.518,6.518,0,0,1-2.9.264,1.085,1.085,0,0,0-1.533,1.534,6.516,6.516,0,0,1-.264,2.9,6.206,6.206,0,0,1-1.826,2.17,1.152,1.152,0,0,0,0,2.3,6.207,6.207,0,0,1,1.826,2.17,6.52,6.52,0,0,1,.264,2.9,1.085,1.085,0,0,0,1.534,1.533C811.723,1084.8,812.081,1084.778,812.444,1084.778Zm-2.556.055Zm-.053-.053Zm15.536,0Zm3.178-7.7h0Zm-18.715-7.73Zm15.537,0Zm-.052-.052Z" transform="translate(-803.611 -1063.073)" fill="#2aeaa5"/>
            <path id="Path_1462" data-name="Path 1462" d="M945.1,1209.9a5.349,5.349,0,1,1,5.349-5.349A5.356,5.356,0,0,1,945.1,1209.9Zm0-7.651a2.3,2.3,0,1,0,2.3,2.3A2.3,2.3,0,0,0,945.1,1202.248Z" transform="translate(-931.106 -1190.557)" fill="#2aeaa5"/>
          </g>
          <path id="Path_1463" data-name="Path 1463" d="M920.09,1427.4a1.524,1.524,0,0,1-.99-.365l-4.933-4.214-4.933,4.214a1.524,1.524,0,0,1-2.514-1.159v-18.978a1.524,1.524,0,0,1,3.048,0v15.672l3.409-2.912a1.523,1.523,0,0,1,1.979,0l3.41,2.912v-15.672a1.524,1.524,0,0,1,3.048,0v18.978a1.524,1.524,0,0,1-1.524,1.524Z" transform="translate(-900.173 -1383.637)" fill="#2aeaa5"/>
        </g>
      </g>
      <g id="Group_1358" data-name="Group 1358" transform="translate(12.244 0)">
        <g id="Group_1357" data-name="Group 1357" transform="translate(3.486 5.754)">
          <path id="Path_1464" data-name="Path 1464" d="M878.6,612.13a1.524,1.524,0,0,1-1.2-2.459,10.872,10.872,0,0,1,8.641-4.231h.733a10.875,10.875,0,0,1,8.641,4.23,1.524,1.524,0,1,1-2.406,1.87,7.848,7.848,0,0,0-6.235-3.053h-.733a7.845,7.845,0,0,0-6.235,3.053A1.521,1.521,0,0,1,878.6,612.13Z" transform="translate(-877.079 -595.075)" fill="#2aeaa5"/>
          <path id="Path_1465" data-name="Path 1465" d="M925.077,455.6a6.707,6.707,0,1,1,6.707-6.707A6.714,6.714,0,0,1,925.077,455.6Zm0-10.366a3.659,3.659,0,1,0,3.659,3.659A3.663,3.663,0,0,0,925.077,445.238Z" transform="translate(-915.748 -442.19)" fill="#2aeaa5"/>
        </g>
        <path id="Path_1466" data-name="Path 1466" d="M834.994,377.5a12.828,12.828,0,0,1-12.814-12.814v-.314a12.814,12.814,0,1,1,25.628,0v.314A12.828,12.828,0,0,1,834.994,377.5Zm0-22.894a9.777,9.777,0,0,0-9.766,9.766v.314a9.766,9.766,0,1,0,19.532,0v-.314A9.777,9.777,0,0,0,834.994,354.608Z" transform="translate(-822.18 -351.56)" fill="#2aeaa5"/>
      </g>
    </g>
  </g>
</svg>
