<svg xmlns="http://www.w3.org/2000/svg" width="83" height="83" viewBox="0 0 83 83">
  <g id="Group_1472" data-name="Group 1472" transform="translate(-141 -1889)">
    <rect id="Rectangle_358" data-name="Rectangle 358" width="83" height="83" rx="20" transform="translate(141 1889)" fill="#bef9e4" opacity="0.2"/>
    <g id="_9737_-_Cost_Management" data-name="9737 - Cost Management" transform="translate(-147.605 1659.207)">
      <g id="Group_1341" data-name="Group 1341" transform="translate(305.507 271.401)">
        <path id="Path_1421" data-name="Path 1421" d="M615.38,1459.8h-6.132a.83.83,0,0,1-.83-.83v-10.24a.83.83,0,0,1,.83-.83h6.132a.83.83,0,0,1,.83.83v10.24A.83.83,0,0,1,615.38,1459.8Zm-5.3-1.66h4.472v-8.581h-4.472Z" transform="translate(-597.942 -1433.661)" fill="#2aeaa5"/>
        <path id="Path_1422" data-name="Path 1422" d="M1524.136,1455.551H1518a.83.83,0,0,1-.83-.83v-10.392a.83.83,0,0,1,.83-.83h6.132a.83.83,0,0,1,.83.83v10.392A.83.83,0,0,1,1524.136,1455.551Zm-5.3-1.66h4.473v-8.733h-4.473Z" transform="translate(-1475.269 -1429.415)" fill="#2aeaa5"/>
        <path id="Path_1423" data-name="Path 1423" d="M1221.214,1498.943h-6.132a.83.83,0,0,1-.83-.83v-8.838a.83.83,0,0,1,.83-.83h6.132a.83.83,0,0,1,.83.83v8.838A.83.83,0,0,1,1221.214,1498.943Zm-5.3-1.66h4.473V1490.1h-4.473Z" transform="translate(-1182.824 -1472.808)" fill="#2aeaa5"/>
        <path id="Path_1424" data-name="Path 1424" d="M918.3,1332.785H912.17a.83.83,0,0,1-.83-.83v-14.791a.83.83,0,0,1,.83-.83H918.3a.83.83,0,0,1,.83.83v14.791A.83.83,0,0,1,918.3,1332.785Zm-5.3-1.66h4.472v-13.131H913Z" transform="translate(-890.388 -1306.649)" fill="#2aeaa5"/>
        <path id="Path_1425" data-name="Path 1425" d="M312.469,1319.8h-6.132a.83.83,0,0,1-.83-.83v-15.255a.83.83,0,0,1,.83-.83h6.132a.83.83,0,0,1,.83.83v15.255A.83.83,0,0,1,312.469,1319.8Zm-5.3-1.66h4.472v-13.6h-4.472Z" transform="translate(-305.507 -1293.666)" fill="#2aeaa5"/>
        <path id="Path_1426" data-name="Path 1426" d="M1042.241,1178.247a.826.826,0,0,1-.406-.106l-8.177-4.59a.83.83,0,1,1,.813-1.448l8.177,4.589a.83.83,0,0,1-.407,1.554Z" transform="translate(-1008.067 -1167.304)" fill="#2aeaa5"/>
        <path id="Path_1427" data-name="Path 1427" d="M434.142,1121.357a.825.825,0,0,1-.448-.132l-8.345-5.369a.83.83,0,1,1,.9-1.4l8.345,5.37a.83.83,0,0,1-.45,1.528Z" transform="translate(-420.836 -1111.628)" fill="#2aeaa5"/>
        <path id="Path_1428" data-name="Path 1428" d="M732.965,1175.151a.83.83,0,0,1-.34-1.588l8.051-3.606a.83.83,0,0,1,.679,1.515l-8.051,3.606A.83.83,0,0,1,732.965,1175.151Z" transform="translate(-717.38 -1165.264)" fill="#2aeaa5"/>
        <path id="Path_1429" data-name="Path 1429" d="M1345.094,1226.309a.83.83,0,0,1-.332-1.591l7.616-3.315a.83.83,0,0,1,.662,1.522l-7.616,3.315A.829.829,0,0,1,1345.094,1226.309Z" transform="translate(-1308.338 -1214.934)" fill="#2aeaa5"/>
        <path id="Path_1430" data-name="Path 1430" d="M1563.12,1163.019a2.39,2.39,0,1,1,2.39-2.39A2.393,2.393,0,0,1,1563.12,1163.019Zm0-3.12a.73.73,0,1,0,.73.73A.731.731,0,0,0,1563.12,1159.9Z" transform="translate(-1517.319 -1154.022)" fill="#2aeaa5"/>
        <path id="Path_1431" data-name="Path 1431" d="M1260.21,1294.859a2.39,2.39,0,1,1,2.39-2.39A2.392,2.392,0,0,1,1260.21,1294.859Zm0-3.12a.73.73,0,1,0,.73.73A.731.731,0,0,0,1260.21,1291.739Z" transform="translate(-1224.885 -1281.302)" fill="#2aeaa5"/>
        <path id="Path_1432" data-name="Path 1432" d="M957.29,1101.209a2.39,2.39,0,1,1,2.39-2.39A2.392,2.392,0,0,1,957.29,1101.209Zm0-3.12a.73.73,0,1,0,.73.73A.73.73,0,0,0,957.29,1098.089Z" transform="translate(-932.441 -1094.349)" fill="#2aeaa5"/>
        <path id="Path_1433" data-name="Path 1433" d="M654.36,1262.209a2.39,2.39,0,1,1,2.39-2.39A2.393,2.393,0,0,1,654.36,1262.209Zm0-3.12a.73.73,0,1,0,.73.73A.731.731,0,0,0,654.36,1259.089Z" transform="translate(-639.988 -1249.781)" fill="#2aeaa5"/>
        <path id="Path_1434" data-name="Path 1434" d="M351.46,1041.069a2.39,2.39,0,1,1,2.39-2.39A2.392,2.392,0,0,1,351.46,1041.069Zm0-3.119a.73.73,0,1,0,.73.73A.731.731,0,0,0,351.46,1037.949Z" transform="translate(-347.563 -1036.289)" fill="#2aeaa5"/>
      </g>
      <g id="Group_1344" data-name="Group 1344" transform="translate(316.729 244)">
        <g id="Group_1343" data-name="Group 1343" transform="translate(11.043 9.51)">
          <g id="Group_1342" data-name="Group 1342" transform="translate(1.753)">
            <path id="Path_1435" data-name="Path 1435" d="M1000.83,701.5a.83.83,0,0,1-.83-.83v-.328a.83.83,0,1,1,1.66,0v.328A.83.83,0,0,1,1000.83,701.5Z" transform="translate(-1000 -693.267)" fill="#2aeaa5"/>
            <path id="Path_1436" data-name="Path 1436" d="M1000.83,520.977a.83.83,0,0,1-.83-.83v-.327a.83.83,0,0,1,1.66,0v.327A.83.83,0,0,1,1000.83,520.977Z" transform="translate(-1000 -518.99)" fill="#2aeaa5"/>
          </g>
          <path id="Path_1437" data-name="Path 1437" d="M954.176,547.027l0,0a2.09,2.09,0,0,0-.876-.7,7.687,7.687,0,0,0-1.306-.38,2.72,2.72,0,0,1-.937-.307.247.247,0,0,1-.086-.2.357.357,0,0,1,.159-.286,1.177,1.177,0,0,1,.729-.159,1.163,1.163,0,0,1,.722.181.649.649,0,0,1,.2.326.741.741,0,0,0,.714.537l.06,0h.006a.748.748,0,0,0,.665-.947,2.03,2.03,0,0,0-.257-.562,1.962,1.962,0,0,0-.9-.731,3.188,3.188,0,0,0-1.242-.23,3.046,3.046,0,0,0-1.169.219,1.867,1.867,0,0,0-.876.7,1.8,1.8,0,0,0-.3,1,1.659,1.659,0,0,0,.255.9,1.9,1.9,0,0,0,.742.655l.005,0a5.476,5.476,0,0,0,1.159.379c.484.116.81.205.944.257a.748.748,0,0,1,.331.2.341.341,0,0,1,.07.218.412.412,0,0,1-.084.248.657.657,0,0,1-.3.208,1.67,1.67,0,0,1-.6.1,1.741,1.741,0,0,1-.7-.133.879.879,0,0,1-.392-.293.939.939,0,0,1-.121-.275.754.754,0,0,0-.725-.555l-.065,0a.752.752,0,0,0-.666.922,2.221,2.221,0,0,0,.307.713,2.162,2.162,0,0,0,.972.806,3.6,3.6,0,0,0,1.42.252,2.94,2.94,0,0,0,1.234-.253,2.059,2.059,0,0,0,.9-.754,1.9,1.9,0,0,0,.317-1.049A1.773,1.773,0,0,0,954.176,547.027Z" transform="translate(-949.309 -542.71)" fill="#2aeaa5"/>
        </g>
        <path id="Path_1438" data-name="Path 1438" d="M645.208,271.252h-3.164a1.259,1.259,0,0,1-1.258-1.258v-2.142a10.5,10.5,0,0,1-2.381-.987l-1.515,1.515a1.258,1.258,0,0,1-1.779,0l-2.238-2.238a1.259,1.259,0,0,1,0-1.779l1.516-1.515a10.505,10.505,0,0,1-.987-2.381h-2.142A1.259,1.259,0,0,1,630,259.208v-3.164a1.259,1.259,0,0,1,1.258-1.258H633.4a10.5,10.5,0,0,1,.987-2.381l-1.515-1.515a1.258,1.258,0,0,1,0-1.779l2.238-2.238a1.258,1.258,0,0,1,1.779,0l1.515,1.516a10.5,10.5,0,0,1,2.381-.987v-2.142A1.259,1.259,0,0,1,642.044,244h3.164a1.259,1.259,0,0,1,1.258,1.258V247.4a10.5,10.5,0,0,1,2.381.987l1.515-1.515a1.259,1.259,0,0,1,1.779,0l2.238,2.238a1.258,1.258,0,0,1,0,1.779l-1.516,1.516a10.505,10.505,0,0,1,.988,2.381h2.142a1.259,1.259,0,0,1,1.258,1.258v3.164a1.259,1.259,0,0,1-1.258,1.258h-2.142a10.5,10.5,0,0,1-.987,2.381l1.515,1.515a1.259,1.259,0,0,1,0,1.779l-2.238,2.238a1.259,1.259,0,0,1-1.779,0l-1.516-1.515a10.5,10.5,0,0,1-2.381.987v2.142A1.259,1.259,0,0,1,645.208,271.252Zm-2.762-1.66h2.36V267.2a.83.83,0,0,1,.66-.812,8.872,8.872,0,0,0,3.053-1.266.83.83,0,0,1,1.041.108l1.693,1.693,1.669-1.669-1.693-1.693a.83.83,0,0,1-.108-1.041,8.863,8.863,0,0,0,1.266-3.052.83.83,0,0,1,.813-.66h2.393v-2.36H653.2a.83.83,0,0,1-.812-.66,8.87,8.87,0,0,0-1.266-3.053.83.83,0,0,1,.108-1.041L652.921,250l-1.669-1.669-1.693,1.693a.83.83,0,0,1-1.041.108,8.867,8.867,0,0,0-3.052-1.265.83.83,0,0,1-.66-.812V245.66h-2.36v2.393a.83.83,0,0,1-.66.812,8.873,8.873,0,0,0-3.053,1.266.83.83,0,0,1-1.041-.108L636,248.33,634.33,250l1.693,1.693a.83.83,0,0,1,.108,1.041,8.868,8.868,0,0,0-1.265,3.052.83.83,0,0,1-.812.66H631.66v2.36h2.392a.83.83,0,0,1,.813.66,8.873,8.873,0,0,0,1.266,3.053.83.83,0,0,1-.108,1.041l-1.693,1.693L636,266.921l1.693-1.693a.83.83,0,0,1,1.041-.108,8.866,8.866,0,0,0,3.052,1.265.83.83,0,0,1,.66.813Zm-.83-21.539h0Z" transform="translate(-630 -244)" fill="#2aeaa5"/>
        <path id="Path_1439" data-name="Path 1439" d="M834.991,455.752a6.771,6.771,0,1,1,6.771-6.771A6.779,6.779,0,0,1,834.991,455.752Zm0-11.882a5.111,5.111,0,1,0,5.111,5.111A5.117,5.117,0,0,0,834.991,443.87Z" transform="translate(-821.365 -435.355)" fill="#2aeaa5"/>
      </g>
    </g>
  </g>
</svg>
