<svg xmlns="http://www.w3.org/2000/svg" width="83" height="83" viewBox="0 0 83 83">
  <g id="Group_1471" data-name="Group 1471" transform="translate(-141 -1621.5)">
    <rect id="Rectangle_357" data-name="Rectangle 357" width="83" height="83" rx="20" transform="translate(141 1621.5)" fill="#bef9e4" opacity="0.2"/>
    <g id="_5" data-name="5" transform="translate(-834.963 1535.578)">
      <path id="Path_1359" data-name="Path 1359" d="M1045.166,146.562V111.65l-7.864-7.872h-26.732v47.182h34.6" transform="translate(-4 0)" fill="none" stroke="#2aeaa5" stroke-linecap="square" stroke-width="2"/>
      <path id="Path_1360" data-name="Path 1360" d="M1046.19,108.847v-5.065l7.862,7.868h-6.271" transform="translate(-12.889 -0.001)" fill="none" stroke="#2aeaa5" stroke-linecap="square" stroke-linejoin="round" stroke-width="2"/>
      <path id="Path_1361" data-name="Path 1361" d="M1046.19,109.024v3.934h1.59" transform="translate(-12.889 -1.309)" fill="none" stroke="#2aeaa5" stroke-linecap="square" stroke-width="2"/>
      <line id="Line_80" data-name="Line 80" x2="7.382" transform="translate(1011.627 110.365)" fill="none" stroke="#2aeaa5" stroke-width="2"/>
      <line id="Line_81" data-name="Line 81" x2="13.667" transform="translate(1011.627 114.544)" fill="none" stroke="#2aeaa5" stroke-width="2"/>
      <path id="Path_1362" data-name="Path 1362" d="M999.026,149.511l1.882,3.433h.594l1.882-3.433V120.257h-4.358Z" transform="translate(-1.12 -4.112)" fill="none" stroke="#2aeaa5" stroke-linecap="square" stroke-width="2"/>
      <line id="Line_82" data-name="Line 82" y2="2.069" transform="translate(1000.086 148.832)" fill="none" stroke="#2aeaa5" stroke-linecap="square" stroke-width="2"/>
      <path id="Path_1363" data-name="Path 1363" d="M994.54,130.113v-5.281h2.754" transform="translate(0 -5.254)" fill="none" stroke="#2aeaa5" stroke-linecap="square" stroke-width="2"/>
      <rect id="Rectangle_300" data-name="Rectangle 300" width="13.584" height="3.95" transform="translate(1017.075 122.422)" fill="none" stroke="#2aeaa5" stroke-width="2"/>
      <rect id="Rectangle_301" data-name="Rectangle 301" width="23.632" height="14.263" transform="translate(1012.051 130.726)" fill="none" stroke="#2aeaa5" stroke-width="2"/>
      <line id="Line_83" data-name="Line 83" x2="20.529" transform="translate(1012.051 134.76)" fill="none" stroke="#2aeaa5" stroke-width="2"/>
      <line id="Line_84" data-name="Line 84" y2="9.662" transform="translate(1019.29 134.76)" fill="none" stroke="#2aeaa5" stroke-width="2"/>
    </g>
  </g>
</svg>
