<svg xmlns="http://www.w3.org/2000/svg" width="83" height="83" viewBox="0 0 83 83">
  <g id="Group_1473" data-name="Group 1473" transform="translate(-141 -2116.5)">
    <rect id="Rectangle_359" data-name="Rectangle 359" width="83" height="83" rx="20" transform="translate(141 2116.5)" fill="#bef9e4" opacity="0.2"/>
    <g id="BILL" transform="translate(143.459 2126.441)">
      <path id="Path_1385" data-name="Path 1385" d="M59.334,4.557H26.792a.17.17,0,0,0-.039.009.791.791,0,0,0-.528.226l-8.5,8.5a.792.792,0,0,0-.225.525.162.162,0,0,0-.01.042v44.4a.8.8,0,0,0,.8.8H59.334a.8.8,0,0,0,.8-.8V5.359a.8.8,0,0,0-.8-.8ZM25.99,7.3v5.758H20.232ZM58.532,57.457H19.1v-42.8h7.694a.8.8,0,0,0,.8-.8V6.162H58.532Z" fill="#2aeaa5"/>
      <path id="Path_1386" data-name="Path 1386" d="M69.831,76.462h-19.4a.8.8,0,1,0,0,1.6h19.4a.8.8,0,1,0,0-1.6Z" transform="translate(-17.4 -38.939)" fill="#2aeaa5"/>
      <path id="Path_1387" data-name="Path 1387" d="M69.831,90.673h-19.4a.8.8,0,0,0,0,1.6h19.4a.8.8,0,1,0,0-1.6Z" transform="translate(-17.4 -46.635)" fill="#2aeaa5"/>
      <path id="Path_1388" data-name="Path 1388" d="M69.831,104.885h-19.4a.8.8,0,1,0,0,1.6h19.4a.8.8,0,1,0,0-1.6Z" transform="translate(-17.4 -54.331)" fill="#2aeaa5"/>
      <path id="Path_1389" data-name="Path 1389" d="M49.624,63.052a.8.8,0,0,0,.8.8h19.4a.8.8,0,1,0,0-1.6h-19.4A.8.8,0,0,0,49.624,63.052Z" transform="translate(-17.4 -31.243)" fill="#2aeaa5"/>
      <path id="Path_1390" data-name="Path 1390" d="M36.54,76.462H33.352a.8.8,0,1,0,0,1.6H36.54a.8.8,0,0,0,0-1.6Z" transform="translate(-8.154 -38.939)" fill="#2aeaa5"/>
      <path id="Path_1391" data-name="Path 1391" d="M36.54,90.673H33.352a.8.8,0,1,0,0,1.6H36.54a.8.8,0,1,0,0-1.6Z" transform="translate(-8.154 -46.635)" fill="#2aeaa5"/>
      <path id="Path_1392" data-name="Path 1392" d="M36.54,104.885H33.352a.8.8,0,1,0,0,1.6H36.54a.8.8,0,0,0,0-1.6Z" transform="translate(-8.154 -54.331)" fill="#2aeaa5"/>
      <path id="Path_1393" data-name="Path 1393" d="M33.352,62.25a.8.8,0,1,0,0,1.6H36.54a.8.8,0,0,0,0-1.6Z" transform="translate(-8.154 -31.243)" fill="#2aeaa5"/>
      <path id="Path_1394" data-name="Path 1394" d="M55.357,34.25a7.318,7.318,0,1,0-7.318-7.318,7.318,7.318,0,0,0,7.318,7.318Zm0-13.031a5.713,5.713,0,1,1-5.713,5.713,5.713,5.713,0,0,1,5.713-5.713Z" transform="translate(-16.542 -8.154)" fill="#2aeaa5"/>
      <path id="Path_1395" data-name="Path 1395" d="M58.219,31.885l-.785.971a4.472,4.472,0,0,0,2.541,1.167v.73h.993v-.7c1.581-.109,2.487-1.025,2.487-2.279,0-1.33-.993-1.843-2.487-2.181v-2.05a3.573,3.573,0,0,1,1.549.818l.741-1a4.053,4.053,0,0,0-2.292-1.014v-.677h-.99v.666a2.328,2.328,0,0,0-2.246,2.246c0,1.287.9,1.767,2.246,2.116v2.127A3.73,3.73,0,0,1,58.219,31.885Zm2.748-.938c.774.229,1.123.458,1.123.96,0,.48-.381.894-1.123.982ZM59.1,28.46a1.03,1.03,0,0,1,.871-.938v1.81C59.387,29.125,59.1,28.9,59.1,28.46Z" transform="translate(-21.63 -11.432)" fill="#2aeaa5"/>
    </g>
  </g>
</svg>
