<svg xmlns="http://www.w3.org/2000/svg" width="118.887" height="94.667" viewBox="0 0 118.887 94.667">
  <g id="PROFITS" transform="translate(-4.556 -16.677)">
    <path id="Path_1409" data-name="Path 1409" d="M24.492,91.181a1.75,1.75,0,0,1-1.75-1.75V76.789a1.749,1.749,0,0,1,1.75-1.75h4.231l-9.1-9.1-9.1,9.1H14.76a1.75,1.75,0,0,1,1.75,1.75V89.431a1.75,1.75,0,1,1-3.5,0V78.539h-6.7A1.749,1.749,0,0,1,5.07,75.552L18.391,62.231a1.75,1.75,0,0,1,2.474,0l13.32,13.321a1.749,1.749,0,0,1-1.237,2.987H26.242V89.431A1.751,1.751,0,0,1,24.492,91.181Z" fill="#2aeaa5"/>
    <path id="Path_1410" data-name="Path 1410" d="M14.764,100.543a1.749,1.749,0,0,1-1.75-1.75v-2.1a1.75,1.75,0,0,1,3.5,0v2.1a1.75,1.75,0,0,1-1.75,1.75Z" fill="#2aeaa5"/>
    <path id="Path_1411" data-name="Path 1411" d="M24.492,100.543a1.749,1.749,0,0,1-1.75-1.75v-2.1a1.75,1.75,0,0,1,3.5,0v2.1a1.75,1.75,0,0,1-1.75,1.75Z" fill="#2aeaa5"/>
    <path id="Path_1412" data-name="Path 1412" d="M113.236,91.181a1.75,1.75,0,0,1-1.75-1.75V76.789a1.749,1.749,0,0,1,1.75-1.75h4.232l-9.1-9.1-9.1,9.1H103.5a1.749,1.749,0,0,1,1.75,1.75V89.431a1.75,1.75,0,1,1-3.5,0V78.539h-6.7a1.75,1.75,0,0,1-1.238-2.987l13.321-13.321a1.75,1.75,0,0,1,2.474,0l13.322,13.321a1.75,1.75,0,0,1-1.238,2.987h-6.707V89.431a1.75,1.75,0,0,1-1.75,1.75Z" fill="#2aeaa5"/>
    <path id="Path_1413" data-name="Path 1413" d="M103.509,100.543a1.749,1.749,0,0,1-1.75-1.75v-2.1a1.75,1.75,0,0,1,3.5,0v2.1a1.749,1.749,0,0,1-1.75,1.75Z" fill="#2aeaa5"/>
    <path id="Path_1414" data-name="Path 1414" d="M113.236,100.543a1.749,1.749,0,0,1-1.75-1.75v-2.1a1.75,1.75,0,0,1,3.5,0v2.1a1.749,1.749,0,0,1-1.75,1.75Z" fill="#2aeaa5"/>
    <path id="Path_1415" data-name="Path 1415" d="M65.361,95.394v1.815H62.78v-1.9a11.63,11.63,0,0,1-6.609-3.036l2.043-2.525a9.7,9.7,0,0,0,4.566,2.44V86.657c-3.489-.908-5.843-2.156-5.843-5.5,0-3.064,2.354-5.418,5.843-5.844V73.58h2.581v1.759a10.548,10.548,0,0,1,5.957,2.638L69.39,80.586a9.269,9.269,0,0,0-4.029-2.127v5.333c3.887.879,6.468,2.212,6.468,5.673C71.829,92.727,69.475,95.11,65.361,95.394ZM62.78,83.111V78.4a2.679,2.679,0,0,0-2.269,2.44C60.511,81.977,61.249,82.572,62.78,83.111Zm5.5,6.694c0-1.3-.907-1.9-2.922-2.5v5.049c1.933-.223,2.925-1.3,2.925-2.549Z" fill="#2aeaa5"/>
    <path id="Path_1416" data-name="Path 1416" d="M64,111.344A25.95,25.95,0,1,1,89.949,85.4,25.95,25.95,0,0,1,64,111.344Zm0-48.4A22.45,22.45,0,1,0,86.449,85.4,22.45,22.45,0,0,0,64,62.944Z" fill="#2aeaa5"/>
    <path id="Path_1417" data-name="Path 1417" d="M64,103.745A18.351,18.351,0,1,1,82.351,85.4,18.351,18.351,0,0,1,64,103.745Zm0-33.2A14.851,14.851,0,1,0,78.851,85.4,14.851,14.851,0,0,0,64,70.545Z" fill="#2aeaa5"/>
    <path id="Path_1418" data-name="Path 1418" d="M68.864,46.118a1.749,1.749,0,0,1-1.75-1.75V31.728a1.749,1.749,0,0,1,1.75-1.75H73.1l-9.1-9.1-9.1,9.1h4.232a1.75,1.75,0,0,1,1.75,1.75v12.64a1.75,1.75,0,0,1-3.5,0V33.478h-6.7a1.75,1.75,0,0,1-1.237-2.988L62.763,17.169a1.8,1.8,0,0,1,2.474,0L78.558,30.49a1.751,1.751,0,0,1-1.238,2.988H70.614v10.89a1.749,1.749,0,0,1-1.75,1.75Z" fill="#2aeaa5"/>
    <path id="Path_1419" data-name="Path 1419" d="M59.136,55.48a1.75,1.75,0,0,1-1.75-1.75v-2.1a1.75,1.75,0,0,1,3.5,0v2.1a1.75,1.75,0,0,1-1.75,1.75Z" fill="#2aeaa5"/>
    <path id="Path_1420" data-name="Path 1420" d="M68.864,55.48a1.749,1.749,0,0,1-1.75-1.75v-2.1a1.75,1.75,0,0,1,3.5,0v2.1a1.749,1.749,0,0,1-1.75,1.75Z" fill="#2aeaa5"/>
  </g>
</svg>
