<svg xmlns="http://www.w3.org/2000/svg" width="138" height="138" viewBox="0 0 138 138">
  <g id="Group_1487" data-name="Group 1487" transform="translate(-140 -5782)">
    <rect id="Rectangle_509" data-name="Rectangle 509" width="138" height="138" rx="10" transform="translate(140 5782)" fill="#f0eefd"/>
    <g id="face_scan_authorization_biometric" data-name="face, scan, authorization, biometric" transform="translate(165 5804.777)">
      <path id="Path_1561" data-name="Path 1561" d="M8.111,16.667a2.111,2.111,0,0,0,2.111-2.111V8.222h6.333a2.111,2.111,0,0,0,0-4.222H8.111A2.111,2.111,0,0,0,6,6.111v8.444A2.111,2.111,0,0,0,8.111,16.667Z" transform="translate(0)" fill="#6c56eb"/>
      <path id="Path_1562" data-name="Path 1562" d="M46.556,4H38.111a2.111,2.111,0,1,0,0,4.222h6.333v6.333a2.111,2.111,0,0,0,4.222,0V6.111A2.111,2.111,0,0,0,46.556,4Z" transform="translate(33.333)" fill="#6c56eb"/>
      <path id="Path_1563" data-name="Path 1563" d="M8.111,34.667h8.444a2.111,2.111,0,0,0,0-4.222H10.222V24.111a2.111,2.111,0,0,0-4.222,0v8.444A2.111,2.111,0,0,0,8.111,34.667Z" transform="translate(0 20)" fill="#6c56eb"/>
      <path id="Path_1564" data-name="Path 1564" d="M46.556,22a2.111,2.111,0,0,0-2.111,2.111v6.333H38.111a2.111,2.111,0,1,0,0,4.222h8.444a2.111,2.111,0,0,0,2.111-2.111V24.111A2.111,2.111,0,0,0,46.556,22Z" transform="translate(33.333 20)" fill="#6c56eb"/>
      <path id="Path_1565" data-name="Path 1565" d="M64.051,61.124c-6.6-1.926-9.5-3.13-9.5-6.568V50.049a1.419,1.419,0,0,1,.647-1c6.2-4.507,9.908-14.691,9.908-21.936a21.111,21.111,0,1,0-42.222,0c0,7.244,3.707,17.429,9.906,21.936a1.414,1.414,0,0,1,.649,1v4.507c0,3.439-2.895,4.643-9.5,6.568C16.374,63.33,6,66.357,6,79.889v4.222a2.111,2.111,0,0,0,2.111,2.111H79.889A2.111,2.111,0,0,0,82,84.111V79.889C82,66.357,71.626,63.33,64.051,61.124ZM77.778,82H10.222V79.889c0-10.366,7.241-12.477,14.908-14.712,6.162-1.8,12.537-3.657,12.537-10.622V50.049a5.489,5.489,0,0,0-2.387-4.416c-4.886-3.55-8.168-12.444-8.168-18.522a16.889,16.889,0,1,1,33.778,0c0,6.078-3.282,14.972-8.17,18.522a5.491,5.491,0,0,0-2.386,4.416v4.507c0,6.964,6.376,8.824,12.537,10.622,7.667,2.235,14.908,4.346,14.908,14.712Z" transform="translate(0 2.222)" fill="#6c56eb"/>
    </g>
  </g>
</svg>
