<svg xmlns="http://www.w3.org/2000/svg" width="138" height="138" viewBox="0 0 138 138">
  <g id="Group_1488" data-name="Group 1488" transform="translate(-487 -5818)">
    <rect id="Rectangle_510" data-name="Rectangle 510" width="138" height="138" rx="10" transform="translate(487 5818)" fill="#f0eefd"/>
    <g id="password_lock_login_authentication" data-name="password, lock, login, authentication" transform="translate(512.2 5840.666)">
      <path id="Path_1587" data-name="Path 1587" d="M54.164,25.139H47.822V16.683a12.683,12.683,0,0,0-25.367,0v8.456H16.114A2.114,2.114,0,0,0,14,27.253V52.619a2.114,2.114,0,0,0,2.114,2.114h38.05a2.114,2.114,0,0,0,2.114-2.114V27.253A2.114,2.114,0,0,0,54.164,25.139ZM26.683,16.683a8.456,8.456,0,0,1,16.911,0v8.456H26.683ZM52.05,50.506H18.228V29.367H52.05Z" transform="translate(8.911)" fill="#6c56eb"/>
      <path id="Path_1588" data-name="Path 1588" d="M18.064,32.619a2.113,2.113,0,0,0-2.989,0l-2.733,2.733L9.608,32.619a2.114,2.114,0,1,0-2.989,2.989l2.733,2.733L6.619,41.075a2.114,2.114,0,1,0,2.989,2.989l2.733-2.733,2.733,2.733a2.114,2.114,0,1,0,2.989-2.989l-2.733-2.733,2.733-2.733A2.113,2.113,0,0,0,18.064,32.619Z" transform="translate(0 31.189)" fill="#6c56eb"/>
      <path id="Path_1589" data-name="Path 1589" d="M16.569,42H8.114a2.114,2.114,0,1,0,0,4.228h8.456a2.114,2.114,0,1,0,0-4.228Z" transform="translate(0 42.328)" fill="#6c56eb"/>
      <path id="Path_1590" data-name="Path 1590" d="M28.064,32.619a2.113,2.113,0,0,0-2.989,0l-2.733,2.733-2.733-2.733a2.114,2.114,0,1,0-2.989,2.989l2.733,2.733-2.733,2.733a2.114,2.114,0,1,0,2.989,2.989l2.733-2.733,2.733,2.733a2.114,2.114,0,1,0,2.989-2.989l-2.733-2.733,2.733-2.733a2.113,2.113,0,0,0,0-2.989Z" transform="translate(11.139 31.189)" fill="#6c56eb"/>
      <path id="Path_1591" data-name="Path 1591" d="M26.569,42H18.114a2.114,2.114,0,1,0,0,4.228h8.456a2.114,2.114,0,0,0,0-4.228Z" transform="translate(11.139 42.328)" fill="#6c56eb"/>
      <path id="Path_1592" data-name="Path 1592" d="M38.064,32.619a2.113,2.113,0,0,0-2.989,0l-2.733,2.733-2.733-2.733a2.114,2.114,0,1,0-2.989,2.989l2.733,2.733-2.733,2.733a2.114,2.114,0,1,0,2.989,2.989l2.733-2.733,2.733,2.733a2.114,2.114,0,1,0,2.989-2.989l-2.733-2.733,2.733-2.733A2.113,2.113,0,0,0,38.064,32.619Z" transform="translate(22.278 31.189)" fill="#6c56eb"/>
      <path id="Path_1593" data-name="Path 1593" d="M36.569,42H28.114a2.114,2.114,0,1,0,0,4.228h8.456a2.114,2.114,0,1,0,0-4.228Z" transform="translate(22.278 42.328)" fill="#6c56eb"/>
      <path id="Path_1594" data-name="Path 1594" d="M45.331,38.342l2.733-2.733a2.114,2.114,0,1,0-2.989-2.989l-2.733,2.733-2.733-2.733a2.114,2.114,0,1,0-2.989,2.989l2.733,2.733-2.733,2.733a2.114,2.114,0,1,0,2.989,2.989l2.733-2.733,2.733,2.733a2.114,2.114,0,1,0,2.989-2.989Z" transform="translate(33.417 31.189)" fill="#6c56eb"/>
      <path id="Path_1595" data-name="Path 1595" d="M46.569,42H38.114a2.114,2.114,0,0,0,0,4.228h8.456a2.114,2.114,0,1,0,0-4.228Z" transform="translate(33.417 42.328)" fill="#6c56eb"/>
    </g>
  </g>
</svg>
