<svg xmlns="http://www.w3.org/2000/svg" width="138" height="138" viewBox="0 0 138 138">
  <g id="Group_1489" data-name="Group 1489" transform="translate(-840 -5798)">
    <rect id="Rectangle_511" data-name="Rectangle 511" width="138" height="138" rx="10" transform="translate(840 5798)" fill="#f0eefd"/>
    <g id="FOLDER" transform="translate(857.443 5812.48)">
      <path id="Path_1583" data-name="Path 1583" d="M99.418,30.491,93.94,19.3a1.4,1.4,0,0,0-1.255-.783H64.291a1.4,1.4,0,0,0-1.256.783l-5.094,10.4H46.177L41.083,19.3a1.4,1.4,0,0,0-1.256-.783H11.433a1.4,1.4,0,0,0-1.255.783L4.7,30.491a1.393,1.393,0,0,0-.142.615V83.058a8.161,8.161,0,0,0,8.151,8.151h78.7a8.161,8.161,0,0,0,8.151-8.151V31.1a1.393,1.393,0,0,0-.139-.614ZM12.71,88.413a5.361,5.361,0,0,1-5.354-5.354V31.428L12.31,21.314H38.953l5.094,10.4A1.4,1.4,0,0,0,45.3,32.5H83.254V83.058a8.114,8.114,0,0,0,2.011,5.354Zm84.054-5.354a5.354,5.354,0,0,1-10.708,0V31.1a1.4,1.4,0,0,0-1.4-1.4h-23.6l4.107-8.391h26.65l4.954,10.114Z" fill="#6c56eb"/>
      <path id="Path_1584" data-name="Path 1584" d="M64.811,57.2H41.448a1.4,1.4,0,0,0,0,2.8H64.811a1.4,1.4,0,0,0,0-2.8Z" transform="translate(-7.13 -7.77)" fill="#6c56eb"/>
      <path id="Path_1585" data-name="Path 1585" d="M64.811,69.251H41.448a1.4,1.4,0,0,0,0,2.8H64.811a1.4,1.4,0,1,0,0-2.8Z" transform="translate(-7.13 -10.191)" fill="#6c56eb"/>
      <path id="Path_1586" data-name="Path 1586" d="M64.811,81.3H41.448a1.4,1.4,0,0,0,0,2.8H64.811a1.4,1.4,0,0,0,0-2.8Z" transform="translate(-7.13 -12.612)" fill="#6c56eb"/>
    </g>
  </g>
</svg>
