<svg xmlns="http://www.w3.org/2000/svg" width="138" height="138" viewBox="0 0 138 138">
  <g id="Group_1490" data-name="Group 1490" transform="translate(-1193 -5798)">
    <rect id="Rectangle_511" data-name="Rectangle 511" width="138" height="138" rx="10" transform="translate(1193 5798)" fill="#f0eefd"/>
    <g id="COMPUTER" transform="translate(1214.443 5818.275)">
      <path id="Path_1581" data-name="Path 1581" d="M86.678,7.724H9.114a4.562,4.562,0,0,0-4.557,4.557V68.915a4.561,4.561,0,0,0,4.557,4.557H36.867c-.417,7.545-2.485,12.206-3.3,13.761H30.162a1.276,1.276,0,1,0,0,2.552H65.629a1.276,1.276,0,1,0,0-2.552H62.222c-.812-1.555-2.881-6.216-3.3-13.761H86.678a4.561,4.561,0,0,0,4.557-4.557V12.281a4.562,4.562,0,0,0-4.557-4.557ZM9.114,10.276H86.678a2.007,2.007,0,0,1,2,2V56.729H85.058V15.177A1.277,1.277,0,0,0,83.782,13.9H12.01a1.276,1.276,0,0,0-1.276,1.276V56.729H7.109V12.281a2.007,2.007,0,0,1,2-2Zm4.172,46.454V16.456H82.506V56.729Zm46.1,30.5H36.406A38.708,38.708,0,0,0,39.421,73.47h16.95a38.708,38.708,0,0,0,3.015,13.762ZM86.678,70.918H9.114a2.007,2.007,0,0,1-2-2V59.281H88.683v9.633a2.007,2.007,0,0,1-2,2Z" fill="#6c56eb"/>
      <path id="Path_1582" data-name="Path 1582" d="M62.36,80.367a4.414,4.414,0,1,0,4.414,4.414A4.414,4.414,0,0,0,62.36,80.367Zm0,6.275a1.862,1.862,0,1,1,1.862-1.861A1.862,1.862,0,0,1,62.36,86.642Z" transform="translate(-14.464 -19.68)" fill="#6c56eb"/>
    </g>
  </g>
</svg>
