<svg xmlns="http://www.w3.org/2000/svg" width="138" height="138" viewBox="0 0 138 138">
  <g id="Group_1491" data-name="Group 1491" transform="translate(-1546 -5798)">
    <rect id="Rectangle_511" data-name="Rectangle 511" width="138" height="138" rx="10" transform="translate(1546 5798)" fill="#f0eefd"/>
    <g id="_8" data-name="8" transform="translate(1563.934 5833.765)">
      <line id="Line_45" data-name="Line 45" x1="9.136" y1="10.237" transform="translate(21.047 4.137)" fill="none" stroke="#6c56eb" stroke-linecap="square" stroke-width="2.632"/>
      <line id="Line_44" data-name="Line 44" x2="10.53" y2="11.265" transform="translate(0 19.203)" fill="none" stroke="#6c56eb" stroke-linecap="square" stroke-width="2.632"/>
      <path id="Path_1076" data-name="Path 1076" d="M790.542,268.464l-7.127,6.369-17.1-9.651a6.1,6.1,0,0,0-5.892-.057l-24.692,13.56a1.194,1.194,0,0,0-.434,1.683l1.928,3.054a2.735,2.735,0,0,0,2.821,1.228l18.725-4a6.182,6.182,0,0,1,6.085,2.15l16.081,19.525" transform="translate(-705.277 -264.394)" fill="none" stroke="#6c56eb" stroke-linecap="square" stroke-width="2.632"/>
      <path id="Path_1077" data-name="Path 1077" d="M797.479,283.344l-7.287,6.513s-1.111,8.895-7.877,11.961" transform="translate(-694.912 -260.233)" fill="none" stroke="#6c56eb" stroke-linecap="square" stroke-width="2.632"/>
      <path id="Path_1078" data-name="Path 1078" d="M751.184,298.5l11.38,13.943a3.728,3.728,0,0,0,5.259.52l2.593-2.138a3.727,3.727,0,0,0,.536-5.213l-7.352-9.145" transform="translate(-701.748 -257.351)" fill="none" stroke="#6c56eb" stroke-linecap="square" stroke-width="2.632"/>
      <path id="Path_1079" data-name="Path 1079" d="M746.033,306.72l8.309,10.125a3.729,3.729,0,0,0,5.266.5l2.279-1.9a3.728,3.728,0,0,0,.5-5.224l-8.94-10.953" transform="translate(-702.879 -256.734)" fill="none" stroke="#6c56eb" stroke-linecap="square" stroke-width="2.632"/>
      <path id="Path_1080" data-name="Path 1080" d="M744.446,319.231l.27.321a3.728,3.728,0,0,0,5.236.465l2.167-1.8a3.727,3.727,0,0,0,.5-5.229l-6.236-7.607" transform="translate(-703.228 -255.393)" fill="none" stroke="#6c56eb" stroke-linecap="square" stroke-width="2.632"/>
      <rect id="Rectangle_245" data-name="Rectangle 245" width="9.415" height="9.415" rx="2" transform="translate(14.731 29.317) rotate(49.183)" fill="none" stroke="#6c56eb" stroke-linecap="square" stroke-width="2.632"/>
      <rect id="Rectangle_246" data-name="Rectangle 246" width="9.376" height="9.376" rx="2" transform="translate(20.839 36.343) rotate(49.184)" fill="none" stroke="#6c56eb" stroke-linecap="square" stroke-width="2.632"/>
      <rect id="Rectangle_247" data-name="Rectangle 247" width="9.376" height="9.376" rx="2" transform="translate(26.967 43.439) rotate(49.184)" fill="none" stroke="#6c56eb" stroke-linecap="square" stroke-width="2.632"/>
      <path id="Rectangle_248" data-name="Rectangle 248" d="M2,0H6.018a2,2,0,0,1,2,2V6.018a2,2,0,0,1-2,2H0a0,0,0,0,1,0,0V2A2,2,0,0,1,2,0Z" transform="matrix(0.654, 0.757, -0.757, 0.654, 33.095, 50.534)" fill="none" stroke="#6c56eb" stroke-linecap="square" stroke-width="2.632"/>
      <g id="_8-2" data-name="8" transform="translate(0 19.203)">
        <line id="Line_44-2" data-name="Line 44" x2="10.53" y2="11.265" fill="none" stroke="#6c56eb" stroke-linecap="square" stroke-width="2.632"/>
        <path id="Path_1076-2" data-name="Path 1076" d="M785.178,307.813a3.72,3.72,0,0,1-.449,5.166l-2.889,2.512a3.718,3.718,0,0,1-5.337-.459l-13-16" transform="translate(-706.305 -284.851)" fill="none" stroke="#6c56eb" stroke-linecap="square" stroke-width="2.632"/>
        <path id="Path_1078-2" data-name="Path 1078" d="M751.184,298.5l11.38,13.943a3.728,3.728,0,0,0,5.259.52l2.593-2.138a3.727,3.727,0,0,0,.536-5.213l-7.352-9.145" transform="translate(-701.748 -276.554)" fill="none" stroke="#6c56eb" stroke-linecap="square" stroke-width="2.632"/>
        <path id="Path_1079-2" data-name="Path 1079" d="M746.033,306.72l8.309,10.125a3.729,3.729,0,0,0,5.266.5l2.279-1.9a3.728,3.728,0,0,0,.5-5.224l-8.94-10.953" transform="translate(-702.879 -275.937)" fill="none" stroke="#6c56eb" stroke-linecap="square" stroke-width="2.632"/>
        <path id="Path_1080-2" data-name="Path 1080" d="M744.446,319.231l.27.321a3.728,3.728,0,0,0,5.236.465l2.167-1.8a3.727,3.727,0,0,0,.5-5.229l-6.236-7.607" transform="translate(-703.228 -274.596)" fill="none" stroke="#6c56eb" stroke-linecap="square" stroke-width="2.632"/>
      </g>
    </g>
  </g>
</svg>
