<svg xmlns="http://www.w3.org/2000/svg" width="119.052" height="124.499" viewBox="0 0 119.052 124.499">
  <path id="Path_1376" data-name="Path 1376" d="M133.388,2231.769a3.365,3.365,0,1,0,3.388,3.365,3.376,3.376,0,0,0-3.388-3.365m22.262,0a3.365,3.365,0,1,0,3.388,3.365,3.376,3.376,0,0,0-3.388-3.365m22.262,0a3.365,3.365,0,1,0,3.388,3.365,3.376,3.376,0,0,0-3.388-3.365m23.23,0a3.365,3.365,0,1,0,3.387,3.365,3.376,3.376,0,0,0-3.387-3.365m22.262,0a3.365,3.365,0,1,0,3.388,3.365,3.376,3.376,0,0,0-3.388-3.365m22.262,0a3.365,3.365,0,1,0,3.388,3.365,3.376,3.376,0,0,0-3.388-3.365m-112.277-23.554a3.365,3.365,0,1,0,3.388,3.365,3.376,3.376,0,0,0-3.388-3.365m22.262,0a3.365,3.365,0,1,0,3.388,3.365,3.376,3.376,0,0,0-3.388-3.365m22.262,0a3.365,3.365,0,1,0,3.388,3.365,3.376,3.376,0,0,0-3.388-3.365m23.23,0a3.365,3.365,0,1,0,3.387,3.365,3.376,3.376,0,0,0-3.387-3.365m22.262,0a3.365,3.365,0,1,0,3.388,3.365,3.376,3.376,0,0,0-3.388-3.365m22.262,0a3.365,3.365,0,1,0,3.388,3.365,3.377,3.377,0,0,0-3.388-3.365m-112.277-23.554a3.365,3.365,0,1,0,3.388,3.365,3.376,3.376,0,0,0-3.388-3.365m22.262,0a3.365,3.365,0,1,0,3.388,3.365,3.376,3.376,0,0,0-3.388-3.365m22.262,0a3.365,3.365,0,1,0,3.388,3.365,3.376,3.376,0,0,0-3.388-3.365m23.23,0a3.365,3.365,0,1,0,3.387,3.365,3.376,3.376,0,0,0-3.387-3.365m22.262,0a3.365,3.365,0,1,0,3.388,3.365,3.376,3.376,0,0,0-3.388-3.365m22.262,0a3.365,3.365,0,1,0,3.388,3.365,3.376,3.376,0,0,0-3.388-3.365m-112.277-23.553a3.365,3.365,0,1,0,3.388,3.365,3.376,3.376,0,0,0-3.388-3.365m22.262,0a3.365,3.365,0,1,0,3.388,3.365,3.376,3.376,0,0,0-3.388-3.365m22.262,0a3.365,3.365,0,1,0,3.388,3.365,3.376,3.376,0,0,0-3.388-3.365m23.23,0a3.365,3.365,0,1,0,3.387,3.365,3.376,3.376,0,0,0-3.387-3.365m22.262,0a3.365,3.365,0,1,0,3.388,3.365,3.376,3.376,0,0,0-3.388-3.365m22.262,0a3.365,3.365,0,1,0,3.388,3.365,3.376,3.376,0,0,0-3.388-3.365m-112.277-23.554a3.365,3.365,0,1,0,3.388,3.365,3.376,3.376,0,0,0-3.388-3.365m22.262,0a3.365,3.365,0,1,0,3.388,3.365,3.376,3.376,0,0,0-3.388-3.365m22.262,0a3.365,3.365,0,1,0,3.388,3.365,3.376,3.376,0,0,0-3.388-3.365m23.23,0a3.365,3.365,0,1,0,3.387,3.365,3.376,3.376,0,0,0-3.387-3.365m22.262,0a3.365,3.365,0,1,0,3.388,3.365,3.376,3.376,0,0,0-3.388-3.365m22.262,0a3.365,3.365,0,1,0,3.388,3.365,3.376,3.376,0,0,0-3.388-3.365M133.388,2114a3.365,3.365,0,1,0,3.388,3.365,3.376,3.376,0,0,0-3.388-3.365m22.262,0a3.365,3.365,0,1,0,3.388,3.365A3.376,3.376,0,0,0,155.65,2114m22.262,0a3.365,3.365,0,1,0,3.388,3.365,3.376,3.376,0,0,0-3.388-3.365m23.23,0a3.365,3.365,0,1,0,3.387,3.365,3.376,3.376,0,0,0-3.387-3.365m22.262,0a3.365,3.365,0,1,0,3.388,3.365A3.376,3.376,0,0,0,223.4,2114m22.262,0a3.365,3.365,0,1,0,3.388,3.365,3.376,3.376,0,0,0-3.388-3.365" transform="translate(-130.001 -2114)" fill="#6c56eb"/>
</svg>
