<svg xmlns="http://www.w3.org/2000/svg" width="89.363" height="84.79" viewBox="0 0 89.363 84.79">
  <g id="_12" data-name="12" transform="translate(2.388 1.577)">
    <path id="Path_1081" data-name="Path 1081" d="M629.951,428.349a2.1,2.1,0,1,1-2.1-2.1A2.1,2.1,0,0,1,629.951,428.349Z" transform="translate(-571.756 -409.242)" fill="#0d66ce" stroke="#0d66ce" stroke-width="1"/>
    <path id="Path_1082" data-name="Path 1082" d="M605.729,444.426a2.1,2.1,0,1,1-2.1-2.1A2.1,2.1,0,0,1,605.729,444.426Z" transform="translate(-575.043 -407.06)" fill="#0d66ce" stroke="#0d66ce" stroke-width="1"/>
    <path id="Path_1083" data-name="Path 1083" d="M608.24,426.015l21.621-14.741,28.859,18.478L636.2,445.1" transform="translate(-574.132 -411.274)" fill="none" stroke="#0d66ce" stroke-linecap="square" stroke-miterlimit="10" stroke-width="2.632"/>
    <path id="Path_1084" data-name="Path 1084" d="M600.9,431.1l-22.692,15.457,28.859,18.478L627.221,451.3" transform="translate(-578.208 -408.583)" fill="none" stroke="#0d66ce" stroke-linecap="square" stroke-miterlimit="10" stroke-width="2.632"/>
    <path id="Path_1085" data-name="Path 1085" d="M614.743,429.461l14.372-9.8,14.3,9.154-9.934,6.772" transform="translate(-573.249 -410.135)" fill="none" stroke="#0d66ce" stroke-linecap="square" stroke-miterlimit="10" stroke-width="2.632"/>
    <path id="Path_1086" data-name="Path 1086" d="M600.773,438.61l-9.876,6.728,14.31,9.154,14.034-9.561" transform="translate(-576.485 -407.564)" fill="none" stroke="#0d66ce" stroke-linecap="square" stroke-miterlimit="10" stroke-width="2.632"/>
    <path id="Path_1087" data-name="Path 1087" d="M578.208,452.094l28.859,18.49L628.6,455.91" transform="translate(-578.208 -405.734)" fill="none" stroke="#0d66ce" stroke-linecap="square" stroke-miterlimit="10" stroke-width="2.632"/>
    <line id="Line_46" data-name="Line 46" x1="20.507" y2="13.973" transform="translate(64.081 26.871)" fill="none" stroke="#0d66ce" stroke-linecap="square" stroke-miterlimit="10" stroke-width="2.632"/>
    <path id="Path_1088" data-name="Path 1088" d="M578.208,459.484l28.859,18.49,20.864-14.219" transform="translate(-578.208 -404.731)" fill="none" stroke="#0d66ce" stroke-linecap="square" stroke-miterlimit="10" stroke-width="2.632"/>
    <line id="Line_47" data-name="Line 47" x1="20.507" y2="13.973" transform="translate(64.081 35.264)" fill="none" stroke="#0d66ce" stroke-linecap="square" stroke-miterlimit="10" stroke-width="2.632"/>
    <path id="Path_1089" data-name="Path 1089" d="M578.208,466.874l28.859,18.49,22.714-15.48" transform="translate(-578.208 -403.728)" fill="none" stroke="#0d66ce" stroke-linecap="square" stroke-miterlimit="10" stroke-width="2.632"/>
    <line id="Line_48" data-name="Line 48" x1="20.507" y2="13.973" transform="translate(64.081 43.657)" fill="none" stroke="#0d66ce" stroke-linecap="square" stroke-miterlimit="10" stroke-width="2.632"/>
    <path id="Path_1090" data-name="Path 1090" d="M598.615,432.374l28.514,18.25v25.413a1.4,1.4,0,0,0,2.2,1.141l8.342-5.889a1.4,1.4,0,0,0,.592-1.141V443.794l-30.58-19.573a1.985,1.985,0,0,0-2.2.041l-6.931,4.81A1.984,1.984,0,0,0,598.615,432.374Z" transform="translate(-575.562 -409.559)" fill="none" stroke="#13bfc9" stroke-linecap="square" stroke-miterlimit="10" stroke-width="2.632"/>
  </g>
</svg>
