<svg xmlns="http://www.w3.org/2000/svg" width="94.734" height="83.325" viewBox="0 0 94.734 83.325">
  <g id="business-21" transform="translate(-4.91 -8.12)">
    <line id="Line_37" data-name="Line 37" x1="60.372" transform="translate(38.273 79.906)" fill="none" stroke="#0d66ce" stroke-linecap="round" stroke-linejoin="round" stroke-width="2"/>
    <line id="Line_38" data-name="Line 38" y2="0.658" transform="translate(98.644 74.539)" fill="none" stroke="#0d66ce" stroke-linecap="round" stroke-linejoin="round" stroke-width="2"/>
    <path id="Path_1071" data-name="Path 1071" d="M14.707,79.906H5.91V9.12H82.97l15.675,12.3V69.829" fill="none" stroke="#0d66ce" stroke-linecap="round" stroke-linejoin="round" stroke-width="2"/>
    <path id="Path_1072" data-name="Path 1072" d="M49.27,9.12v12.3H64.945" transform="translate(33.7)" fill="none" stroke="#0d66ce" stroke-linecap="round" stroke-linejoin="round" stroke-width="2"/>
    <path id="Path_1073" data-name="Path 1073" d="M26.307,29.4h0a2.75,2.75,0,0,1,4.923,1.795h0a2.751,2.751,0,0,0,3.323,2.79h0a2.747,2.747,0,0,1,2.612,4.532h0a2.754,2.754,0,0,0,.746,4.283h0a2.76,2.76,0,0,1-.906,5.172h0a2.753,2.753,0,0,0-2.168,3.768h0a2.759,2.759,0,0,1-4.016,3.377h0a2.756,2.756,0,0,0-4.088,1.493h0a2.756,2.756,0,0,1-5.243,0h0A2.766,2.766,0,0,0,17.4,55.116h0a2.756,2.756,0,0,1-4.016-3.377h0a2.753,2.753,0,0,0-2.168-3.768h0a2.76,2.76,0,0,1-.906-5.172h0a2.754,2.754,0,0,0,.746-4.283h0a2.745,2.745,0,0,1,2.612-4.532h0a2.744,2.744,0,0,0,3.323-2.79h0A2.753,2.753,0,0,1,21.918,29.4h0A2.792,2.792,0,0,0,26.307,29.4Z" transform="translate(2.28 14.927)" fill="none" stroke="#ffcd5c" stroke-linecap="round" stroke-linejoin="round" stroke-width="2"/>
    <path id="Path_1074" data-name="Path 1074" d="M28.7,43.63V63.624l-7.82-6.1-7.837,6.1V43.63" transform="translate(5.541 26.821)" fill="none" stroke="#ffcd5c" stroke-linecap="round" stroke-linejoin="round" stroke-width="2"/>
    <path id="Path_1075" data-name="Path 1075" d="M24.858,39.014A5.154,5.154,0,1,1,19.7,33.86,5.158,5.158,0,0,1,24.858,39.014Z" transform="translate(6.715 19.228)" fill="none" stroke="#ffcd5c" stroke-linecap="round" stroke-linejoin="round" stroke-width="2"/>
    <line id="Line_39" data-name="Line 39" x2="46.705" transform="translate(25.832 27.319)" fill="none" stroke="#0d66ce" stroke-linecap="round" stroke-linejoin="round" stroke-width="2"/>
    <line id="Line_40" data-name="Line 40" x2="42.902" transform="translate(48.119 39.279)" fill="none" stroke="#0d66ce" stroke-linecap="round" stroke-linejoin="round" stroke-width="2"/>
    <line id="Line_41" data-name="Line 41" x2="42.902" transform="translate(48.119 49.711)" fill="none" stroke="#0d66ce" stroke-linecap="round" stroke-linejoin="round" stroke-width="2"/>
    <line id="Line_42" data-name="Line 42" x2="42.902" transform="translate(48.119 60.606)" fill="none" stroke="#0d66ce" stroke-linecap="round" stroke-linejoin="round" stroke-width="2"/>
    <line id="Line_43" data-name="Line 43" x2="42.902" transform="translate(48.119 71.038)" fill="none" stroke="#0d66ce" stroke-linecap="round" stroke-linejoin="round" stroke-width="2"/>
  </g>
</svg>
