<svg xmlns="http://www.w3.org/2000/svg" width="83.008" height="83.348" viewBox="0 0 83.008 83.348">
  <g id="business-03" transform="translate(1 1)">
    <rect id="Rectangle_241" data-name="Rectangle 241" width="39.576" height="25.477" transform="translate(41.431 0)" fill="none" stroke="#2aeaa5" stroke-linecap="round" stroke-linejoin="round" stroke-width="2"/>
    <path id="Path_1052" data-name="Path 1052" d="M81.783,37.28V75.527H5.8V10.69H47.231" transform="translate(-5.8 -2.96)" fill="none" stroke="#0d66ce" stroke-linecap="round" stroke-linejoin="round" stroke-width="2"/>
    <line id="Line_23" data-name="Line 23" y2="0.51" transform="translate(76.014 29.713)" fill="none" stroke="#0d66ce" stroke-linecap="round" stroke-linejoin="round" stroke-width="2"/>
    <rect id="Rectangle_242" data-name="Rectangle 242" width="4.823" height="14.145" transform="translate(48.079 5.287)" fill="none" stroke="#2aeaa5" stroke-linecap="round" stroke-linejoin="round" stroke-width="2"/>
    <rect id="Rectangle_243" data-name="Rectangle 243" width="4.823" height="10.853" transform="translate(58.916 8.565)" fill="none" stroke="#2aeaa5" stroke-linecap="round" stroke-linejoin="round" stroke-width="2"/>
    <rect id="Rectangle_244" data-name="Rectangle 244" width="4.823" height="7.065" transform="translate(69.738 12.368)" fill="none" stroke="#2aeaa5" stroke-linecap="round" stroke-linejoin="round" stroke-width="2"/>
    <path id="Path_1053" data-name="Path 1053" d="M32.962,24.816A10.466,10.466,0,1,1,22.5,14.35,10.464,10.464,0,0,1,32.962,24.816Z" transform="translate(-2.399 -0.962)" fill="none" stroke="#0d66ce" stroke-linecap="round" stroke-linejoin="round" stroke-width="2"/>
    <line id="Line_24" data-name="Line 24" x2="75.087" transform="translate(0.448 62.07)" fill="none" stroke="#0d66ce" stroke-linecap="round" stroke-linejoin="round" stroke-width="2"/>
    <path id="Path_1054" data-name="Path 1054" d="M32.911,49.951a1.871,1.871,0,1,1-1.871-1.871A1.867,1.867,0,0,1,32.911,49.951Z" transform="translate(6.959 17.453)" fill="none" stroke="#0d66ce" stroke-linecap="round" stroke-linejoin="round" stroke-width="2"/>
    <path id="Path_1055" data-name="Path 1055" d="M22.486,14.35V24.816H12.02" transform="translate(-2.404 -0.962)" fill="none" stroke="#0d66ce" stroke-linecap="round" stroke-linejoin="round" stroke-width="2"/>
    <line id="Line_25" data-name="Line 25" x2="38.231" transform="translate(10.744 39.468)" fill="none" stroke="#0d66ce" stroke-linecap="round" stroke-linejoin="round" stroke-width="2"/>
    <line id="Line_26" data-name="Line 26" x2="0.742" transform="translate(48.234 51.805)" fill="none" stroke="#0d66ce" stroke-linecap="round" stroke-linejoin="round" stroke-width="2"/>
    <line id="Line_27" data-name="Line 27" x2="32.604" transform="translate(10.744 51.805)" fill="none" stroke="#0d66ce" stroke-linecap="round" stroke-linejoin="round" stroke-width="2"/>
    <path id="Path_1056" data-name="Path 1056" d="M42.05,33.2l3.772,4.561L55.392,25.24" transform="translate(13.991 4.983)" fill="none" stroke="#0d66ce" stroke-linecap="round" stroke-linejoin="round" stroke-width="2"/>
    <path id="Path_1057" data-name="Path 1057" d="M42.05,40.757l3.772,4.561L55.392,32.78" transform="translate(13.991 9.1)" fill="none" stroke="#0d66ce" stroke-linecap="round" stroke-linejoin="round" stroke-width="2"/>
    <g id="Group_871" data-name="Group 871" transform="translate(34.614 73.742)">
      <line id="Line_28" data-name="Line 28" y2="6.478" transform="translate(6.756)" fill="none" stroke="#0d66ce" stroke-linecap="round" stroke-linejoin="round" stroke-width="2"/>
      <line id="Line_29" data-name="Line 29" y1="6.478" fill="none" stroke="#0d66ce" stroke-linecap="round" stroke-linejoin="round" stroke-width="2"/>
    </g>
    <line id="Line_30" data-name="Line 30" x2="19.525" transform="translate(28.229 81.348)" fill="none" stroke="#0d66ce" stroke-linecap="round" stroke-linejoin="round" stroke-width="2"/>
  </g>
</svg>
