<svg xmlns="http://www.w3.org/2000/svg" width="52.119" height="52" viewBox="0 0 52.119 52">
  <g id="business-23" transform="translate(-4.88 -4.94)">
    <path id="Path_1109" data-name="Path 1109" d="M35.492,38.207H8.687A2.842,2.842,0,0,1,5.88,35.335V8.8A2.833,2.833,0,0,1,8.687,5.94h41.1A2.84,2.84,0,0,1,52.594,8.8V35.345a2.842,2.842,0,0,1-2.807,2.872" fill="none" stroke="#4ff038" stroke-linecap="round" stroke-linejoin="round" stroke-width="2"/>
    <line id="Line_65" data-name="Line 65" x1="1.153" transform="translate(35.632 34.394)" fill="none" stroke="#4ff038" stroke-linecap="round" stroke-linejoin="round" stroke-width="2"/>
    <path id="Path_1110" data-name="Path 1110" d="M44.476,42.339l-21.7,7.9a2.807,2.807,0,0,1-3.6-1.675L14.44,35.54" transform="translate(-1.582 -2.557)" fill="none" stroke="#4ff038" stroke-linecap="round" stroke-linejoin="round" stroke-width="2"/>
    <path id="Path_1111" data-name="Path 1111" d="M47.388,51.294V48.314s-5.613-2.241-5.254-8.355l-.9-7.158a1.658,1.658,0,0,1,.968-1.719h0a1.666,1.666,0,0,1,2.241.968c.925,2.644,1.567,7.778,4.983,11.325" transform="translate(-2.204 -2.817)" fill="none" stroke="#4ff038" stroke-linecap="round" stroke-linejoin="round" stroke-width="2"/>
    <line id="Line_66" data-name="Line 66" x1="0.011" y2="1.295" transform="translate(54.94 45.496)" fill="none" stroke="#4ff038" stroke-linecap="round" stroke-linejoin="round" stroke-width="2"/>
    <path id="Path_1112" data-name="Path 1112" d="M48.82,17.75,53.683,22.2a16,16,0,0,1,5.244,12.4c0,.12-.011.25-.022.37l-.7,12.424" transform="translate(-2.942 -2.144)" fill="none" stroke="#4ff038" stroke-linecap="round" stroke-linejoin="round" stroke-width="2"/>
    <path id="Path_1113" data-name="Path 1113" d="M47.53,40.085l2.361-.718a2.367,2.367,0,0,0,1.534-3.177L49.14,29.38" transform="translate(-3.056 -1.655)" fill="none" stroke="#4ff038" stroke-linecap="round" stroke-linejoin="round" stroke-width="2"/>
    <line id="Line_67" data-name="Line 67" x2="46.714" transform="translate(5.88 13.24)" fill="none" stroke="#4ff038" stroke-linecap="round" stroke-linejoin="round" stroke-width="2"/>
    <rect id="Rectangle_249" data-name="Rectangle 249" width="16.068" height="4.362" transform="translate(11.689 25.519)" fill="none" stroke="#4ff038" stroke-linecap="round" stroke-linejoin="round" stroke-width="2"/>
    <line id="Line_68" data-name="Line 68" y2="4.003" transform="translate(31.993 15.692)" fill="none" stroke="#4ff038" stroke-linecap="round" stroke-linejoin="round" stroke-width="2"/>
    <line id="Line_69" data-name="Line 69" y2="4.003" transform="translate(35.197 15.692)" fill="none" stroke="#4ff038" stroke-linecap="round" stroke-linejoin="round" stroke-width="2"/>
    <line id="Line_70" data-name="Line 70" y2="4.003" transform="translate(38.401 15.692)" fill="none" stroke="#4ff038" stroke-linecap="round" stroke-linejoin="round" stroke-width="2"/>
    <line id="Line_71" data-name="Line 71" y1="8.812" x2="25.272" transform="translate(16.782 35.488)" fill="none" stroke="#4ff038" stroke-linecap="round" stroke-linejoin="round" stroke-width="2"/>
    <rect id="Rectangle_250" data-name="Rectangle 250" width="11.901" height="6.201" transform="translate(43.31 49.739)" fill="none" stroke="#4ff038" stroke-linecap="round" stroke-linejoin="round" stroke-width="2"/>
  </g>
</svg>
