<svg xmlns="http://www.w3.org/2000/svg" width="52.153" height="52" viewBox="0 0 52.153 52">
  <g id="business-28" transform="translate(-4.73 -4.81)">
    <line id="Line_72" data-name="Line 72" y1="0.841" transform="translate(5.73 39.372)" fill="none" stroke="#0d66ce" stroke-linecap="round" stroke-linejoin="round" stroke-width="2"/>
    <path id="Path_1114" data-name="Path 1114" d="M5.73,35.165V8.646A2.913,2.913,0,0,1,8.718,5.81H52.895a2.913,2.913,0,0,1,2.988,2.836V41.661A2.913,2.913,0,0,1,52.895,44.5H8.718A2.913,2.913,0,0,1,5.73,41.661" transform="translate(0)" fill="none" stroke="#0d66ce" stroke-linecap="round" stroke-linejoin="round" stroke-width="2"/>
    <path id="Path_1115" data-name="Path 1115" d="M42.435,48.63l3.822,6.147H21.34l3.822-6.147" transform="translate(-2.992 -3.993)" fill="none" stroke="#0d66ce" stroke-linecap="round" stroke-linejoin="round" stroke-width="2"/>
    <path id="Path_1116" data-name="Path 1116" d="M35.142,58.917H18.292c-.445,0-.812-.538-.812-1.215V55.1c0-.666.359-1.215.812-1.215H39.344c.445,0,.812.538.812,1.215V57.7c0,.666-.359,1.215-.812,1.215" transform="translate(1.982 -3.107)" fill="none" stroke="#0d66ce" stroke-linecap="round" stroke-linejoin="round" stroke-width="2"/>
    <line id="Line_73" data-name="Line 73" x1="0.701" transform="translate(40.634 55.81)" fill="none" stroke="#0d66ce" stroke-linecap="round" stroke-linejoin="round" stroke-width="2"/>
    <line id="Line_74" data-name="Line 74" x2="0.467" transform="translate(50.565 32.509)" fill="none" stroke="#0d66ce" stroke-linecap="round" stroke-linejoin="round" stroke-width="2"/>
    <path id="Path_1117" data-name="Path 1117" d="M10.64,35.33h4.232l2.342-6.147L21.463,44.7l3.6-20.113,1.251,10.74H46.091" transform="translate(0.828 -2.821)" fill="none" stroke="#0d66ce" stroke-linecap="round" stroke-linejoin="round" stroke-width="2"/>
    <rect id="Rectangle_251" data-name="Rectangle 251" width="5.902" height="23.876" transform="translate(29.966 10.999)" fill="none" stroke="#0d66ce" stroke-linecap="round" stroke-linejoin="round" stroke-width="2"/>
    <rect id="Rectangle_252" data-name="Rectangle 252" width="5.902" height="18.477" transform="translate(38.091 13.628)" fill="none" stroke="#0d66ce" stroke-linecap="round" stroke-linejoin="round" stroke-width="2"/>
    <rect id="Rectangle_253" data-name="Rectangle 253" width="5.902" height="11.535" transform="translate(45.259 19.392)" fill="none" stroke="#0d66ce" stroke-linecap="round" stroke-linejoin="round" stroke-width="2"/>
    <line id="Line_75" data-name="Line 75" x2="9.233" transform="translate(14.741 13.126)" fill="none" stroke="#0d66ce" stroke-linecap="round" stroke-linejoin="round" stroke-width="2"/>
    <line id="Line_76" data-name="Line 76" x2="9.233" transform="translate(14.741 15.957)" fill="none" stroke="#0d66ce" stroke-linecap="round" stroke-linejoin="round" stroke-width="2"/>
    <line id="Line_77" data-name="Line 77" x2="9.233" transform="translate(14.741 20.119)" fill="none" stroke="#0d66ce" stroke-linecap="round" stroke-linejoin="round" stroke-width="2"/>
    <line id="Line_78" data-name="Line 78" x2="49.65" transform="translate(6.233 43.592)" fill="none" stroke="#0d66ce" stroke-linecap="round" stroke-linejoin="round" stroke-width="2"/>
  </g>
</svg>
