<svg xmlns="http://www.w3.org/2000/svg" width="260.5" height="51.162" viewBox="0 0 260.5 51.162">
  <g id="Group_19" data-name="Group 19" transform="translate(-308.642 270.285)">
    <path id="Path_185" data-name="Path 185" d="M328.078-255.446v-14.339h1.5v37.472h-.649l-.7-1.949c-2.2,1.449-5.9,2.2-8.743,2.2-8.294,0-10.342-5.546-10.342-12.74s2.048-12.74,10.342-12.74A17.648,17.648,0,0,1,328.078-255.446Zm0,19.935V-254.1a15.985,15.985,0,0,0-8.594-2.1c-7.445,0-8.793,5.746-8.793,11.392s1.349,11.391,8.793,11.391A15.985,15.985,0,0,0,328.078-235.511Z" stroke="#000" stroke-width="1"/>
    <path id="Path_186" data-name="Path 186" d="M413.776-226.09c8.743,0,10.292,5.4,10.292,12.74s-1.549,12.74-10.292,12.74-10.293-5.4-10.293-12.74S405.032-226.09,413.776-226.09Zm0,24.132c7.844,0,8.743-5.1,8.743-11.391s-.9-11.392-8.743-11.392-8.744,5.1-8.744,11.392S405.931-201.958,413.776-201.958Z" transform="translate(-67.912 -31.454)" stroke="#000" stroke-width="1"/>
    <path id="Path_187" data-name="Path 187" d="M506.921-226.09a24.56,24.56,0,0,1,6.945,1v1.349a23.59,23.59,0,0,0-6.945-1c-7.444,0-8.793,5.5-8.793,11.392s1.349,11.391,8.793,11.391a23.59,23.59,0,0,0,6.945-1v1.349a24.56,24.56,0,0,1-6.945,1c-8.294,0-10.342-5.3-10.342-12.74S498.627-226.09,506.921-226.09Z" transform="translate(-134.927 -31.454)" stroke="#000" stroke-width="1"/>
    <path id="Path_188" data-name="Path 188" d="M573.622-232.313v-37.472h12.141c12.691,0,15.988,8.094,15.988,18.736s-3.3,18.736-15.988,18.736Zm7.994-7.294h4.3c5.846,0,7.544-4.2,7.544-11.442,0-7.194-1.7-11.441-7.544-11.441h-4.3Z" transform="translate(-190.387)" fill="#0063ce"/>
    <path id="Path_189" data-name="Path 189" d="M689.654-268a4.713,4.713,0,0,1,4.746,4.746,4.682,4.682,0,0,1-4.746,4.747,4.652,4.652,0,0,1-4.747-4.747A4.682,4.682,0,0,1,689.654-268Zm6,37.172a13.744,13.744,0,0,1-2.3.2c-4.3,0-7.694-2.2-7.694-7.045V-256.01H693.6v17.237c0,.949.45,1.5,2.048,1.5Z" transform="translate(-270.496 -1.284)" fill="#0063ce"/>
    <path id="Path_190" data-name="Path 190" d="M737.774-227.7a17.72,17.72,0,0,1,5.845.7h8.144v5.346l-3,.8a16.049,16.049,0,0,1,.25,2.748c0,6.3-3.5,9.593-11.242,9.593a20.877,20.877,0,0,1-2.548-.1,1.522,1.522,0,0,0-.35.949c0,.5.3.8,1,.9l9.643,1.249c5.246.7,6.745,3.3,6.745,7.345,0,6.745-7.744,9.343-15.388,9.343-6.3,0-11.841-1.949-11.841-6.795a6.292,6.292,0,0,1,5.2-6.046,4.367,4.367,0,0,1-2.3-4.047,5.925,5.925,0,0,1,2.648-4.3c-2.748-1.6-4.047-4.247-4.047-8.094C726.532-224.4,730.029-227.7,737.774-227.7Zm-3.448,27.379a2.909,2.909,0,0,0-1.9,2.548c0,1.8,1.349,2.948,5.3,2.948,3.8,0,6.645-1.3,6.645-2.948,0-.8-.4-1.3-1.4-1.449Zm3.448-14.089c2.448,0,3.647-1.249,3.647-3.7s-1.2-3.7-3.647-3.7-3.647,1.249-3.647,3.7S735.325-214.405,737.774-214.405Z" transform="translate(-299.381 -30.299)" fill="#0063ce"/>
    <path id="Path_191" data-name="Path 191" d="M831.435-268a4.713,4.713,0,0,1,4.746,4.746,4.682,4.682,0,0,1-4.746,4.747,4.652,4.652,0,0,1-4.747-4.747A4.682,4.682,0,0,1,831.435-268Zm6,37.172a13.744,13.744,0,0,1-2.3.2c-4.3,0-7.694-2.2-7.694-7.045V-256.01h7.944v17.237c0,.949.449,1.5,2.048,1.5Z" transform="translate(-372.557 -1.284)" fill="#0063ce"/>
    <path id="Path_192" data-name="Path 192" d="M886.385-218.119a19.142,19.142,0,0,1-4.1.5c-6.995,0-9.643-2.948-9.643-8.844v-10.192H868.6v-5.3l4.047-1.1V-248.2l7.994-2.148v7.045h6.2v6.645h-6.2v9.543c0,1.949.749,3.048,3.3,3.048a10.994,10.994,0,0,0,2.448-.3Z" transform="translate(-402.727 -13.994)" fill="#0063ce"/>
    <path id="Path_193" data-name="Path 193" d="M953.568-219.5c0-1.149-.8-1.749-2.948-1.749a25.153,25.153,0,0,0-8.993,1.9v-6.695a25.742,25.742,0,0,1,8.993-1.649c8.994,0,10.692,3.847,10.692,9.443v16.238h-4.8l-1.1-1.9a10.932,10.932,0,0,1-7.344,2.6c-6.345,0-8.494-4.2-8.494-7.944,0-6.745,4.946-7.744,9.443-8.194l4.547-.45Zm-3.347,6.4c-2.249.3-3.148,1.4-3.148,3.347a2.741,2.741,0,0,0,2.9,2.948,5.13,5.13,0,0,0,3.6-1.2v-5.546Z" transform="translate(-453.822 -30.299)" fill="#0063ce"/>
    <path id="Path_194" data-name="Path 194" d="M1041.417-232.113a13.746,13.746,0,0,1-2.3.2c-4.3,0-7.694-2.2-7.694-7.045v-30.827h7.944v29.728c0,.949.45,1.5,2.048,1.5Z" transform="translate(-519.937)" fill="#0063ce"/>
    <path id="Path_195" data-name="Path 195" d="M1082.12-211.857c-.2,3.247,1.5,4.2,5.4,4.2a18.934,18.934,0,0,0,8.344-1.649v6.245a25.64,25.64,0,0,1-9.393,1.749c-8.244,0-12.241-4.2-12.241-13.19s3.947-13.19,11.691-13.19c10.692,0,11.441,7.994,10.792,15.838Zm0-4.9h7.095c.45-2.748-.15-4.946-3.2-4.946C1083.319-221.7,1082.12-219.9,1082.12-216.753Z" transform="translate(-550.749 -30.299)" fill="#0063ce"/>
    <path id="Path_196" data-name="Path 196" d="M1183.8-219.7a21.558,21.558,0,0,0-8.044-1.6c-2.249,0-3.5.5-3.5,1.749,0,1.3.849,1.6,2.5,1.749,7.894.7,10.092,2.8,10.092,7.994,0,4.8-2.848,8.494-11.291,8.494a22.631,22.631,0,0,1-9.093-1.6v-6.7a24.255,24.255,0,0,0,8.893,1.9c2.548,0,3.7-.5,3.7-1.749,0-1.3-.849-1.6-2.5-1.749-7.894-.7-10.092-2.8-10.092-7.994,0-5.1,3.3-8.493,10.992-8.493,4.546,0,6.695.6,8.344,1.3Z" transform="translate(-615.707 -30.299)" fill="#0063ce"/>
  </g>
</svg>
