<svg xmlns="http://www.w3.org/2000/svg" width="110.136" height="70.646" viewBox="0 0 110.136 70.646">
  <g id="_8" data-name="8" transform="translate(1.86 1.383)">
    <line id="Line_45" data-name="Line 45" x1="9.479" y1="10.621" transform="translate(21.837 4.292)" fill="none" stroke="#0d66ce" stroke-linecap="square" stroke-miterlimit="10" stroke-width="2.632"/>
    <line id="Line_44" data-name="Line 44" x2="10.925" y2="11.688" transform="translate(0 19.924)" fill="none" stroke="#0d66ce" stroke-linecap="square" stroke-miterlimit="10" stroke-width="2.632"/>
    <path id="Path_1076" data-name="Path 1076" d="M792.623,268.617l-7.395,6.608-17.741-10.013a6.328,6.328,0,0,0-6.113-.06l-25.619,14.069a1.239,1.239,0,0,0-.451,1.746l2,3.169a2.838,2.838,0,0,0,2.927,1.274l19.428-4.147a6.414,6.414,0,0,1,6.313,2.231l16.685,20.258" transform="translate(-704.157 -264.394)" fill="none" stroke="#0d66ce" stroke-linecap="square" stroke-miterlimit="10" stroke-width="2.632"/>
    <path id="Path_1077" data-name="Path 1077" d="M798.048,283.344l-7.561,6.757s-1.153,9.229-8.173,12.41" transform="translate(-691.63 -259.365)" fill="none" stroke="#4ff038" stroke-linecap="square" stroke-miterlimit="10" stroke-width="2.632"/>
    <path id="Path_1078" data-name="Path 1078" d="M751.184,298.573l11.807,14.466a3.868,3.868,0,0,0,5.456.539l2.69-2.218a3.867,3.867,0,0,0,.556-5.408l-7.628-9.488" transform="translate(-699.892 -255.883)" fill="none" stroke="#0d66ce" stroke-linecap="square" stroke-miterlimit="10" stroke-width="2.632"/>
    <path id="Path_1079" data-name="Path 1079" d="M746.033,307l8.621,10.505a3.869,3.869,0,0,0,5.464.52l2.365-1.968a3.868,3.868,0,0,0,.523-5.42l-9.275-11.365" transform="translate(-701.259 -255.137)" fill="none" stroke="#0d66ce" stroke-linecap="square" stroke-miterlimit="10" stroke-width="2.632"/>
    <path id="Path_1080" data-name="Path 1080" d="M744.446,319.751l.28.333a3.868,3.868,0,0,0,5.432.482l2.249-1.87a3.867,3.867,0,0,0,.518-5.425l-6.47-7.892" transform="translate(-701.68 -253.517)" fill="none" stroke="#0d66ce" stroke-linecap="square" stroke-miterlimit="10" stroke-width="2.632"/>
    <rect id="Rectangle_245" data-name="Rectangle 245" width="9.768" height="9.768" rx="2" transform="translate(15.284 30.418) rotate(49.183)" fill="none" stroke="#0d66ce" stroke-linecap="square" stroke-miterlimit="10" stroke-width="2.632"/>
    <rect id="Rectangle_246" data-name="Rectangle 246" width="9.728" height="9.728" rx="2" transform="translate(21.621 37.707) rotate(49.184)" fill="none" stroke="#0d66ce" stroke-linecap="square" stroke-miterlimit="10" stroke-width="2.632"/>
    <rect id="Rectangle_247" data-name="Rectangle 247" width="9.728" height="9.728" rx="2" transform="translate(27.98 45.069) rotate(49.184)" fill="none" stroke="#0d66ce" stroke-linecap="square" stroke-miterlimit="10" stroke-width="2.632"/>
    <path id="Rectangle_248" data-name="Rectangle 248" d="M2,0H6.319a2,2,0,0,1,2,2V6.319a2,2,0,0,1-2,2H0a0,0,0,0,1,0,0V2A2,2,0,0,1,2,0Z" transform="matrix(0.654, 0.757, -0.757, 0.654, 34.338, 52.432)" fill="none" stroke="#0d66ce" stroke-linecap="square" stroke-miterlimit="10" stroke-width="2.632"/>
    <g id="_8-2" data-name="8">
      <line id="Line_44-2" data-name="Line 44" x2="10.925" y2="11.688" transform="translate(0 19.924)" fill="none" stroke="#0d66ce" stroke-linecap="square" stroke-miterlimit="10" stroke-width="2.632"/>
      <path id="Path_1076-2" data-name="Path 1076" d="M785.992,308.143a3.859,3.859,0,0,1-.466,5.36l-3,2.607a3.858,3.858,0,0,1-5.537-.476l-13.49-16.6" transform="translate(-704.157 -264.394)" fill="none" stroke="#0d66ce" stroke-linecap="square" stroke-miterlimit="10" stroke-width="2.632"/>
      <path id="Path_1078-2" data-name="Path 1078" d="M751.184,298.573l11.807,14.466a3.868,3.868,0,0,0,5.456.539l2.69-2.218a3.867,3.867,0,0,0,.556-5.408l-7.628-9.488" transform="translate(-699.892 -255.883)" fill="none" stroke="#0d66ce" stroke-linecap="square" stroke-miterlimit="10" stroke-width="2.632"/>
      <path id="Path_1079-2" data-name="Path 1079" d="M746.033,307l8.621,10.505a3.869,3.869,0,0,0,5.464.52l2.365-1.968a3.868,3.868,0,0,0,.523-5.42l-9.275-11.365" transform="translate(-701.259 -255.137)" fill="none" stroke="#0d66ce" stroke-linecap="square" stroke-miterlimit="10" stroke-width="2.632"/>
      <path id="Path_1080-2" data-name="Path 1080" d="M744.446,319.751l.28.333a3.868,3.868,0,0,0,5.432.482l2.249-1.87a3.867,3.867,0,0,0,.518-5.425l-6.47-7.892" transform="translate(-701.68 -253.517)" fill="none" stroke="#0d66ce" stroke-linecap="square" stroke-miterlimit="10" stroke-width="2.632"/>
    </g>
  </g>
</svg>
