<svg id="Page-1" xmlns="http://www.w3.org/2000/svg" width="142.161" height="24.976" viewBox="0 0 142.161 24.976">
  <g id="v" transform="translate(0 0)">
    <g id="Group" transform="translate(0 0)">
      <g id="Path" transform="translate(0 2.131)">
        <path id="Path_968" data-name="Path 968" d="M11.279,12.878a26.443,26.443,0,0,0,.546,5.307,11.169,11.169,0,0,1-5.877,2.888,2.341,2.341,0,0,1-2.06-.71,11.512,11.512,0,0,1,0-15.571,2.341,2.341,0,0,1,2.068-.71,11.106,11.106,0,0,1,5.986,2.989,25.865,25.865,0,0,0-.663,5.807Z" transform="translate(-0.856 -1.163)" fill="#00abc9"/>
        <path id="Path_969" data-name="Path 969" d="M24.373,19.733a18.115,18.115,0,0,1-.531,4.347,3.426,3.426,0,0,1-2.888,2.568,34.544,34.544,0,0,1-4.246.265,33.733,33.733,0,0,1-6.119-.562,23.493,23.493,0,0,0,11.34-8.507,1.327,1.327,0,0,1,2.4.7C24.358,18.913,24.373,19.327,24.373,19.733Z" transform="translate(-2.992 -4.068)" fill="#0a1837"/>
        <path id="Path_970" data-name="Path 970" d="M24.373,7.562c0,.414,0,.82-.039,1.225a1.327,1.327,0,0,1-2.4.71A23.454,23.454,0,0,0,10.59.912,33.733,33.733,0,0,1,16.709.35a34.544,34.544,0,0,1,4.246.265,3.426,3.426,0,0,1,2.888,2.568A18.116,18.116,0,0,1,24.373,7.562Z" transform="translate(-2.992 -0.35)" fill="#cd007b"/>
      </g>
      <g id="Group_729" data-name="Group 729" transform="translate(29.935 0)">
        <path id="Shape" d="M68.44,15.122a3.45,3.45,0,0,1,3.52-2.841,3.356,3.356,0,0,1,3.45,2.841Zm11.356,1.8c0-4.683-3.013-8.258-7.8-8.258a7.961,7.961,0,0,0-8.023,8.281,7.9,7.9,0,0,0,8.14,8.258c3.036,0,6.08-1.319,7.212-4.847l-3.9-.913a3.528,3.528,0,0,1-3.4,1.881A3.314,3.314,0,0,1,68.417,18H79.8Z" transform="translate(-14.204 -2.385)" fill="#0a1837"/>
        <path id="Path-2" data-name="Path" d="M90.275.62V12.577h1.311l3.4-5.292h7.984V2.9h4.051V7.285H111.2v3.856h-4.144v7.024c0,.687.273.983.983.983h3.013v4.308h-3.426c-3.169,0-4.925-1.826-4.925-5.26V11.172H97.541l-2.17,3.122v.336l5.05,8.8h-5.19l-3.52-6.845H90.275v6.845H85.92V.62Z" transform="translate(-19.024 -0.62)" fill="#0a1837"/>
        <path id="Shape-2" data-name="Shape" d="M127.5,21.005a3.8,3.8,0,0,1-3.785-4.074,3.772,3.772,0,0,1,3.754-4.066,3.73,3.73,0,0,1,3.785,4.066A3.824,3.824,0,0,1,127.5,21.005Zm8.757.14a.609.609,0,0,1-.484-.172.64.64,0,0,1-.2-.484V9.22h-4.355v1.257h-.32a5.541,5.541,0,0,0-4.355-1.858c-4.027,0-7.22,3.5-7.22,8.258s3.2,8.281,7.227,8.281a4.8,4.8,0,0,0,4.347-2.068h.328c0,.913.718,2.068,1.733,2.068h5.627V21.114Z" transform="translate(-26.356 -2.375)" fill="#0a1837"/>
        <path id="Path-3" data-name="Path" d="M8.491,12.83a3.864,3.864,0,0,0-3.9,4.105,3.84,3.84,0,0,0,3.9,4.105,3.645,3.645,0,0,0,3.723-2.74l4.059.976a7.66,7.66,0,0,1-7.9,5.932A7.953,7.953,0,0,1,.21,16.951,7.972,7.972,0,0,1,8.374,8.67a7.672,7.672,0,0,1,7.9,5.986l-4.027,1.015A3.684,3.684,0,0,0,8.491,12.83Z" transform="translate(-0.21 -2.387)" fill="#0a1837"/>
        <path id="Shape-3" data-name="Shape" d="M29.973,21.037a4.113,4.113,0,1,1,3.9-4.105,3.9,3.9,0,0,1-3.9,4.105Zm0-12.379a8.273,8.273,0,1,0,8.343,8.281,8.094,8.094,0,0,0-8.343-8.281Z" transform="translate(-4.943 -2.384)" fill="#0a1837"/>
        <path id="Path-4" data-name="Path" d="M53.118,8.659a5.37,5.37,0,0,1,5.51,5.588V25.174H54.281V15.613a2.576,2.576,0,0,0-2.591-2.74,2.669,2.669,0,0,0-1.951.78,2.638,2.638,0,0,0-.734,1.975v9.538H44.65V8.768h4.355v1.717h.3a4.5,4.5,0,0,1,3.817-1.826Z" transform="translate(-9.965 -2.384)" fill="#0a1837"/>
      </g>
    </g>
  </g>
</svg>
