<svg xmlns="http://www.w3.org/2000/svg" width="130.934" height="83.937" viewBox="0 0 130.934 83.937">
  <g id="_8" data-name="8" transform="translate(1.86 1.395)">
    <line id="Line_45" data-name="Line 45" x1="11.331" y1="12.697" transform="translate(26.105 5.131)" fill="none" stroke="#0d66ce" stroke-linecap="square" stroke-miterlimit="10" stroke-width="2.632"/>
    <line id="Line_44" data-name="Line 44" x2="13.061" y2="13.972" transform="translate(0 23.818)" fill="none" stroke="#0d66ce" stroke-linecap="square" stroke-miterlimit="10" stroke-width="2.632"/>
    <path id="Path_1076" data-name="Path 1076" d="M803.862,269.442l-8.84,7.9-21.208-11.97a7.564,7.564,0,0,0-7.308-.071L735.88,282.118a1.481,1.481,0,0,0-.539,2.088l2.392,3.788a3.393,3.393,0,0,0,3.5,1.523l23.224-4.957A7.667,7.667,0,0,1,772,287.227l19.945,24.217" transform="translate(-698.107 -264.394)" fill="none" stroke="#0d66ce" stroke-linecap="square" stroke-miterlimit="10" stroke-width="2.632"/>
    <path id="Path_1077" data-name="Path 1077" d="M801.123,283.344l-9.038,8.078s-1.378,11.032-9.77,14.835" transform="translate(-673.907 -254.678)" fill="none" stroke="#2aeaa5" stroke-linecap="square" stroke-miterlimit="10" stroke-width="2.632"/>
    <path id="Path_1078" data-name="Path 1078" d="M751.184,298.986,765.3,316.279a4.624,4.624,0,0,0,6.523.644l3.216-2.652a4.623,4.623,0,0,0,.664-6.465l-9.119-11.342" transform="translate(-689.868 -247.952)" fill="none" stroke="#0d66ce" stroke-linecap="square" stroke-miterlimit="10" stroke-width="2.632"/>
    <path id="Path_1079" data-name="Path 1079" d="M746.033,308.51l10.306,12.558a4.626,4.626,0,0,0,6.532.622l2.827-2.352a4.624,4.624,0,0,0,.625-6.479l-11.088-13.586" transform="translate(-692.509 -246.511)" fill="none" stroke="#0d66ce" stroke-linecap="square" stroke-miterlimit="10" stroke-width="2.632"/>
    <path id="Path_1080" data-name="Path 1080" d="M744.446,322.56l.335.4a4.624,4.624,0,0,0,6.494.576l2.688-2.236a4.623,4.623,0,0,0,.619-6.485l-7.734-9.435" transform="translate(-693.322 -243.381)" fill="none" stroke="#0d66ce" stroke-linecap="square" stroke-miterlimit="10" stroke-width="2.632"/>
    <rect id="Rectangle_245" data-name="Rectangle 245" width="11.677" height="11.677" rx="2" transform="translate(18.271 36.363) rotate(49.183)" fill="none" stroke="#0d66ce" stroke-linecap="square" stroke-miterlimit="10" stroke-width="2.632"/>
    <rect id="Rectangle_246" data-name="Rectangle 246" width="11.629" height="11.629" rx="2" transform="translate(25.846 45.076) rotate(49.184)" fill="none" stroke="#0d66ce" stroke-linecap="square" stroke-miterlimit="10" stroke-width="2.632"/>
    <rect id="Rectangle_247" data-name="Rectangle 247" width="11.629" height="11.629" rx="2" transform="translate(33.448 53.878) rotate(49.184)" fill="none" stroke="#0d66ce" stroke-linecap="square" stroke-miterlimit="10" stroke-width="2.632"/>
    <path id="Rectangle_248" data-name="Rectangle 248" d="M2,0H7.945a2,2,0,0,1,2,2V7.945a2,2,0,0,1-2,2H0a0,0,0,0,1,0,0V2A2,2,0,0,1,2,0Z" transform="matrix(0.654, 0.757, -0.757, 0.654, 41.049, 62.679)" fill="none" stroke="#0d66ce" stroke-linecap="square" stroke-miterlimit="10" stroke-width="2.632"/>
    <g id="_8-2" data-name="8" transform="translate(0 23.818)">
      <line id="Line_44-2" data-name="Line 44" x2="13.061" y2="13.972" fill="none" stroke="#0d66ce" stroke-linecap="square" stroke-miterlimit="10" stroke-width="2.632"/>
      <path id="Path_1076-2" data-name="Path 1076" d="M790.388,309.923a4.614,4.614,0,0,1-.557,6.408l-3.583,3.116a4.612,4.612,0,0,1-6.62-.569L763.5,299.033" transform="translate(-692.559 -281.442)" fill="none" stroke="#0d66ce" stroke-linecap="square" stroke-miterlimit="10" stroke-width="2.632"/>
      <path id="Path_1078-2" data-name="Path 1078" d="M751.184,298.986,765.3,316.279a4.624,4.624,0,0,0,6.523.644l3.216-2.652a4.623,4.623,0,0,0,.664-6.465l-9.119-11.342" transform="translate(-689.868 -271.77)" fill="none" stroke="#0d66ce" stroke-linecap="square" stroke-miterlimit="10" stroke-width="2.632"/>
      <path id="Path_1079-2" data-name="Path 1079" d="M746.033,308.51l10.306,12.558a4.626,4.626,0,0,0,6.532.622l2.827-2.352a4.624,4.624,0,0,0,.625-6.479l-11.088-13.586" transform="translate(-692.509 -270.329)" fill="none" stroke="#0d66ce" stroke-linecap="square" stroke-miterlimit="10" stroke-width="2.632"/>
      <path id="Path_1080-2" data-name="Path 1080" d="M744.446,322.56l.335.4a4.624,4.624,0,0,0,6.494.576l2.688-2.236a4.623,4.623,0,0,0,.619-6.485l-7.734-9.435" transform="translate(-693.322 -267.199)" fill="none" stroke="#0d66ce" stroke-linecap="square" stroke-miterlimit="10" stroke-width="2.632"/>
    </g>
  </g>
</svg>
