<svg xmlns="http://www.w3.org/2000/svg" width="106.689" height="106.656" viewBox="0 0 106.689 106.656">
  <g id="Group_964" data-name="Group 964" transform="translate(-147.505 -506.077)">
    <path id="Path_1340" data-name="Path 1340" d="M195.523,609.449c-6.035-.287-11.351-1.549-14.587-3.458a3.079,3.079,0,0,1-1.458-2.658v-12.14c0-1.745-1.291-3.61-4.917-3.61-.276,0-.462.013-.467.013-.058,0-.507.022-1.209.022-6.857,0-11.733-1.418-12.136-3.53-.978-5.141.147-15.705.16-15.814a1.62,1.62,0,0,0-1.022-1.683,65.332,65.332,0,0,1-7.85-3.732,2.369,2.369,0,0,1-1.26-1.387,2.4,2.4,0,0,1,.393-1.662c8.859-13.829,9.48-17.877,9.5-18.439,3.494-29.752,27.459-32.064,34.722-32.064.7,0,1.3.016,1.774.029.322.009.585.016.778.016a52.1,52.1,0,0,1,18.986,4.179c4.785,2.107,14.381,8.077,16.43,15.585.942,3.454.213,6.784-2.227,10.182-6.395,8.9-22.269,2.883-26.534,1.051l1.042-2.134-8.039.556,4.5,6.686,1.071-2.194c4.612,2.031,22.627,9,30.586-2.078,3.005-4.183,3.919-8.531,2.721-12.92-2.365-8.662-12.582-15.2-18.246-17.69a55.515,55.515,0,0,0-20.288-4.454c-.171,0-.407-.007-.7-.013-.493-.013-1.127-.029-1.856-.029-7.937,0-34.127,2.516-37.936,34.96-.02.151-.567,3.854-8.968,16.97a5.6,5.6,0,0,0-.876,4.141,5.413,5.413,0,0,0,2.8,3.514,64.81,64.81,0,0,0,7.161,3.481c-.278,3.041-.874,10.98,0,15.552,1.02,5.357,10.031,6.159,15.312,6.159.847,0,1.369-.027,1.407-.029.02,0,.12-.007.269-.007a2.58,2.58,0,0,1,1.683.376v12.14a6.318,6.318,0,0,0,3.047,5.439c3.73,2.2,9.442,3.587,16.081,3.907h.078a1.617,1.617,0,0,0,.071-3.231Z" transform="translate(0 0)" fill="#0d66ce"/>
    <path id="Path_1341" data-name="Path 1341" d="M238.468,543.33c-.049-10.144-3.483-18.043-10.2-23.478a1.615,1.615,0,1,0-2.031,2.511c5.928,4.794,8.957,11.854,9,20.98l1.616-.009-1.611.2c0,16.874-4.712,22.638-8.5,27.272a26.489,26.489,0,0,0-3.961,5.832c-3.594,7.935-3.083,16.257-2.458,20.513a1.963,1.963,0,0,1-.911,1.989c-6.988,4.027-22.782,3.994-29.652-.062a2.456,2.456,0,0,1-1.165-2.129v-10.56c0-1.62-1.178-3.352-4.488-3.352-.242,0-.411.013-.42.013-.071,0-.453.018-1.036.018-5.772,0-10.029-1.191-10.353-2.9-.845-4.441.131-13.6.142-13.7a1.615,1.615,0,0,0-1.022-1.68,56.435,56.435,0,0,1-6.8-3.232,1.882,1.882,0,0,1-1-1.069,1.908,1.908,0,0,1,.316-1.289c7.737-12.076,8.279-15.645,8.3-16.132,3.021-25.71,23.725-27.71,30-27.71a1.617,1.617,0,1,0,0-3.234c-6.948,0-29.879,2.2-33.213,30.6-.018.135-.52,3.361-7.766,14.672a5.091,5.091,0,0,0-.8,3.772A4.912,4.912,0,0,0,163,564.358a57.308,57.308,0,0,0,6.112,2.987c-.247,2.756-.733,9.5.016,13.434.916,4.808,8.871,5.526,13.529,5.526.742,0,1.2-.022,1.254-.027l.2-.007c.774,0,1.236.178,1.254.12v10.56a5.708,5.708,0,0,0,2.754,4.916c3.914,2.309,10.222,3.472,16.53,3.47,6.226,0,12.454-1.129,16.381-3.392a5.21,5.21,0,0,0,2.494-5.259c-.573-3.9-1.047-11.527,2.207-18.708a23.8,23.8,0,0,1,3.518-5.119c4.112-5.032,9.228-11.291,9.228-29.317Z" transform="translate(15.717 7.396)" fill="#2aeaa5"/>
  </g>
</svg>
