<svg xmlns="http://www.w3.org/2000/svg" width="100.724" height="94.013" viewBox="0 0 100.724 94.013">
  <g id="Group_1552" data-name="Group 1552" transform="translate(-909.585 -2762.814)">
    <g id="_5" data-name=" 5" transform="translate(911.099 2764.438)">
      <g id="row1">
        <path id="icon:5" d="M172.893,514.6c-5.04-9.542-7.209-19.88-3.435-30.139,7.463-20.244,27.389-20.8,37.393-13.655,6.034,4.287,8.813,11.274,9.526,13.179.715-1.905,3.493-8.893,9.526-13.179,10-7.225,29.929-6.589,37.393,13.655,12.7,34.534-41.917,69.941-46.76,72.958a.275.275,0,0,0-.159.079c-.079,0-.079-.079-.159-.079-1.167-.727-5.229-3.338-10.543-7.365" transform="translate(-167.547 -466.612)" fill="none" stroke="#0d66ce" stroke-linecap="round" stroke-width="3"/>
      </g>
    </g>
    <path id="Path_1358" data-name="Path 1358" d="M220.166,517.5a4.578,4.578,0,0,0-1.367-.974l1.243-1.168a4.94,4.94,0,0,0-1.178-7.988l.268-.252a4.981,4.981,0,0,0-6.825-7.254l-.574.54a4.938,4.938,0,0,0-7.9-1.663L190.3,511.474l.077-.258a5.347,5.347,0,0,0-3.473-6.6c-1.73-.56-4.245-.491-6.4,3.013-.083.136-8.348,13.651-8.123,23.927-.053.817-.124,5.609,4.955,11.008,5.413,5.754,10.769,5.934,10.995,5.938h0a1.614,1.614,0,0,0,.474-.059c5.465-1.505,12.4-6.259,21.191-14.535l9.63-9.061A5.223,5.223,0,0,0,220.166,517.5Zm-12.454,13.977c-8.129,7.649-14.7,12.242-19.533,13.669-.915-.111-4.591-.8-8.418-4.869-4.31-4.581-4.073-8.3-4.057-8.5,0-.016-.006-.03,0-.046a1.642,1.642,0,0,0,.012-.166c-.213-7.721,5.433-18.637,7.629-22.192,1.239-2.012,2.053-1.75,2.538-1.592a2,2,0,0,1,1.308,2.461l-1.733,5.784-2.9,2.732a1.667,1.667,0,0,0,2.284,2.429l21.28-20.023a1.647,1.647,0,0,1,2.255,2.4l-1.693,1.593L194.633,516.5a1.668,1.668,0,1,0,2.285,2.429l12.044-11.334L210.657,506l3.934-3.7a1.647,1.647,0,0,1,2.255,2.4l-3.629,3.416-14.044,13.213-.662.624a1.667,1.667,0,1,0,2.284,2.429l.664-.624L215.5,510.538a1.646,1.646,0,0,1,2.254,2.4l-15.8,14.869a1.668,1.668,0,0,0,2.285,2.429l10.848-10.207a1.693,1.693,0,1,1,2.254,2.4Z" transform="translate(744.089 2301.266)" fill="#72eaff"/>
  </g>
</svg>
