<svg xmlns="http://www.w3.org/2000/svg" width="118.257" height="110.303" viewBox="0 0 118.257 110.303">
  <g id="Group_1553" data-name="Group 1553" transform="translate(-1565.378 -2755.021)">
    <path id="Path_1356" data-name="Path 1356" d="M28.2,10.17s4.525,8.537-4.088,20.664S20.8,60.593,34.675,63.911c0,0-5.43-2.715-5.249-12.066S35.308,44.031,33,36.58c0,0,10.815,3.741,6.471,12.066,0,0,5.46-2.745,6.621-6.772,0,0,7.1,8.431-4.811,21.991,0,0,23.017-6.863,12.232-32.383,0,0-3.017-6.486-8.039-8.869A11.1,11.1,0,0,1,40.753,32.6S44.434,15.947,28.2,10.17Z" transform="translate(1586.639 2765.945)" fill="none" stroke="#4ff038" stroke-linecap="round" stroke-linejoin="round" stroke-width="3"/>
    <g id="_5" data-name="5" transform="translate(1564.444 2750.953)">
      <g id="row1" transform="translate(2.494 5.711)">
        <path id="icon:5" d="M60.25,112.777a.327.327,0,0,0-.187.094c-.094,0-.094-.094-.187-.094-5.709-3.557-70.1-45.3-55.129-86.017,8.8-23.868,32.291-24.523,44.085-16.1C55.944,15.716,59.22,23.952,60.062,26.2c.842-2.246,4.118-10.483,11.232-15.537,11.793-8.517,35.286-7.769,44.085,16.1C130.355,67.475,65.959,109.22,60.25,112.777Z" transform="translate(-2.494 -5.711)" fill="none" stroke="#0d66ce" stroke-width="3"/>
      </g>
    </g>
  </g>
</svg>
