<svg xmlns="http://www.w3.org/2000/svg" width="111.425" height="111.376" viewBox="0 0 111.425 111.376">
  <g id="Group_973" data-name="Group 973" transform="translate(0 0.001)">
    <path id="Path_1357" data-name="Path 1357" d="M42.317,49.82,52.593,60.1,89.471,19.121" transform="translate(2.941 1.27)" fill="none" stroke="#4ff038" stroke-linecap="round" stroke-width="3"/>
    <path id="Path_1358" data-name="Path 1358" d="M68.172,15.964a9.638,9.638,0,0,1-2.819-6.8V1.5H46.091V9.163a9.626,9.626,0,0,1-16.435,6.81l-5.433-5.421L10.608,24.166l5.433,5.421A9.637,9.637,0,0,1,9.232,46H1.5V65.3H9.176a9.626,9.626,0,0,1,6.81,16.438l-5.433,5.433,13.67,13.658,5.433-5.436A9.625,9.625,0,0,1,46.09,102.2v7.674H65.351V102.2A9.639,9.639,0,0,1,81.8,95.388l5.421,5.436L100.837,87.2l-5.421-5.433a9.625,9.625,0,0,1,6.81-16.435h7.7V46.005h-7.662" transform="translate(0 0)" fill="none" stroke="#0d66ce" stroke-linecap="round" stroke-linejoin="round" stroke-width="3"/>
    <path id="Path_1357-2" data-name="Path 1357" d="M82.922,45.887A29.936,29.936,0,1,1,64.113,25.816" transform="translate(1.63 1.628)" fill="none" stroke="#0d66ce" stroke-linecap="round" stroke-miterlimit="10" stroke-width="3"/>
  </g>
</svg>
