<svg id="_5708_-_Browser_Settings" data-name="5708 - Browser Settings" xmlns="http://www.w3.org/2000/svg" width="102.693" height="102.693" viewBox="0 0 102.693 102.693">
  <g id="Layer_x0020_1" transform="translate(14.853 14.441)">
    <g id="_558166328">
      <path id="_558167216" d="M3.949.96H71.013a2.966,2.966,0,0,1,2.961,2.961v53.69a2.947,2.947,0,0,1-.869,2.087L73.1,59.7a2.947,2.947,0,0,1-2.087.869H53.448q.142-.38.266-.766h2.432a3.059,3.059,0,0,0,2.96-2.291h11.81V4.017H4.045v53.5h11.81a3.059,3.059,0,0,0,2.96,2.291h2.432q.124.386.266.766H3.949A2.966,2.966,0,0,1,.987,57.611V3.922a2.956,2.956,0,0,1,.869-2.087h0l0,0,0,0h0A2.956,2.956,0,0,1,3.949.96Z" transform="translate(-0.987 -0.96)" fill="#0d66ce"/>
      <path id="_558167384" d="M1.133,1.666H69.726V4.875H1.133Z" transform="translate(1.064 8.957)" fill="#0d66ce"/>
      <circle id="_558167192" cx="2.246" cy="2.246" r="2.246" transform="translate(6.017 4.679)" fill="#0d66ce"/>
      <circle id="_558167312" cx="2.246" cy="2.246" r="2.246" transform="translate(13.566 4.679)" fill="#0d66ce"/>
      <circle id="_558166088" cx="2.246" cy="2.246" r="2.246" transform="translate(21.115 4.679)" fill="#0d66ce"/>
      <path id="_558166232" d="M25.967,8.3a15.218,15.218,0,0,1,4.34,1.8L32.846,7.56h0a1.529,1.529,0,0,1,2.162,0l.008.009,3.065,3.065h0a1.529,1.529,0,0,1,0,2.162l-.009.008-2.53,2.53a15.213,15.213,0,0,1,1.8,4.34h3.588A1.529,1.529,0,0,1,42.459,21.2V25.55a1.529,1.529,0,0,1-1.529,1.529H37.343a15.213,15.213,0,0,1-1.8,4.34l2.539,2.539h0a1.529,1.529,0,0,1,0,2.162l-.009.008-3.065,3.065h0a1.529,1.529,0,0,1-2.162,0l-.008-.009-2.53-2.53a15.214,15.214,0,0,1-4.34,1.8v3.588a1.529,1.529,0,0,1-1.529,1.529H20.092a1.529,1.529,0,0,1-1.529-1.529V38.454a15.22,15.22,0,0,1-4.34-1.8l-2.539,2.539h0a1.529,1.529,0,0,1-2.162,0l-.008-.009L6.449,36.118h0a1.529,1.529,0,0,1,0-2.162l.009-.008,2.53-2.53a15.213,15.213,0,0,1-1.8-4.34H3.6A1.529,1.529,0,0,1,2.071,25.55V21.2A1.529,1.529,0,0,1,3.6,19.674H7.188a15.216,15.216,0,0,1,1.8-4.34L6.449,12.8h0a1.529,1.529,0,0,1,0-2.162l.009-.008L9.523,7.56h0a1.529,1.529,0,0,1,2.162,0l.008.009,2.53,2.53a15.216,15.216,0,0,1,4.34-1.8V4.71a1.529,1.529,0,0,1,1.529-1.529h4.347A1.529,1.529,0,0,1,25.967,4.71V8.3Zm1.067,3.549a12.371,12.371,0,0,0-2.7-.778,1.529,1.529,0,0,1-1.42-1.525V6.239H21.62V9.532a1.529,1.529,0,0,1-1.293,1.524l-.236-1.51.233,1.5a12.537,12.537,0,0,0-5.293,2.16,1.529,1.529,0,0,1-2.089-.068h0L10.6,10.8l-.912.912,2.321,2.321a1.529,1.529,0,0,1,.172,2l-.006,0a12.542,12.542,0,0,0-2.22,5.28,1.529,1.529,0,0,1-1.525,1.42H5.128v1.29H8.421a1.529,1.529,0,0,1,1.524,1.293l-1.51.236,1.5-.233A12.537,12.537,0,0,0,12.1,30.61,1.529,1.529,0,0,1,12.03,32.7h0L9.691,35.038l.912.912,2.321-2.321a1.529,1.529,0,0,1,2-.172l0,.006a12.541,12.541,0,0,0,5.28,2.22,1.529,1.529,0,0,1,1.42,1.525v3.306h1.29V37.22A1.529,1.529,0,0,1,24.2,35.7l.236,1.51-.233-1.5a12.537,12.537,0,0,0,5.293-2.16,1.529,1.529,0,0,1,2.089.068h0l2.339,2.339.912-.912-2.321-2.321a1.529,1.529,0,0,1-.172-2l.006,0a12.541,12.541,0,0,0,2.22-5.28,1.529,1.529,0,0,1,1.525-1.42H39.4v-1.29H36.109a1.529,1.529,0,0,1-1.524-1.293L36.1,21.2l-1.5.233a12.537,12.537,0,0,0-2.16-5.294,1.529,1.529,0,0,1,.068-2.089h0l2.339-2.339-.912-.912-2.321,2.321a1.529,1.529,0,0,1-2,.172l0-.006a12.467,12.467,0,0,0-2.576-1.442Z" transform="translate(14.228 30.24)" fill="#0d66ce"/>
      <path id="_558166352" d="M11.332,3.96a8.483,8.483,0,1,1-6,2.485A8.456,8.456,0,0,1,11.332,3.96Zm3.729,4.754a5.274,5.274,0,1,0,1.545,3.729A5.257,5.257,0,0,0,15.062,8.714Z" transform="translate(25.161 41.173)" fill="#0d66ce"/>
    </g>
  </g>
  <rect id="Rectangle_529" data-name="Rectangle 529" width="102.693" height="102.693" fill="none"/>
</svg>
