<svg xmlns="http://www.w3.org/2000/svg" width="95.769" height="97.389" viewBox="0 0 95.769 97.389">
  <g id="_9713_-_Documents_Management" data-name="9713 - Documents Management" transform="translate(-268.78 -256)">
    <path id="Path_1467" data-name="Path 1467" d="M360.491,913.061H272.838A4.062,4.062,0,0,1,268.78,909V855.082a1.522,1.522,0,0,1,1.522-1.522h90.189a4.062,4.062,0,0,1,4.058,4.058V909A4.064,4.064,0,0,1,360.491,913.061ZM271.823,856.6V909a1.016,1.016,0,0,0,1.014,1.014h87.653A1.017,1.017,0,0,0,361.506,909V857.618a1.016,1.016,0,0,0-1.014-1.014Z" transform="translate(0 -559.672)" fill="#0d66ce"/>
    <path id="Path_1468" data-name="Path 1468" d="M317.412,721.742H270.3a1.522,1.522,0,0,1-1.522-1.522v-6.593a4.062,4.062,0,0,1,4.058-4.058h34.3A4.033,4.033,0,0,1,310,710.744l8.485,8.4a1.522,1.522,0,0,1-1.07,2.6ZM271.823,718.7H313.71l-5.854-5.792a1.008,1.008,0,0,0-.713-.294h-34.3a1.016,1.016,0,0,0-1.014,1.015Z" transform="translate(0 -424.812)" fill="#0d66ce"/>
    <g id="Group_1360" data-name="Group 1360" transform="translate(295.91 302.882)">
      <path id="Path_1469" data-name="Path 1469" d="M887.482,1195.5a9.242,9.242,0,1,1,9.242-9.242A9.252,9.252,0,0,1,887.482,1195.5Zm0-15.44a6.2,6.2,0,1,0,6.2,6.2A6.206,6.206,0,0,0,887.482,1180.062Z" transform="translate(-866.728 -1165.504)" fill="#0d66ce"/>
      <path id="Path_1470" data-name="Path 1470" d="M719.826,1036.923h-4.8a2.158,2.158,0,0,1-2.156-2.156V1031.8a16.106,16.106,0,0,1-3.279-1.359l-2.1,2.1a2.14,2.14,0,0,1-1.523.632h0a2.141,2.141,0,0,1-1.524-.632l-3.393-3.393a2.155,2.155,0,0,1,0-3.049l2.1-2.1a16.081,16.081,0,0,1-1.36-3.278h-2.967a2.158,2.158,0,0,1-2.156-2.156v-4.8a2.158,2.158,0,0,1,2.156-2.156h2.967a16.09,16.09,0,0,1,1.359-3.277l-2.1-2.1a2.155,2.155,0,0,1,0-3.049l3.393-3.393a2.139,2.139,0,0,1,1.523-.632h0a2.142,2.142,0,0,1,1.525.632l2.1,2.1a16.1,16.1,0,0,1,3.277-1.358v-2.969a2.158,2.158,0,0,1,2.156-2.156h4.8a2.158,2.158,0,0,1,2.156,2.156v2.969a16.1,16.1,0,0,1,3.276,1.358l2.1-2.1a2.139,2.139,0,0,1,1.523-.632h0a2.141,2.141,0,0,1,1.524.632l3.393,3.393a2.155,2.155,0,0,1,0,3.049l-2.1,2.1a16.1,16.1,0,0,1,1.359,3.276h2.97a2.158,2.158,0,0,1,2.156,2.156v4.8a2.155,2.155,0,0,1-2.154,2.155h-2.97A16.086,16.086,0,0,1,731.7,1024l2.1,2.1a2.155,2.155,0,0,1,0,3.049l-3.393,3.393a2.14,2.14,0,0,1-1.523.632h0a2.141,2.141,0,0,1-1.524-.632l-2.1-2.1a16.1,16.1,0,0,1-3.278,1.36v2.968A2.158,2.158,0,0,1,719.826,1036.923Zm-3.91-3.043h3.022v-3.268a1.522,1.522,0,0,1,1.21-1.49,13.106,13.106,0,0,0,4.513-1.872,1.522,1.522,0,0,1,1.909.2l2.312,2.312,2.137-2.137-2.312-2.312a1.522,1.522,0,0,1-.2-1.909,13.1,13.1,0,0,0,1.87-4.513,1.522,1.522,0,0,1,1.49-1.211h3.268v-3.022h-3.27a1.522,1.522,0,0,1-1.489-1.21,13.121,13.121,0,0,0-1.871-4.512,1.522,1.522,0,0,1,.2-1.909l2.313-2.313-2.137-2.137-2.314,2.314a1.522,1.522,0,0,1-1.909.2,13.1,13.1,0,0,0-4.512-1.87,1.522,1.522,0,0,1-1.211-1.49v-3.269h-3.023v3.269a1.522,1.522,0,0,1-1.211,1.49,13.1,13.1,0,0,0-4.512,1.87,1.522,1.522,0,0,1-1.909-.2l-2.312-2.312-2.137,2.137,2.312,2.312a1.522,1.522,0,0,1,.2,1.909,13.1,13.1,0,0,0-1.871,4.513,1.522,1.522,0,0,1-1.489,1.211h-3.267v3.022h3.267a1.522,1.522,0,0,1,1.49,1.211,13.093,13.093,0,0,0,1.871,4.513,1.522,1.522,0,0,1-.2,1.909l-2.311,2.311,2.137,2.137,2.311-2.311a1.522,1.522,0,0,1,1.909-.2,13.11,13.11,0,0,0,4.514,1.871,1.522,1.522,0,0,1,1.211,1.49Zm-10.573-3.491h0Zm22.912,0h0Zm3.393-2.137,0,0Zm-28.443-1.255h0Zm32.819-9.318h0Zm-4.378-12.338h0Zm-28.443-1.255h0Zm3.4-2.137h0Zm22.912,0h0Z" transform="translate(-696.67 -995.411)" fill="#0d66ce"/>
    </g>
    <g id="Group_1363" data-name="Group 1363" transform="translate(288.097 256)">
      <path id="Path_1471" data-name="Path 1471" d="M629.061,296.806a1.522,1.522,0,0,1-1.522-1.522V260.058a1.016,1.016,0,0,0-1.014-1.014H577.508a1.016,1.016,0,0,0-1.014,1.014v26.1a1.522,1.522,0,1,1-3.043,0v-26.1A4.063,4.063,0,0,1,577.508,256h49.017a4.063,4.063,0,0,1,4.058,4.058v35.227A1.522,1.522,0,0,1,629.061,296.806Z" transform="translate(-573.45 -256)" fill="#0d66ce"/>
      <g id="Group_1361" data-name="Group 1361" transform="translate(6.356 7.571)">
        <path id="Path_1472" data-name="Path 1472" d="M716.6,617.283H675.222a1.522,1.522,0,1,1,0-3.043H716.6a1.522,1.522,0,1,1,0,3.043Z" transform="translate(-673.7 -599.097)" fill="#0d66ce"/>
        <path id="Path_1473" data-name="Path 1473" d="M716.6,497.873H675.222a1.522,1.522,0,1,1,0-3.043H716.6a1.522,1.522,0,1,1,0,3.043Z" transform="translate(-673.7 -487.258)" fill="#0d66ce"/>
        <path id="Path_1474" data-name="Path 1474" d="M716.6,378.453H675.222a1.522,1.522,0,1,1,0-3.043H716.6a1.522,1.522,0,1,1,0,3.043Z" transform="translate(-673.7 -375.41)" fill="#0d66ce"/>
      </g>
      <g id="Group_1362" data-name="Group 1362" transform="translate(31.414 30.285)">
        <path id="Path_1475" data-name="Path 1475" d="M1086.751,736.693h-16.32a1.522,1.522,0,1,1,0-3.043h16.32a1.522,1.522,0,0,1,0,3.043Z" transform="translate(-1068.91 -733.65)" fill="#0d66ce"/>
      </g>
    </g>
  </g>
</svg>
