<svg xmlns="http://www.w3.org/2000/svg" width="109.506" height="75.458" viewBox="0 0 109.506 75.458">
  <g id="_9716_-_Working_Time" data-name="9716 - Working Time" transform="translate(-256 -494.79)">
    <g id="Group_1368" data-name="Group 1368" transform="translate(256 494.79)">
      <g id="Group_1366" data-name="Group 1366" transform="translate(7.643 0)">
        <g id="Group_1364" data-name="Group 1364" transform="translate(15.359)">
          <path id="Path_1476" data-name="Path 1476" d="M619.192,514.432a1.74,1.74,0,0,1-1.257-.539,3.965,3.965,0,0,1-.629-1.018,22.215,22.215,0,0,0-2.581-4.066,12.525,12.525,0,0,0-1.011-1.19c-.094-.092-.293-.279-.576-.509a6.126,6.126,0,0,1-1.1.878,7.312,7.312,0,0,1-4.342.928l-.08,0c-.035,0-3.54-.08-7.278.178l-.18.012a8.452,8.452,0,0,0-3.307.64c-.82.437-1.307,1.389-1.631,3.184a1.826,1.826,0,0,1-1.179,1.394h0A1.785,1.785,0,0,1,592,513.7l-.008-.011a6.562,6.562,0,0,1-1.017-3.3l0-.027c-.147-1.336-.43-4.584.113-5.875a13.132,13.132,0,0,1,2.948-4.2c3.517-3.4,9.286-4.732,10.407-4.964a22.919,22.919,0,0,1,6.222-.481,20.113,20.113,0,0,1,3.541.524,5.466,5.466,0,0,1,3.192,2.009,7.146,7.146,0,0,1,.752,1.426,3.251,3.251,0,0,0,.459.863,6.883,6.883,0,0,0,1.005.808,10.225,10.225,0,0,1,1.421,1.155,9.166,9.166,0,0,1,2.6,5.056,7.5,7.5,0,0,1-1.323,4.627c-.081.133-.468.735-.851,1.295-.736,1.077-1.18,1.727-2.086,1.824A1.684,1.684,0,0,1,619.192,514.432ZM592.907,511.1l-.006,0,.006,0Zm19.887-7.917a2.984,2.984,0,0,1,1.677.659l.033.023a12.76,12.76,0,0,1,1.6,1.312,15.239,15.239,0,0,1,1.3,1.516,26.728,26.728,0,0,1,1.971,2.843l0,0a4.234,4.234,0,0,0,.843-2.509,5.8,5.8,0,0,0-1.641-3,7.417,7.417,0,0,0-.964-.765A9.668,9.668,0,0,1,616.106,502,6,6,0,0,1,615,500.139a4.393,4.393,0,0,0-.387-.778,2.2,2.2,0,0,0-1.25-.684,16.793,16.793,0,0,0-2.938-.427,19.5,19.5,0,0,0-5.289.418c-2.648.55-6.523,1.947-8.724,4.074a9.789,9.789,0,0,0-2.151,3.018,9.157,9.157,0,0,0-.066,1.692,5.449,5.449,0,0,1,1.047-.726,11.246,11.246,0,0,1,4.684-1.035l.177-.012c3.9-.27,7.446-.189,7.6-.185l.081,0a4.183,4.183,0,0,0,2.446-.409,3.014,3.014,0,0,0,.966-1.01,1.863,1.863,0,0,1,1.2-.854A1.92,1.92,0,0,1,612.795,503.179Zm1.33,2.659h0Zm0,0v0Zm-19.887-.028h0Zm.026-.072Zm18.388-.771h0Z" transform="translate(-589.901 -494.79)" fill="#0d66ce"/>
          <path id="Path_1477" data-name="Path 1477" d="M595.788,745.484a13,13,0,0,1-2.8-.3,13.814,13.814,0,0,1-5.592-2.77,14.272,14.272,0,0,1-4.3-6.135,15.529,15.529,0,0,1-.587-2.194,7.139,7.139,0,0,1-3.7-4.823,6.673,6.673,0,0,1,2.277-6.6,1.711,1.711,0,1,1,2.251,2.578,3.243,3.243,0,0,0-1.187,3.285,3.661,3.661,0,0,0,2.367,2.687,1.711,1.711,0,0,1,1.219,1.416,13.8,13.8,0,0,0,.585,2.5,10.961,10.961,0,0,0,3.254,4.646,10.27,10.27,0,0,0,4.16,2.075,9.384,9.384,0,0,0,4.054.006,9.092,9.092,0,0,0,3.141-1.44,11.206,11.206,0,0,0,2.1-1.936,13.846,13.846,0,0,0,2.769-6.056,1.711,1.711,0,0,1,1.389-1.331c.826-.139,1.923-1.684,2.047-3.393.083-1.143-.286-1.854-1.094-2.114a1.711,1.711,0,0,1,1.047-3.258,5.151,5.151,0,0,1,3.46,5.619c-.175,2.422-1.577,5.121-3.729,6.15a16.52,16.52,0,0,1-3.275,6.592,14.573,14.573,0,0,1-2.774,2.546,12.513,12.513,0,0,1-4.3,1.953A12.225,12.225,0,0,1,595.788,745.484Z" transform="translate(-578.638 -706.017)" fill="#0d66ce"/>
        </g>
        <g id="Group_1365" data-name="Group 1365" transform="translate(23.173 33.855)">
          <path id="Path_1478" data-name="Path 1478" d="M689.946,979.94a1.712,1.712,0,0,1-1.531-2.472,9.648,9.648,0,0,0,1.032-3.844,3.7,3.7,0,0,0-.2-1.348c-.04-.141-.085-.3-.131-.478a1.711,1.711,0,0,1,3.315-.849c.035.135.07.26.108.393a7.034,7.034,0,0,1,.324,2.37,13.132,13.132,0,0,1-1.387,5.275A1.711,1.711,0,0,1,689.946,979.94Z" transform="translate(-688.236 -969.663)" fill="#0d66ce"/>
          <path id="Path_1479" data-name="Path 1479" d="M880.037,983.736a1.711,1.711,0,0,1-1.494-.875,12.858,12.858,0,0,1-1.713-5.8,7.076,7.076,0,0,1,.325-2.375c.015-.054.031-.109.047-.166a1.711,1.711,0,0,1,3.3.917l-.051.182a3.737,3.737,0,0,0-.2,1.353,9.441,9.441,0,0,0,1.277,4.219,1.711,1.711,0,0,1-1.491,2.548Z" transform="translate(-863.382 -973.008)" fill="#0d66ce"/>
        </g>
        <path id="Path_1480" data-name="Path 1480" d="M426.23,1065.823H364.913a1.711,1.711,0,0,1-1.711-1.705c-.014-4.382.191-15.337,2.382-22.4a18.583,18.583,0,0,1,2.256-4.891,19.232,19.232,0,0,1,7.183-6.307,19.642,19.642,0,0,1,9.682-2.094,1.71,1.71,0,0,1,1.1.462l6.415,6.022a1.711,1.711,0,0,1-2.342,2.495l-5.937-5.574H383.9a16.173,16.173,0,0,0-7.325,1.739,15.7,15.7,0,0,0-5.879,5.144,15.072,15.072,0,0,0-1.842,4.018c-1.829,5.9-2.17,15.163-2.221,19.67h57.879c-.051-4.506-.392-13.774-2.221-19.67a15.072,15.072,0,0,0-1.842-4.017,15.7,15.7,0,0,0-5.879-5.145,16.174,16.174,0,0,0-7.325-1.739h-.067l-6.283,5.6a1.711,1.711,0,1,1-2.278-2.554l3.272-2.919,3.482-3.1a1.711,1.711,0,0,1,1.068-.432,19.641,19.641,0,0,1,9.682,2.094,19.235,19.235,0,0,1,7.183,6.308,18.59,18.59,0,0,1,2.256,4.891c2.191,7.064,2.4,18.018,2.382,22.4A1.711,1.711,0,0,1,426.23,1065.823Z" transform="translate(-363.201 -990.366)" fill="#0d66ce"/>
      </g>
      <path id="Path_1481" data-name="Path 1481" d="M347.605,1508.632H257.711a1.711,1.711,0,1,1,0-3.422h89.894a1.711,1.711,0,1,1,0,3.422Z" transform="translate(-256 -1433.174)" fill="#0d66ce"/>
      <g id="Group_1367" data-name="Group 1367" transform="translate(15.254 44.08)">
        <path id="Path_1482" data-name="Path 1482" d="M512.674,1439.024H476.783a6.82,6.82,0,0,1-6.813-6.813v-.242a1.711,1.711,0,0,1,1.711-1.711h46.095a1.711,1.711,0,0,1,1.711,1.711v.242A6.821,6.821,0,0,1,512.674,1439.024Zm-38.947-5.343a3.4,3.4,0,0,0,3.056,1.921h35.891a3.4,3.4,0,0,0,3.056-1.921Z" transform="translate(-469.97 -1407.647)" fill="#0d66ce"/>
        <path id="Path_1483" data-name="Path 1483" d="M555.837,1139.125H516.071a1.711,1.711,0,0,1-1.711-1.711v-19.761a4.568,4.568,0,0,1,4.563-4.563h34.062a4.568,4.568,0,0,1,4.563,4.563v19.761A1.711,1.711,0,0,1,555.837,1139.125Zm-38.055-3.422h36.344v-18.05a1.142,1.142,0,0,0-1.141-1.141H518.923a1.142,1.142,0,0,0-1.141,1.141Z" transform="translate(-511.195 -1113.09)" fill="#0d66ce"/>
        <path id="Path_1484" data-name="Path 1484" d="M757.831,1240.824a4.561,4.561,0,1,1,4.561-4.561A4.566,4.566,0,0,1,757.831,1240.824Zm0-5.7a1.139,1.139,0,1,0,1.139,1.139A1.141,1.141,0,0,0,757.831,1235.123Z" transform="translate(-733.073 -1223.245)" fill="#0d66ce"/>
      </g>
    </g>
    <g id="Group_1369" data-name="Group 1369" transform="translate(320.151 496.487)">
      <path id="Path_1485" data-name="Path 1485" d="M1178.507,563.955a22.626,22.626,0,1,1,8.829-1.785A22.532,22.532,0,0,1,1178.507,563.955Zm0-41.933a19.2,19.2,0,1,0,7.5,1.515A19.142,19.142,0,0,0,1178.507,522.022Z" transform="translate(-1155.83 -518.6)" fill="#0d66ce"/>
      <path id="Path_1486" data-name="Path 1486" d="M1451.621,597.072a1.711,1.711,0,0,1-1.711-1.711v-2.24a1.711,1.711,0,1,1,3.422,0v2.24A1.711,1.711,0,0,1,1451.621,597.072Z" transform="translate(-1428.944 -586.219)" fill="#0d66ce"/>
      <path id="Path_1487" data-name="Path 1487" d="M1232.542,816.072H1230.3a1.711,1.711,0,1,1,0-3.422h2.241a1.711,1.711,0,0,1,0,3.422Z" transform="translate(-1223.403 -791.686)" fill="#0d66ce"/>
      <path id="Path_1488" data-name="Path 1488" d="M1451.551,1008.212a1.711,1.711,0,0,1-1.711-1.711v-2.24a1.711,1.711,0,0,1,3.422,0v2.24A1.711,1.711,0,0,1,1451.551,1008.212Z" transform="translate(-1428.879 -968.048)" fill="#0d66ce"/>
      <path id="Path_1489" data-name="Path 1489" d="M1643.681,816.152h-2.24a1.711,1.711,0,0,1,0-3.422h2.24a1.711,1.711,0,1,1,0,3.422Z" transform="translate(-1605.231 -791.761)" fill="#0d66ce"/>
      <path id="Path_1490" data-name="Path 1490" d="M1416.247,783.445a4.427,4.427,0,1,1,4.427-4.427A4.432,4.432,0,0,1,1416.247,783.445Zm0-5.432a1.005,1.005,0,1,0,1.005,1.005A1.006,1.006,0,0,0,1416.247,778.012Z" transform="translate(-1393.57 -756.34)" fill="#0d66ce"/>
      <path id="Path_1491" data-name="Path 1491" d="M1476.521,715.028a1.711,1.711,0,0,1-1.3-2.824l4.746-5.546a1.711,1.711,0,1,1,2.6,2.225l-4.746,5.546A1.708,1.708,0,0,1,1476.521,715.028Z" transform="translate(-1452.069 -692.695)" fill="#0d66ce"/>
      <path id="Path_1492" data-name="Path 1492" d="M1482.567,850.874a1.707,1.707,0,0,1-1.283-.578l-5.586-6.323a1.711,1.711,0,0,1,2.565-2.266l5.586,6.323a1.711,1.711,0,0,1-1.282,2.844Z" transform="translate(-1452.495 -818.135)" fill="#0d66ce"/>
    </g>
  </g>
</svg>
