<svg xmlns="http://www.w3.org/2000/svg" width="112" height="112" viewBox="0 0 112 112">
  <g id="Group_1474" data-name="Group 1474" transform="translate(-140 -1491)">
    <rect id="Rectangle_520" data-name="Rectangle 520" width="112" height="112" rx="10" transform="translate(140 1491)" fill="#0d66ce" opacity="0.05"/>
    <g id="BILL" transform="translate(150.726 1505.834)">
      <path id="Path_1493" data-name="Path 1493" d="M72.965,4.557H29.821a.225.225,0,0,0-.052.012,1.049,1.049,0,0,0-.7.3L17.8,16.132a1.05,1.05,0,0,0-.3.7.215.215,0,0,0-.013.055V75.752a1.064,1.064,0,0,0,1.064,1.064H72.965a1.064,1.064,0,0,0,1.064-1.064V5.621A1.064,1.064,0,0,0,72.965,4.557ZM28.758,8.189v7.634H21.125ZM71.9,74.691H19.62V17.95h10.2a1.064,1.064,0,0,0,1.064-1.064V6.684H71.9Z" fill="#0d66ce"/>
      <path id="Path_1494" data-name="Path 1494" d="M76.414,76.462H50.688a1.064,1.064,0,0,0,0,2.127H76.414a1.064,1.064,0,1,0,0-2.127Z" transform="translate(-12.601 -28.2)" fill="#0d66ce"/>
      <path id="Path_1495" data-name="Path 1495" d="M76.414,90.673H50.688a1.064,1.064,0,1,0,0,2.127H76.414a1.064,1.064,0,1,0,0-2.127Z" transform="translate(-12.601 -33.773)" fill="#0d66ce"/>
      <path id="Path_1496" data-name="Path 1496" d="M76.414,104.885H50.688a1.064,1.064,0,0,0,0,2.127H76.414a1.064,1.064,0,1,0,0-2.127Z" transform="translate(-12.601 -39.347)" fill="#0d66ce"/>
      <path id="Path_1497" data-name="Path 1497" d="M49.624,63.314a1.064,1.064,0,0,0,1.064,1.064H76.414a1.064,1.064,0,1,0,0-2.127H50.688A1.064,1.064,0,0,0,49.624,63.314Z" transform="translate(-12.601 -22.626)" fill="#0d66ce"/>
      <path id="Path_1498" data-name="Path 1498" d="M37.839,76.462H33.614a1.064,1.064,0,0,0,0,2.127h4.226a1.064,1.064,0,1,0,0-2.127Z" transform="translate(-5.905 -28.2)" fill="#0d66ce"/>
      <path id="Path_1499" data-name="Path 1499" d="M37.839,90.673H33.614a1.064,1.064,0,1,0,0,2.127h4.226a1.064,1.064,0,0,0,0-2.127Z" transform="translate(-5.905 -33.773)" fill="#0d66ce"/>
      <path id="Path_1500" data-name="Path 1500" d="M37.839,104.885H33.614a1.064,1.064,0,0,0,0,2.127h4.226a1.064,1.064,0,0,0,0-2.127Z" transform="translate(-5.905 -39.347)" fill="#0d66ce"/>
      <path id="Path_1501" data-name="Path 1501" d="M33.614,62.25a1.064,1.064,0,1,0,0,2.127h4.226a1.064,1.064,0,0,0,0-2.127Z" transform="translate(-5.905 -22.626)" fill="#0d66ce"/>
      <path id="Path_1502" data-name="Path 1502" d="M57.74,39.018a9.7,9.7,0,1,0-9.7-9.7,9.7,9.7,0,0,0,9.7,9.7Zm0-17.276a7.575,7.575,0,1,1-7.574,7.574A7.575,7.575,0,0,1,57.74,21.742Z" transform="translate(-11.98 -5.905)" fill="#0d66ce"/>
      <path id="Path_1503" data-name="Path 1503" d="M58.475,33.91,57.434,35.2A5.929,5.929,0,0,0,60.8,36.744v.968h1.316v-.925c2.1-.145,3.3-1.359,3.3-3.022,0-1.763-1.316-2.443-3.3-2.892V28.155a4.737,4.737,0,0,1,2.053,1.084l.983-1.33a5.373,5.373,0,0,0-3.039-1.344v-.9H60.8v.883a3.086,3.086,0,0,0-2.978,2.978c0,1.706,1.2,2.343,2.978,2.805v2.82A4.945,4.945,0,0,1,58.475,33.91Zm3.644-1.244c1.027.3,1.489.608,1.489,1.273,0,.636-.506,1.186-1.489,1.3Zm-2.473-3.3A1.365,1.365,0,0,1,60.8,28.127v2.4c-.779-.275-1.155-.579-1.155-1.157Z" transform="translate(-15.664 -8.279)" fill="#0d66ce"/>
    </g>
  </g>
</svg>
