<svg xmlns="http://www.w3.org/2000/svg" width="112" height="112" viewBox="0 0 112 112">
  <g id="Group_1475" data-name="Group 1475" transform="translate(-692 -1491)">
    <rect id="Rectangle_519" data-name="Rectangle 519" width="112" height="112" rx="10" transform="translate(692 1491)" fill="#0d66ce" opacity="0.05"/>
    <g id="Group_1351" data-name="Group 1351" transform="translate(23.212 4.898)">
      <g id="Group_1349" data-name="Group 1349" transform="translate(698.246 1511)">
        <g id="Group_1347" data-name="Group 1347" transform="translate(12.553)">
          <path id="Path_1447" data-name="Path 1447" d="M614,510.843a1.421,1.421,0,0,1-1.027-.44,3.239,3.239,0,0,1-.514-.832,18.165,18.165,0,0,0-2.109-3.323,10.234,10.234,0,0,0-.827-.972c-.077-.075-.239-.228-.471-.416a5.007,5.007,0,0,1-.9.718,5.976,5.976,0,0,1-3.549.758l-.065,0c-.029,0-2.893-.065-5.948.146l-.147.01a6.908,6.908,0,0,0-2.7.523c-.67.357-1.069,1.135-1.333,2.6a1.492,1.492,0,0,1-.963,1.139h0a1.458,1.458,0,0,1-1.668-.509l-.007-.009a5.362,5.362,0,0,1-.832-2.7l0-.022c-.12-1.092-.351-3.746.092-4.8a10.732,10.732,0,0,1,2.41-3.434c2.875-2.778,7.589-3.867,8.505-4.057a18.732,18.732,0,0,1,5.085-.393,16.438,16.438,0,0,1,2.894.428,4.467,4.467,0,0,1,2.609,1.642,5.85,5.85,0,0,1,.615,1.165,2.656,2.656,0,0,0,.375.706,5.632,5.632,0,0,0,.821.66,8.358,8.358,0,0,1,1.161.944,7.491,7.491,0,0,1,2.127,4.132,6.127,6.127,0,0,1-1.081,3.782c-.066.109-.382.6-.7,1.058-.6.88-.965,1.411-1.705,1.491A1.387,1.387,0,0,1,614,510.843Zm-21.482-2.727,0,0,0,0Zm16.254-6.47a2.439,2.439,0,0,1,1.371.539l.027.019a10.43,10.43,0,0,1,1.309,1.073,12.455,12.455,0,0,1,1.066,1.239,21.838,21.838,0,0,1,1.611,2.324l0,0a3.46,3.46,0,0,0,.689-2.051,4.74,4.74,0,0,0-1.341-2.453,6.071,6.071,0,0,0-.788-.625,7.905,7.905,0,0,1-1.241-1.027,4.908,4.908,0,0,1-.9-1.517,3.589,3.589,0,0,0-.316-.636,1.8,1.8,0,0,0-1.022-.559,13.73,13.73,0,0,0-2.4-.349,17.156,17.156,0,0,0-11.452,3.671,8,8,0,0,0-1.758,2.466,7.489,7.489,0,0,0-.054,1.383,4.453,4.453,0,0,1,.856-.593,9.192,9.192,0,0,1,3.828-.846l.145-.01c3.19-.22,6.086-.154,6.208-.152l.066,0a3.419,3.419,0,0,0,2-.335,2.464,2.464,0,0,0,.79-.825,1.523,1.523,0,0,1,.978-.7A1.571,1.571,0,0,1,608.77,501.646Zm1.087,2.173h0Zm0,0h0Zm-16.253-.023h0Zm.021-.059Zm15.028-.63h0Z" transform="translate(-590.059 -494.79)" fill="#0d66ce"/>
          <path id="Path_1448" data-name="Path 1448" d="M592.655,741.236a10.624,10.624,0,0,1-2.287-.249,11.29,11.29,0,0,1-4.57-2.264,11.664,11.664,0,0,1-3.518-5.014,12.692,12.692,0,0,1-.48-1.793,5.834,5.834,0,0,1-3.027-3.942,5.453,5.453,0,0,1,1.861-5.4,1.4,1.4,0,1,1,1.839,2.107,2.651,2.651,0,0,0-.97,2.685,2.992,2.992,0,0,0,1.934,2.2,1.4,1.4,0,0,1,1,1.157,11.275,11.275,0,0,0,.478,2.039,8.957,8.957,0,0,0,2.659,3.8,8.392,8.392,0,0,0,3.4,1.7,7.67,7.67,0,0,0,3.313,0,7.428,7.428,0,0,0,2.567-1.177,9.151,9.151,0,0,0,1.717-1.583,11.316,11.316,0,0,0,2.263-4.949,1.4,1.4,0,0,1,1.136-1.088c.675-.114,1.572-1.376,1.673-2.773.068-.934-.233-1.516-.894-1.728a1.4,1.4,0,1,1,.856-2.663,4.21,4.21,0,0,1,2.828,4.592,6.208,6.208,0,0,1-3.048,5.026,13.5,13.5,0,0,1-2.677,5.388,11.916,11.916,0,0,1-2.267,2.081,10.227,10.227,0,0,1-3.511,1.6A9.992,9.992,0,0,1,592.655,741.236Z" transform="translate(-578.638 -708.98)" fill="#0d66ce"/>
        </g>
        <g id="Group_1348" data-name="Group 1348" transform="translate(18.939 27.669)">
          <path id="Path_1449" data-name="Path 1449" d="M689.633,978.062a1.4,1.4,0,0,1-1.252-2.02,7.885,7.885,0,0,0,.844-3.142,3.024,3.024,0,0,0-.16-1.1c-.033-.115-.07-.246-.107-.391a1.4,1.4,0,1,1,2.709-.693c.028.11.057.213.088.321a5.749,5.749,0,0,1,.265,1.937,10.732,10.732,0,0,1-1.134,4.311A1.4,1.4,0,0,1,689.633,978.062Z" transform="translate(-688.236 -969.663)" fill="#0d66ce"/>
          <path id="Path_1450" data-name="Path 1450" d="M879.451,981.823a1.4,1.4,0,0,1-1.221-.715,10.51,10.51,0,0,1-1.4-4.743,5.784,5.784,0,0,1,.266-1.941l.038-.136a1.4,1.4,0,1,1,2.695.749l-.042.148a3.051,3.051,0,0,0-.161,1.106,7.716,7.716,0,0,0,1.044,3.448,1.4,1.4,0,0,1-1.219,2.082Z" transform="translate(-865.839 -973.055)" fill="#0d66ce"/>
        </g>
        <path id="Path_1451" data-name="Path 1451" d="M414.714,1058.987H364.6a1.4,1.4,0,0,1-1.4-1.394c-.011-3.581.156-12.535,1.947-18.307a15.19,15.19,0,0,1,1.844-4,15.719,15.719,0,0,1,5.87-5.155,16.052,16.052,0,0,1,7.913-1.711,1.4,1.4,0,0,1,.9.378l5.243,4.922a1.4,1.4,0,1,1-1.914,2.039l-4.852-4.555h-.035a13.218,13.218,0,0,0-5.986,1.421,12.833,12.833,0,0,0-4.8,4.2,12.319,12.319,0,0,0-1.505,3.283c-1.5,4.818-1.773,12.393-1.815,16.076h47.3c-.042-3.683-.32-11.257-1.815-16.076a12.318,12.318,0,0,0-1.505-3.283,12.834,12.834,0,0,0-4.805-4.205,13.218,13.218,0,0,0-5.986-1.421h-.055l-5.135,4.579a1.4,1.4,0,0,1-1.862-2.087l2.674-2.385,2.845-2.537a1.4,1.4,0,0,1,.873-.353,16.054,16.054,0,0,1,7.913,1.711,15.72,15.72,0,0,1,5.871,5.156,15.2,15.2,0,0,1,1.844,4c1.791,5.774,1.958,14.726,1.947,18.307A1.4,1.4,0,0,1,414.714,1058.987Z" transform="translate(-363.201 -997.316)" fill="#0d66ce"/>
      </g>
      <path id="Path_1452" data-name="Path 1452" d="M320.4,1508.007H257.2a1.414,1.414,0,0,1,0-2.8h63.2a1.414,1.414,0,0,1,0,2.8Z" transform="translate(436 64.664)" fill="#0d66ce"/>
      <g id="Group_1350" data-name="Group 1350" transform="translate(704.467 1547.026)">
        <path id="Path_1453" data-name="Path 1453" d="M504.872,1437.423H475.538a5.574,5.574,0,0,1-5.568-5.568v-.2a1.4,1.4,0,0,1,1.4-1.4h37.673a1.4,1.4,0,0,1,1.4,1.4v.2A5.574,5.574,0,0,1,504.872,1437.423Zm-31.831-4.367a2.775,2.775,0,0,0,2.5,1.57h29.334a2.775,2.775,0,0,0,2.5-1.57Z" transform="translate(-469.97 -1411.779)" fill="#0d66ce"/>
        <path id="Path_1454" data-name="Path 1454" d="M548.258,1134.368h-32.5a1.4,1.4,0,0,1-1.4-1.4v-16.15a3.733,3.733,0,0,1,3.729-3.729h27.839a3.733,3.733,0,0,1,3.729,3.729v16.15A1.4,1.4,0,0,1,548.258,1134.368Zm-31.1-2.8h29.7v-14.752a.933.933,0,0,0-.932-.932H518.089a.933.933,0,0,0-.932.932Z" transform="translate(-511.773 -1113.09)" fill="#0d66ce"/>
        <path id="Path_1455" data-name="Path 1455" d="M757,1239.157a3.728,3.728,0,1,1,3.728-3.728A3.732,3.732,0,0,1,757,1239.157Zm0-4.659a.931.931,0,1,0,.931.931A.932.932,0,0,0,757,1234.5Z" transform="translate(-736.763 -1224.79)" fill="#0d66ce"/>
      </g>
    </g>
  </g>
</svg>
