<svg xmlns="http://www.w3.org/2000/svg" width="126" height="126" viewBox="0 0 126 126">
  <g id="Group_1477" data-name="Group 1477" transform="translate(-277 -3767)">
    <rect id="Rectangle_525" data-name="Rectangle 525" width="126" height="126" rx="10" transform="translate(277 3767)" fill="#dbebff"/>
    <g id="password_computer_access_pc" data-name="password, computer, access, pc" transform="translate(304 3795)">
      <path id="Path_1633" data-name="Path 1633" d="M61.66,4H9.649A7.657,7.657,0,0,0,2,11.649V48.363a7.657,7.657,0,0,0,7.649,7.649H26.387c-.42,4.016-2.465,6.119-4.5,6.119a1.53,1.53,0,0,0,0,3.06H49.422a1.53,1.53,0,1,0,0-3.06c-2.035,0-4.079-2.1-4.5-6.119H61.66a7.657,7.657,0,0,0,7.649-7.649V11.649A7.657,7.657,0,0,0,61.66,4ZM9.649,7.06H61.66a4.594,4.594,0,0,1,4.589,4.589V40.714H5.06V11.649A4.594,4.594,0,0,1,9.649,7.06Zm34.21,55.071H27.45a12.162,12.162,0,0,0,1.989-6.119H41.869a12.162,12.162,0,0,0,1.99,6.119Zm17.8-9.179H9.649A4.594,4.594,0,0,1,5.06,48.363V43.774H66.25v4.589a4.594,4.594,0,0,1-4.589,4.589Z" transform="translate(0 0)" fill="#0d66ce"/>
      <path id="Path_1634" data-name="Path 1634" d="M26.589,32H23.53a1.53,1.53,0,1,0,0,3.06h3.06a1.53,1.53,0,0,0,0-3.06Z" transform="translate(10.595 14.833)" fill="#0d66ce"/>
      <path id="Path_1635" data-name="Path 1635" d="M20.73,14.448a1.529,1.529,0,0,0-2.163,0l-1.978,1.978-1.978-1.978a1.53,1.53,0,1,0-2.163,2.163l1.978,1.978-1.978,1.978a1.53,1.53,0,1,0,2.163,2.163l1.978-1.978,1.978,1.978a1.53,1.53,0,1,0,2.163-2.163l-1.978-1.978,1.978-1.978a1.529,1.529,0,0,0,0-2.163Z" transform="translate(5.298 5.297)" fill="#0d66ce"/>
      <path id="Path_1636" data-name="Path 1636" d="M29.73,14.448a1.529,1.529,0,0,0-2.163,0l-1.978,1.978-1.978-1.978a1.53,1.53,0,1,0-2.163,2.163l1.978,1.978-1.978,1.978a1.53,1.53,0,1,0,2.163,2.163l1.978-1.978,1.978,1.978a1.53,1.53,0,1,0,2.163-2.163l-1.978-1.978,1.978-1.978a1.529,1.529,0,0,0,0-2.163Z" transform="translate(10.065 5.297)" fill="#0d66ce"/>
      <path id="Path_1637" data-name="Path 1637" d="M38.73,14.448a1.529,1.529,0,0,0-2.163,0l-1.978,1.978-1.978-1.978a1.53,1.53,0,1,0-2.163,2.163l1.978,1.978-1.978,1.978a1.53,1.53,0,1,0,2.163,2.163l1.978-1.978,1.978,1.978a1.53,1.53,0,1,0,2.163-2.163l-1.978-1.978,1.978-1.978a1.529,1.529,0,0,0,0-2.163Z" transform="translate(14.833 5.297)" fill="#0d66ce"/>
      <path id="Path_1638" data-name="Path 1638" d="M9.53,31.417H55.422a1.53,1.53,0,0,0,1.53-1.53V11.53A1.53,1.53,0,0,0,55.422,10H9.53A1.53,1.53,0,0,0,8,11.53V29.887A1.53,1.53,0,0,0,9.53,31.417ZM11.06,13.06H53.893v15.3H11.06Z" transform="translate(3.179 3.179)" fill="#0d66ce"/>
    </g>
  </g>
</svg>
