<svg xmlns="http://www.w3.org/2000/svg" width="92.433" height="95" viewBox="0 0 92.433 95">
  <g id="INSURANCE" transform="translate(-6.163 -4.557)">
    <path id="Path_1406" data-name="Path 1406" d="M96.525,75.285a7.081,7.081,0,0,0-10,0L74,87.807a7.076,7.076,0,0,0-6.6-4.555H51.33l-3.39-3.516A14.3,14.3,0,0,0,37.7,75.38H24.3V73.529a1.4,1.4,0,0,0-1.4-1.4H7.561a1.4,1.4,0,1,0,0,2.8H21.5v35.409H7.561a1.4,1.4,0,0,0,0,2.8H22.9a1.4,1.4,0,0,0,1.4-1.4v-1.85H67.956a9.518,9.518,0,0,0,6.775-2.807L96.525,85.285A7.07,7.07,0,0,0,96.525,75.285Zm-1.978,8.022L72.756,105.1a6.743,6.743,0,0,1-4.794,1.987H24.3V78.175H37.7a11.486,11.486,0,0,1,8.231,3.5l3.8,3.947a1.4,1.4,0,0,0,1.006.428H67.4a4.275,4.275,0,0,1,0,8.55H47.169a1.4,1.4,0,0,0,0,2.8H67.4a7.077,7.077,0,0,0,6.983-6.015L88.5,77.264a4.274,4.274,0,1,1,6.045,6.045Z" transform="translate(0 -13.577)" fill="#0d66ce"/>
    <path id="Path_1407" data-name="Path 1407" d="M67.228,61.9a1.384,1.384,0,0,0,.746,0,33.961,33.961,0,0,0,11.765-6.626c5.347-4.56,11.721-12.914,11.721-26.814V15.1a1.4,1.4,0,0,0-.871-1.3l-22.46-9.15a1.41,1.41,0,0,0-1.056,0l-22.46,9.15a1.4,1.4,0,0,0-.871,1.3V28.462C43.742,55.093,66.993,61.837,67.228,61.9ZM46.539,16.045,67.6,7.468l21.061,8.577V28.462c0,22.966-18.118,29.692-21.061,30.632-2.949-.942-21.062-7.671-21.062-30.632Z" transform="translate(-7.55)" fill="#0d66ce"/>
    <path id="Path_1408" data-name="Path 1408" d="M68.7,56.641a1.4,1.4,0,0,0,1.1,0c5.034-2.146,16.741-9.012,16.741-26.4V21.306a1.4,1.4,0,0,0-.871-1.3L69.78,13.538a1.4,1.4,0,0,0-1.056,0L52.834,20.011a1.4,1.4,0,0,0-.871,1.3v8.939C51.963,47.62,63.67,54.493,68.7,56.641Zm15.042-26.4c0,13.754-8.052,20.2-13.094,22.891V16.912l13.094,5.335Zm-28.985-8,13.095-5.335V53.133C62.811,50.441,54.76,43.987,54.76,30.244Z" transform="translate(-9.202 -1.784)" fill="#0d66ce"/>
  </g>
</svg>
