<svg xmlns="http://www.w3.org/2000/svg" width="146.43" height="153.129" viewBox="0 0 146.43 153.129">
  <path id="Path_1377" data-name="Path 1377" d="M134.167,2258.853a4.139,4.139,0,1,0,4.167,4.139,4.152,4.152,0,0,0-4.167-4.139m27.381,0a4.139,4.139,0,1,0,4.167,4.139,4.152,4.152,0,0,0-4.167-4.139m27.382,0a4.139,4.139,0,1,0,4.167,4.139,4.153,4.153,0,0,0-4.167-4.139m28.572,0a4.139,4.139,0,1,0,4.166,4.139,4.153,4.153,0,0,0-4.166-4.139m27.381,0a4.139,4.139,0,1,0,4.167,4.139,4.153,4.153,0,0,0-4.167-4.139m27.381,0a4.139,4.139,0,1,0,4.167,4.139,4.153,4.153,0,0,0-4.167-4.139m-138.1-28.97a4.139,4.139,0,1,0,4.167,4.138,4.153,4.153,0,0,0-4.167-4.138m27.381,0a4.139,4.139,0,1,0,4.167,4.138,4.153,4.153,0,0,0-4.167-4.138m27.382,0a4.139,4.139,0,1,0,4.167,4.138,4.153,4.153,0,0,0-4.167-4.138m28.572,0a4.139,4.139,0,1,0,4.166,4.138,4.153,4.153,0,0,0-4.166-4.138m27.381,0a4.139,4.139,0,1,0,4.167,4.138,4.153,4.153,0,0,0-4.167-4.138m27.381,0a4.139,4.139,0,1,0,4.167,4.138,4.153,4.153,0,0,0-4.167-4.138m-138.1-28.97a4.139,4.139,0,1,0,4.167,4.139,4.152,4.152,0,0,0-4.167-4.139m27.381,0a4.139,4.139,0,1,0,4.167,4.139,4.152,4.152,0,0,0-4.167-4.139m27.382,0a4.139,4.139,0,1,0,4.167,4.139,4.153,4.153,0,0,0-4.167-4.139m28.572,0a4.139,4.139,0,1,0,4.166,4.139,4.153,4.153,0,0,0-4.166-4.139m27.381,0a4.139,4.139,0,1,0,4.167,4.139,4.153,4.153,0,0,0-4.167-4.139m27.381,0a4.139,4.139,0,1,0,4.167,4.139,4.153,4.153,0,0,0-4.167-4.139m-138.1-28.97a4.139,4.139,0,1,0,4.167,4.139,4.152,4.152,0,0,0-4.167-4.139m27.381,0a4.139,4.139,0,1,0,4.167,4.139,4.152,4.152,0,0,0-4.167-4.139m27.382,0a4.139,4.139,0,1,0,4.167,4.139,4.153,4.153,0,0,0-4.167-4.139m28.572,0a4.139,4.139,0,1,0,4.166,4.139,4.153,4.153,0,0,0-4.166-4.139m27.381,0a4.139,4.139,0,1,0,4.167,4.139,4.153,4.153,0,0,0-4.167-4.139m27.381,0a4.139,4.139,0,1,0,4.167,4.139,4.153,4.153,0,0,0-4.167-4.139m-138.1-28.97a4.139,4.139,0,1,0,4.167,4.138,4.152,4.152,0,0,0-4.167-4.138m27.381,0a4.139,4.139,0,1,0,4.167,4.138,4.152,4.152,0,0,0-4.167-4.138m27.382,0a4.139,4.139,0,1,0,4.167,4.138,4.153,4.153,0,0,0-4.167-4.138m28.572,0a4.139,4.139,0,1,0,4.166,4.138,4.152,4.152,0,0,0-4.166-4.138m27.381,0a4.139,4.139,0,1,0,4.167,4.138,4.153,4.153,0,0,0-4.167-4.138m27.381,0a4.139,4.139,0,1,0,4.167,4.138,4.153,4.153,0,0,0-4.167-4.138M134.167,2114a4.139,4.139,0,1,0,4.167,4.139,4.152,4.152,0,0,0-4.167-4.139m27.381,0a4.139,4.139,0,1,0,4.167,4.139,4.152,4.152,0,0,0-4.167-4.139m27.382,0a4.139,4.139,0,1,0,4.167,4.139A4.153,4.153,0,0,0,188.93,2114m28.572,0a4.139,4.139,0,1,0,4.166,4.139A4.153,4.153,0,0,0,217.5,2114m27.381,0a4.139,4.139,0,1,0,4.167,4.139,4.153,4.153,0,0,0-4.167-4.139m27.381,0a4.139,4.139,0,1,0,4.167,4.139,4.153,4.153,0,0,0-4.167-4.139" transform="translate(-130.001 -2114)" fill="#0d66ce"/>
</svg>
