<svg xmlns="http://www.w3.org/2000/svg" width="65.795" height="75.414" viewBox="0 0 65.795 75.414">
  <g id="Pdf" transform="translate(-5.209 -1.294)">
    <g id="Group_1432" data-name="Group 1432" transform="translate(5.209 1.294)">
      <path id="Path_1651" data-name="Path 1651" d="M14.21,23.123H31.862a1.228,1.228,0,1,0,0-2.456H14.21a1.228,1.228,0,1,0,0,2.456Z" transform="translate(-3.438 3.122)" fill="#0d66ce"/>
      <path id="Path_1652" data-name="Path 1652" d="M14.21,28.123H42.453a1.228,1.228,0,0,0,0-2.456H14.21a1.228,1.228,0,1,0,0,2.456Z" transform="translate(-3.438 4.262)" fill="#0d66ce"/>
      <path id="Path_1653" data-name="Path 1653" d="M14.21,33.123H42.453a1.228,1.228,0,0,0,0-2.456H14.21a1.228,1.228,0,1,0,0,2.456Z" transform="translate(-3.438 5.402)" fill="#0d66ce"/>
      <path id="Path_1654" data-name="Path 1654" d="M43.681,36.895a1.228,1.228,0,0,0-1.228-1.228H14.21a1.228,1.228,0,1,0,0,2.456H42.453A1.228,1.228,0,0,0,43.681,36.895Z" transform="translate(-3.438 6.542)" fill="#0d66ce"/>
      <path id="Path_1655" data-name="Path 1655" d="M32.844,47.021H29.275a1.228,1.228,0,0,0-1.228,1.228V58.943a1.228,1.228,0,1,0,2.456,0V54.824h2.341a3.9,3.9,0,0,0,0-7.8Zm0,5.347H30.5V49.476h2.341a1.446,1.446,0,0,1,0,2.891Z" transform="translate(-0.004 9.13)" fill="#0d66ce"/>
      <path id="Path_1656" data-name="Path 1656" d="M39.254,47.021h-.9a1.228,1.228,0,0,0-1.228,1.228V58.943a1.228,1.228,0,0,0,1.228,1.228h.9a6.575,6.575,0,0,0,0-13.15ZM39.586,57.7V49.49a4.119,4.119,0,0,1,0,8.212Z" transform="translate(2.067 9.13)" fill="#0d66ce"/>
      <path id="Path_1657" data-name="Path 1657" d="M53.684,47.021H47.441a1.228,1.228,0,0,0-1.228,1.228V58.943a1.228,1.228,0,1,0,2.456,0V54.824H51.24a1.228,1.228,0,0,0,0-2.456H48.669V49.476h5.014a1.228,1.228,0,0,0,0-2.456Z" transform="translate(4.138 9.13)" fill="#0d66ce"/>
      <path id="Path_1658" data-name="Path 1658" d="M66.093,51.331H55V4.978a3.688,3.688,0,0,0-3.684-3.684H21.728l-.008,0a1.22,1.22,0,0,0-.8.316c-.019.017-.045.026-.063.044s-.015.008-.021.015L5.552,17.623a1.343,1.343,0,0,0-.342.854V63.51a3.688,3.688,0,0,0,3.684,3.684H26.506v4.6a4.917,4.917,0,0,0,4.912,4.912H66.093A4.917,4.917,0,0,0,71,71.8V56.243A4.917,4.917,0,0,0,66.093,51.331ZM20.5,5.571v9.306a2.375,2.375,0,0,1-2.373,2.372H9.311ZM8.893,64.738A1.229,1.229,0,0,1,7.665,63.51V19.7H18.127a4.834,4.834,0,0,0,4.828-4.828V3.75H51.313a1.229,1.229,0,0,1,1.228,1.228V51.331H31.418a4.917,4.917,0,0,0-4.912,4.912v8.5H8.893ZM68.549,71.8a2.459,2.459,0,0,1-2.456,2.456H31.418A2.459,2.459,0,0,1,28.962,71.8V56.243a2.459,2.459,0,0,1,2.456-2.456H66.093a2.459,2.459,0,0,1,2.456,2.456Z" transform="translate(-5.21 -1.294)" fill="#0d66ce"/>
    </g>
  </g>
</svg>
